SplineFontDB: 3.2
FontName: AcariSans-ExtraLightItalic
FullName: Acari Sans ExtraLight Italic
FamilyName: Acari Sans ExtraLight
Weight: Extra-Light
Copyright: Copyright (c)2015, HK Grotesk Latin by Alfredo Marco Pradil (ammpradil@gmail.com) and HK Grotesk Cyrillic by Stefan Peev (http://www.contextbg.net/). HK Grotesk is a trademark of Alfredo Marco Pradil. Copyright (c) 2018-2023 The Acari Sans Project Authors (https://github.com/cssobral2013/acari-sans)
Version: 1.063; ttfautohint (v1.8.3)
ItalicAngle: -13
UnderlinePosition: -250
UnderlineWidth: 100
Ascent: 1600
Descent: 400
InvalidEm: 0
sfntRevision: 0x00011020
LayerCount: 2
Layer: 0 1 "Back" 1
Layer: 1 1 "Fore" 0
XUID: [1021 467 -1401554168 13657373]
StyleMap: 0x0001
FSType: 0
OS2Version: 4
OS2_WeightWidthSlopeOnly: 0
OS2_UseTypoMetrics: 0
CreationTime: 1480856841
ModificationTime: 1687306869
PfmFamily: 81
TTFWeight: 200
TTFWidth: 5
LineGap: 26
VLineGap: 0
Panose: 0 0 0 0 0 0 0 0 0 0
OS2TypoAscent: 1900
OS2TypoAOffset: 0
OS2TypoDescent: -487
OS2TypoDOffset: 0
OS2TypoLinegap: 26
OS2WinAscent: 1913
OS2WinAOffset: 0
OS2WinDescent: 500
OS2WinDOffset: 0
HheadAscent: 1900
HheadAOffset: 0
HheadDescent: -487
HheadDOffset: 0
OS2SubXSize: 1331
OS2SubYSize: 1228
OS2SubXOff: 0
OS2SubYOff: 153
OS2SupXSize: 1331
OS2SupYSize: 1228
OS2SupXOff: 0
OS2SupYOff: 716
OS2StrikeYSize: 82
OS2StrikeYPos: 599
OS2CapHeight: 1413
OS2XHeight: 1039
OS2Vendor: 'AMSP'
OS2CodePages: 20000197.00000000
OS2UnicodeRanges: 2000020f.10000001.00000000.00000000
Lookup: 1 0 0 "'locl' Localized Forms in Latin lookup 21" { "'locl' Localized Forms in Latin lookup 21-1"  } ['locl' ('latn' <'AZE ' 'CRT ' 'KAZ ' 'TAT ' 'TRK ' > ) ]
Lookup: 1 0 0 "'aalt' Access All Alternates lookup 0" { "'aalt' Access All Alternates lookup 0 subtable"  } ['aalt' ('DFLT' <'dflt' > 'cyrl' <'BGR ' 'RUS ' 'SRB ' 'dflt' > 'latn' <'AZE ' 'CRT ' 'KAZ ' 'MOL ' 'ROM ' 'TAT ' 'TRK ' 'dflt' > ) ]

StartChar: .notdef
Encoding: 65536 -1 0
Width: 748
GlyphClass: 1
Flags: W
LayerCount: 2
Fore
SplineSet
612 0 m 1,0,-1
 68 0 l 1,1,-1
 68 1365 l 1,2,-1
 612 1365 l 1,3,-1
 612 0 l 1,0,-1
544 68 m 1,4,-1
 544 1297 l 1,5,-1
 136 1297 l 1,6,-1
 136 68 l 1,7,-1
 544 68 l 1,4,-1
EndSplineSet
EndChar

StartChar: exclam
Encoding: 33 33 4
Width: 640
GlyphClass: 1
Flags: W
LayerCount: 2
Fore
SplineSet
329 364 m 1,0,-1
 249 364 l 1,1,-1
 470 1436 l 1,2,-1
 606 1436 l 1,3,-1
 329 364 l 1,0,-1
287 0 m 1,4,-1
 126 0 l 1,5,-1
 163 160 l 1,6,-1
 324 160 l 1,7,-1
 287 0 l 1,4,-1
EndSplineSet
EndChar

StartChar: quotedbl
Encoding: 34 34 5
Width: 900
GlyphClass: 1
Flags: W
LayerCount: 2
Fore
SplineSet
438 1037 m 1,0,-1
 338 1037 l 1,1,-1
 425 1413 l 1,2,-1
 525 1413 l 1,3,-1
 438 1037 l 1,0,-1
810 1037 m 1,4,-1
 708 1037 l 1,5,-1
 796 1413 l 1,6,-1
 897 1413 l 1,7,-1
 810 1037 l 1,4,-1
EndSplineSet
EndChar

StartChar: numbersign
Encoding: 35 35 6
Width: 1379
GlyphClass: 1
Flags: W
LayerCount: 2
Fore
SplineSet
692 0 m 1,0,-1
 605 0 l 1,1,-1
 798 438 l 1,2,-1
 444 438 l 1,3,-1
 252 0 l 1,4,-1
 165 0 l 1,5,-1
 359 450 l 1,6,-1
 116 450 l 1,7,-1
 136 534 l 1,8,-1
 395 534 l 1,9,-1
 555 903 l 1,10,-1
 302 903 l 1,11,-1
 320 978 l 1,12,-1
 589 978 l 1,13,-1
 789 1434 l 1,14,-1
 877 1434 l 1,15,-1
 681 995 l 1,16,-1
 1036 995 l 1,17,-1
 1230 1434 l 1,18,-1
 1317 1434 l 1,19,-1
 1120 983 l 1,20,-1
 1363 983 l 1,21,-1
 1344 903 l 1,22,-1
 1086 903 l 1,23,-1
 925 534 l 1,24,-1
 1178 534 l 1,25,-1
 1158 459 l 1,26,-1
 891 459 l 1,27,-1
 692 0 l 1,0,-1
837 534 m 1,28,-1
 997 903 l 1,29,-1
 645 903 l 1,30,-1
 483 534 l 1,31,-1
 837 534 l 1,28,-1
EndSplineSet
EndChar

StartChar: dollar
Encoding: 36 36 7
Width: 1119
GlyphClass: 1
Flags: W
LayerCount: 2
Fore
SplineSet
419 -247 m 1,0,-1
 356 -247 l 1,1,-1
 414 -12 l 1,2,3
 250 2 250 2 162 95.5 c 128,-1,4
 74 189 74 189 74 354 c 0,5,6
 74 359 74 359 75 362 c 0,7,8
 104 368 104 368 132 373.5 c 128,-1,9
 160 379 160 379 189 386 c 1,10,-1
 187 342 l 2,11,12
 187 277 187 277 209.5 230.5 c 128,-1,13
 232 184 232 184 271 154 c 128,-1,14
 310 124 310 124 362 110 c 128,-1,15
 414 96 414 96 474 96 c 0,16,17
 545 96 545 96 607.5 114 c 128,-1,18
 670 132 670 132 720 168 c 128,-1,19
 770 204 770 204 805.5 257.5 c 128,-1,20
 841 311 841 311 858 382 c 0,21,22
 862 398 862 398 864 413.5 c 128,-1,23
 866 429 866 429 866 446 c 0,24,25
 866 500 866 500 843 540.5 c 128,-1,26
 820 581 820 581 782 613 c 128,-1,27
 744 645 744 645 695.5 670.5 c 128,-1,28
 647 696 647 696 597 721.5 c 128,-1,29
 547 747 547 747 498.5 774 c 128,-1,30
 450 801 450 801 412 835.5 c 128,-1,31
 374 870 374 870 351 914 c 128,-1,32
 328 958 328 958 328 1018 c 0,33,34
 328 1102 328 1102 362 1173.5 c 128,-1,35
 396 1245 396 1245 453 1299 c 128,-1,36
 510 1353 510 1353 584 1387 c 128,-1,37
 658 1421 658 1421 737 1430 c 1,38,-1
 797 1660 l 1,39,-1
 860 1660 l 1,40,-1
 800 1432 l 1,41,42
 912 1424 912 1424 989.5 1372.5 c 128,-1,43
 1067 1321 1067 1321 1103 1212 c 1,44,-1
 1008 1160 l 1,45,46
 996 1202 996 1202 973 1234 c 128,-1,47
 950 1266 950 1266 918.5 1287.5 c 128,-1,48
 887 1309 887 1309 848.5 1320 c 128,-1,49
 810 1331 810 1331 767 1331 c 0,50,51
 706 1331 706 1331 648.5 1307 c 128,-1,52
 591 1283 591 1283 546 1242 c 128,-1,53
 501 1201 501 1201 473.5 1146 c 128,-1,54
 446 1091 446 1091 446 1028 c 0,55,56
 446 981 446 981 477.5 942.5 c 128,-1,57
 509 904 509 904 558 870.5 c 128,-1,58
 607 837 607 837 666.5 805.5 c 128,-1,59
 726 774 726 774 782 741.5 c 128,-1,60
 838 709 838 709 884 673.5 c 128,-1,61
 930 638 930 638 952 595 c 0,62,63
 967 565 967 565 973.5 528.5 c 128,-1,64
 980 492 980 492 980 459 c 0,65,66
 980 359 980 359 938 273 c 128,-1,67
 896 187 896 187 826 123.5 c 128,-1,68
 756 60 756 60 665.5 23.5 c 128,-1,69
 575 -13 575 -13 479 -14 c 1,70,-1
 419 -247 l 1,0,-1
EndSplineSet
EndChar

StartChar: percent
Encoding: 37 37 8
Width: 1611
GlyphClass: 1
Flags: W
LayerCount: 2
Fore
SplineSet
480 823 m 0,0,1
 432 823 432 823 397.5 839 c 128,-1,2
 363 855 363 855 341 883.5 c 128,-1,3
 319 912 319 912 308.5 950.5 c 128,-1,4
 298 989 298 989 298 1033 c 0,5,6
 298 1074 298 1074 306.5 1120 c 128,-1,7
 315 1166 315 1166 332 1211 c 128,-1,8
 349 1256 349 1256 374.5 1296.5 c 128,-1,9
 400 1337 400 1337 433 1368 c 128,-1,10
 466 1399 466 1399 506.5 1417.5 c 128,-1,11
 547 1436 547 1436 595 1436 c 256,12,13
 643 1436 643 1436 677 1418.5 c 128,-1,14
 711 1401 711 1401 733 1371 c 128,-1,15
 755 1341 755 1341 765 1301.5 c 128,-1,16
 775 1262 775 1262 775 1219 c 0,17,18
 775 1179 775 1179 766 1133.5 c 128,-1,19
 757 1088 757 1088 740 1044 c 128,-1,20
 723 1000 723 1000 697.5 960 c 128,-1,21
 672 920 672 920 639.5 889.5 c 128,-1,22
 607 859 607 859 567 841 c 128,-1,23
 527 823 527 823 480 823 c 0,0,1
368 11 m 1,24,-1
 271 11 l 1,25,-1
 1325 1388 l 1,26,-1
 1423 1388 l 1,27,-1
 368 11 l 1,24,-1
472 887 m 0,28,29
 509 887 509 887 540 904 c 128,-1,30
 571 921 571 921 597 949.5 c 128,-1,31
 623 978 623 978 642.5 1014 c 128,-1,32
 662 1050 662 1050 675 1088.5 c 128,-1,33
 688 1127 688 1127 695 1164.5 c 128,-1,34
 702 1202 702 1202 702 1232 c 0,35,36
 702 1257 702 1257 697 1281.5 c 128,-1,37
 692 1306 692 1306 680 1325.5 c 128,-1,38
 668 1345 668 1345 648.5 1357 c 128,-1,39
 629 1369 629 1369 599 1369 c 0,40,41
 561 1369 561 1369 528.5 1352.5 c 128,-1,42
 496 1336 496 1336 470.5 1309 c 128,-1,43
 445 1282 445 1282 425.5 1246.5 c 128,-1,44
 406 1211 406 1211 392.5 1173 c 128,-1,45
 379 1135 379 1135 372.5 1097.5 c 128,-1,46
 366 1060 366 1060 366 1028 c 0,47,48
 366 1001 366 1001 370.5 975.5 c 128,-1,49
 375 950 375 950 387 930.5 c 128,-1,50
 399 911 399 911 419.5 899 c 128,-1,51
 440 887 440 887 472 887 c 0,28,29
1123 8 m 0,52,53
 1074 8 1074 8 1039.5 24 c 128,-1,54
 1005 40 1005 40 982.5 68.5 c 128,-1,55
 960 97 960 97 949.5 135.5 c 128,-1,56
 939 174 939 174 939 219 c 0,57,58
 939 281 939 281 958.5 350 c 128,-1,59
 978 419 978 419 1015.5 478 c 128,-1,60
 1053 537 1053 537 1108 575.5 c 128,-1,61
 1163 614 1163 614 1234 614 c 0,62,63
 1282 614 1282 614 1316 596.5 c 128,-1,64
 1350 579 1350 579 1372.5 549 c 128,-1,65
 1395 519 1395 519 1405.5 480 c 128,-1,66
 1416 441 1416 441 1416 398 c 0,67,68
 1416 337 1416 337 1396.5 268.5 c 128,-1,69
 1377 200 1377 200 1340 142 c 128,-1,70
 1303 84 1303 84 1248.5 46 c 128,-1,71
 1194 8 1194 8 1123 8 c 0,52,53
1114 73 m 0,72,73
 1152 73 1152 73 1183.5 89.5 c 128,-1,74
 1215 106 1215 106 1241 133 c 128,-1,75
 1267 160 1267 160 1286.5 195.5 c 128,-1,76
 1306 231 1306 231 1319 269 c 128,-1,77
 1332 307 1332 307 1338.5 344.5 c 128,-1,78
 1345 382 1345 382 1345 413 c 0,79,80
 1345 438 1345 438 1339.5 462 c 128,-1,81
 1334 486 1334 486 1322 505 c 128,-1,82
 1310 524 1310 524 1290 535.5 c 128,-1,83
 1270 547 1270 547 1241 547 c 0,84,85
 1204 547 1204 547 1172 531 c 128,-1,86
 1140 515 1140 515 1114 489 c 128,-1,87
 1088 463 1088 463 1068.5 429 c 128,-1,88
 1049 395 1049 395 1035.5 358 c 128,-1,89
 1022 321 1022 321 1015 284 c 128,-1,90
 1008 247 1008 247 1008 216 c 0,91,92
 1008 189 1008 189 1012.5 163.5 c 128,-1,93
 1017 138 1017 138 1029 117.5 c 128,-1,94
 1041 97 1041 97 1061.5 85 c 128,-1,95
 1082 73 1082 73 1114 73 c 0,72,73
EndSplineSet
EndChar

StartChar: ampersand
Encoding: 38 38 9
Width: 1370
GlyphClass: 1
Flags: W
LayerCount: 2
Fore
SplineSet
1066 -45 m 1,0,-1
 918 197 l 1,1,2
 815 92 815 92 693.5 36 c 128,-1,3
 572 -20 572 -20 424 -20 c 0,4,5
 359 -20 359 -20 299.5 -7.5 c 128,-1,6
 240 5 240 5 194.5 35 c 128,-1,7
 149 65 149 65 122 114.5 c 128,-1,8
 95 164 95 164 95 239 c 0,9,10
 95 253 95 253 98.5 266 c 128,-1,11
 102 279 102 279 105 293 c 0,12,13
 126 382 126 382 175 451.5 c 128,-1,14
 224 521 224 521 289 578 c 128,-1,15
 354 635 354 635 429 681.5 c 128,-1,16
 504 728 504 728 578 770 c 1,17,18
 557 807 557 807 535.5 845.5 c 128,-1,19
 514 884 514 884 496.5 924.5 c 128,-1,20
 479 965 479 965 468.5 1007 c 128,-1,21
 458 1049 458 1049 458 1093 c 0,22,23
 458 1167 458 1167 492 1228.5 c 128,-1,24
 526 1290 526 1290 580 1335 c 128,-1,25
 634 1380 634 1380 702.5 1405 c 128,-1,26
 771 1430 771 1430 840 1430 c 0,27,28
 892 1430 892 1430 936 1414 c 128,-1,29
 980 1398 980 1398 1012 1368 c 128,-1,30
 1044 1338 1044 1338 1062 1295.5 c 128,-1,31
 1080 1253 1080 1253 1080 1200 c 0,32,33
 1080 1115 1080 1115 1043 1047 c 128,-1,34
 1006 979 1006 979 948.5 923.5 c 128,-1,35
 891 868 891 868 822 823.5 c 128,-1,36
 753 779 753 779 688 741 c 1,37,38
 749 641 749 641 810.5 543 c 128,-1,39
 872 445 872 445 933 345 c 1,40,41
 990 424 990 424 1033 511.5 c 128,-1,42
 1076 599 1076 599 1108 691 c 1,43,-1
 1189 671 l 1,44,45
 1153 562 1153 562 1102 461 c 128,-1,46
 1051 360 1051 360 979 269 c 1,47,-1
 1139 11 l 1,48,-1
 1066 -45 l 1,0,-1
645 810 m 1,49,50
 696 839 696 839 758.5 876.5 c 128,-1,51
 821 914 821 914 876.5 960.5 c 128,-1,52
 932 1007 932 1007 969.5 1063.5 c 128,-1,53
 1007 1120 1007 1120 1007 1187 c 0,54,55
 1007 1221 1007 1221 993.5 1249 c 128,-1,56
 980 1277 980 1277 957 1297 c 128,-1,57
 934 1317 934 1317 904.5 1328 c 128,-1,58
 875 1339 875 1339 842 1339 c 0,59,60
 790 1339 790 1339 736 1320 c 128,-1,61
 682 1301 682 1301 638 1267.5 c 128,-1,62
 594 1234 594 1234 565.5 1187 c 128,-1,63
 537 1140 537 1140 537 1083 c 0,64,65
 537 1049 537 1049 547 1012.5 c 128,-1,66
 557 976 557 976 572.5 940.5 c 128,-1,67
 588 905 588 905 607.5 872 c 128,-1,68
 627 839 627 839 645 810 c 1,49,50
431 77 m 0,69,70
 565 77 565 77 673.5 125 c 128,-1,71
 782 173 782 173 873 270 c 1,72,-1
 611 695 l 1,73,74
 570 672 570 672 522 644 c 128,-1,75
 474 616 474 616 426.5 583.5 c 128,-1,76
 379 551 379 551 334.5 513 c 128,-1,77
 290 475 290 475 256.5 432 c 128,-1,78
 223 389 223 389 202.5 340 c 128,-1,79
 182 291 182 291 182 237 c 0,80,81
 182 188 182 188 206.5 157 c 128,-1,82
 231 126 231 126 268 108 c 128,-1,83
 305 90 305 90 348.5 83.5 c 128,-1,84
 392 77 392 77 431 77 c 0,69,70
EndSplineSet
EndChar

StartChar: quotesingle
Encoding: 39 39 10
Width: 615
GlyphClass: 1
Flags: W
LayerCount: 2
Fore
SplineSet
488 1065 m 1,0,-1
 389 1065 l 1,1,-1
 476 1442 l 1,2,-1
 576 1442 l 1,3,-1
 488 1065 l 1,0,-1
EndSplineSet
EndChar

StartChar: parenleft
Encoding: 40 40 11
Width: 567
GlyphClass: 1
Flags: W
LayerCount: 2
Fore
SplineSet
347 10 m 1,0,-1
 274 10 l 1,1,2
 244 54 244 54 224.5 111.5 c 128,-1,3
 205 169 205 169 193 230.5 c 128,-1,4
 181 292 181 292 176.5 353.5 c 128,-1,5
 172 415 172 415 172 467 c 0,6,7
 172 545 172 545 181.5 622 c 128,-1,8
 191 699 191 699 212 774 c 0,9,10
 236 859 236 859 273.5 946 c 128,-1,11
 311 1033 311 1033 360 1115 c 128,-1,12
 409 1197 409 1197 467 1272 c 128,-1,13
 525 1347 525 1347 589 1408 c 1,14,-1
 679 1408 l 1,15,16
 588 1314 588 1314 510 1198.5 c 128,-1,17
 432 1083 432 1083 374.5 959 c 128,-1,18
 317 835 317 835 284.5 703 c 128,-1,19
 252 571 252 571 252 438 c 0,20,21
 252 325 252 325 272 217.5 c 128,-1,22
 292 110 292 110 347 10 c 1,0,-1
EndSplineSet
EndChar

StartChar: parenright
Encoding: 41 41 12
Width: 569
GlyphClass: 1
Flags: W
LayerCount: 2
Fore
SplineSet
75 3 m 1,0,-1
 -12 3 l 1,1,2
 52 69 52 69 114 157.5 c 128,-1,3
 176 246 176 246 229 339 c 128,-1,4
 282 432 282 432 322 528.5 c 128,-1,5
 362 625 362 625 383 715 c 0,6,7
 410 832 410 832 410 954 c 0,8,9
 410 1008 410 1008 404.5 1067.5 c 128,-1,10
 399 1127 399 1127 387 1186.5 c 128,-1,11
 375 1246 375 1246 357.5 1299.5 c 128,-1,12
 340 1353 340 1353 316 1401 c 1,13,-1
 389 1401 l 1,14,15
 450 1301 450 1301 474 1189 c 128,-1,16
 498 1077 498 1077 498 962 c 0,17,18
 498 857 498 857 479.5 757.5 c 128,-1,19
 461 658 461 658 428 563.5 c 128,-1,20
 395 469 395 469 348 379 c 128,-1,21
 301 289 301 289 244 203 c 0,22,23
 208 148 208 148 165.5 98 c 128,-1,24
 123 48 123 48 75 3 c 1,0,-1
EndSplineSet
EndChar

StartChar: asterisk
Encoding: 42 42 13
Width: 871
GlyphClass: 1
Flags: W
LayerCount: 2
Fore
SplineSet
393 861 m 1,0,-1
 339 911 l 1,1,-1
 568 1127 l 1,2,-1
 318 1172 l 1,3,-1
 360 1256 l 1,4,-1
 578 1147 l 1,5,-1
 609 1413 l 1,6,-1
 681 1413 l 1,7,-1
 589 1147 l 1,8,-1
 854 1256 l 1,9,-1
 860 1173 l 1,10,-1
 587 1127 l 1,11,-1
 720 912 l 1,12,-1
 651 862 l 1,13,-1
 577 1106 l 1,14,-1
 393 861 l 1,0,-1
EndSplineSet
EndChar

StartChar: plus
Encoding: 43 43 14
Width: 1289
GlyphClass: 1
Flags: W
LayerCount: 2
Fore
SplineSet
684 107 m 1,0,-1
 605 107 l 1,1,-1
 605 587 l 1,2,-1
 146 587 l 1,3,-1
 146 666 l 1,4,-1
 605 666 l 1,5,-1
 605 1142 l 1,6,-1
 684 1142 l 1,7,-1
 684 666 l 1,8,-1
 1143 666 l 1,9,-1
 1143 587 l 1,10,-1
 684 587 l 1,11,-1
 684 107 l 1,0,-1
EndSplineSet
EndChar

StartChar: comma
Encoding: 44 44 15
Width: 600
GlyphClass: 1
Flags: W
LayerCount: 2
Fore
SplineSet
38 -226 m 1,0,-1
 -22 -226 l 1,1,-1
 192 259 l 1,2,-1
 346 259 l 1,3,-1
 38 -226 l 1,0,-1
EndSplineSet
EndChar

StartChar: hyphen
Encoding: 45 45 16
Width: 832
GlyphClass: 1
Flags: W
LayerCount: 2
Fore
SplineSet
692 660 m 1,0,-1
 212 660 l 1,1,-1
 231 739 l 1,2,-1
 712 739 l 1,3,-1
 692 660 l 1,0,-1
EndSplineSet
EndChar

StartChar: period
Encoding: 46 46 17
Width: 600
GlyphClass: 1
Flags: W
LayerCount: 2
Fore
SplineSet
279 0 m 1,0,-1
 105 0 l 1,1,-1
 143 160 l 1,2,-1
 317 160 l 1,3,-1
 279 0 l 1,0,-1
EndSplineSet
EndChar

StartChar: slash
Encoding: 47 47 18
Width: 941
GlyphClass: 1
Flags: W
LayerCount: 2
Fore
SplineSet
-54 -432 m 1,0,-1
 -176 -432 l 1,1,-1
 1020 1517 l 1,2,-1
 1136 1517 l 1,3,-1
 -54 -432 l 1,0,-1
EndSplineSet
EndChar

StartChar: zero
Encoding: 48 48 19
Width: 1200
GlyphClass: 1
Flags: W
LayerCount: 2
Fore
SplineSet
437 -20 m 0,0,1
 335 -20 335 -20 264.5 17.5 c 128,-1,2
 194 55 194 55 150 118 c 128,-1,3
 106 181 106 181 86.5 264 c 128,-1,4
 67 347 67 347 67 437 c 0,5,6
 67 553 67 553 87.5 657 c 128,-1,7
 108 761 108 761 148 870 c 0,8,9
 184 969 184 969 239.5 1069.5 c 128,-1,10
 295 1170 295 1170 371.5 1251.5 c 128,-1,11
 448 1333 448 1333 545 1384.5 c 128,-1,12
 642 1436 642 1436 759 1436 c 0,13,14
 877 1436 877 1436 955.5 1380.5 c 128,-1,15
 1034 1325 1034 1325 1079 1217 c 0,16,17
 1094 1181 1094 1181 1103 1150.5 c 128,-1,18
 1112 1120 1112 1120 1116.5 1089.5 c 128,-1,19
 1121 1059 1121 1059 1122.5 1027 c 128,-1,20
 1124 995 1124 995 1124 957 c 0,21,22
 1124 851 1124 851 1101 738.5 c 128,-1,23
 1078 626 1078 626 1035.5 519 c 128,-1,24
 993 412 993 412 932 315 c 128,-1,25
 871 218 871 218 795 144 c 0,26,27
 721 72 721 72 632 26 c 128,-1,28
 543 -20 543 -20 437 -20 c 0,0,1
454 79 m 0,29,30
 522 79 522 79 582 105 c 128,-1,31
 642 131 642 131 693 175.5 c 128,-1,32
 744 220 744 220 787 280.5 c 128,-1,33
 830 341 830 341 864 410 c 128,-1,34
 898 479 898 479 924 553 c 128,-1,35
 950 627 950 627 967 699.5 c 128,-1,36
 984 772 984 772 992.5 839 c 128,-1,37
 1001 906 1001 906 1001 961 c 0,38,39
 1001 1027 1001 1027 989.5 1093.5 c 128,-1,40
 978 1160 978 1160 948 1213 c 128,-1,41
 918 1266 918 1266 866.5 1299 c 128,-1,42
 815 1332 815 1332 735 1332 c 0,43,44
 643 1332 643 1332 565.5 1288 c 128,-1,45
 488 1244 488 1244 426 1172.5 c 128,-1,46
 364 1101 364 1101 317.5 1008.5 c 128,-1,47
 271 916 271 916 239.5 819 c 128,-1,48
 208 722 208 722 192.5 628 c 128,-1,49
 177 534 177 534 177 459 c 0,50,51
 177 389 177 389 189 320.5 c 128,-1,52
 201 252 201 252 231.5 198.5 c 128,-1,53
 262 145 262 145 316 112 c 128,-1,54
 370 79 370 79 454 79 c 0,29,30
EndSplineSet
Substitution2: "'subs' Subscript lookup 20 subtable" uni2080
Substitution2: "'sinf' Scientific Inferiors lookup 19 subtable" uni2080
Substitution2: "'sups' Superscript lookup 17 subtable" uni2070
AlternateSubs2: "'aalt' Access All Alternates lookup 1 subtable" uni2070 uni2080
EndChar

StartChar: one
Encoding: 49 49 20
Width: 1200
GlyphClass: 1
Flags: W
LayerCount: 2
Fore
SplineSet
571 0 m 1,0,-1
 457 0 l 1,1,-1
 714 1114 l 1,2,-1
 332 1114 l 1,3,-1
 353 1205 l 1,4,-1
 561 1205 l 2,5,6
 608 1205 608 1205 647.5 1220 c 128,-1,7
 687 1235 687 1235 717 1262.5 c 128,-1,8
 747 1290 747 1290 767.5 1328.5 c 128,-1,9
 788 1367 788 1367 797 1413 c 1,10,-1
 897 1413 l 1,11,-1
 571 0 l 1,0,-1
EndSplineSet
Substitution2: "'subs' Subscript lookup 20 subtable" uni2081
Substitution2: "'sinf' Scientific Inferiors lookup 19 subtable" uni2081
Substitution2: "'sups' Superscript lookup 17 subtable" onesuperior
AlternateSubs2: "'aalt' Access All Alternates lookup 1 subtable" onesuperior uni2081
EndChar

StartChar: two
Encoding: 50 50 21
Width: 1200
GlyphClass: 1
Flags: W
LayerCount: 2
Fore
SplineSet
890 0 m 1,0,-1
 -45 0 l 1,1,-1
 -19 114 l 1,2,3
 86 172 86 172 174 228 c 128,-1,4
 262 284 262 284 343 344.5 c 128,-1,5
 424 405 424 405 503.5 473 c 128,-1,6
 583 541 583 541 670 622 c 0,7,8
 724 672 724 672 775.5 729 c 128,-1,9
 827 786 827 786 867.5 849.5 c 128,-1,10
 908 913 908 913 933 984 c 128,-1,11
 958 1055 958 1055 958 1132 c 0,12,13
 958 1183 958 1183 941.5 1221 c 128,-1,14
 925 1259 925 1259 895.5 1283.5 c 128,-1,15
 866 1308 866 1308 825.5 1320.5 c 128,-1,16
 785 1333 785 1333 737 1333 c 0,17,18
 659 1333 659 1333 596.5 1303 c 128,-1,19
 534 1273 534 1273 487 1223.5 c 128,-1,20
 440 1174 440 1174 407.5 1109.5 c 128,-1,21
 375 1045 375 1045 358 976 c 1,22,-1
 259 989 l 1,23,24
 279 1077 279 1077 322.5 1153 c 128,-1,25
 366 1229 366 1229 429 1294 c 0,26,27
 561 1432 561 1432 753 1432 c 0,28,29
 807 1432 807 1432 854 1424.5 c 128,-1,30
 901 1417 901 1417 939 1397.5 c 128,-1,31
 977 1378 977 1378 1007 1343 c 128,-1,32
 1037 1308 1037 1308 1057 1254 c 0,33,34
 1075 1205 1075 1205 1075 1151 c 0,35,36
 1075 1074 1075 1074 1053.5 1002 c 128,-1,37
 1032 930 1032 930 995 863.5 c 128,-1,38
 958 797 958 797 909 736 c 128,-1,39
 860 675 860 675 804.5 619.5 c 128,-1,40
 749 564 749 564 690.5 514 c 128,-1,41
 632 464 632 464 577 419 c 0,42,43
 515 369 515 369 453.5 320 c 128,-1,44
 392 271 392 271 326 226 c 0,45,46
 271 189 271 189 214 157 c 128,-1,47
 157 125 157 125 100 90 c 1,48,-1
 910 90 l 1,49,-1
 890 0 l 1,0,-1
EndSplineSet
Substitution2: "'subs' Subscript lookup 20 subtable" uni2082
Substitution2: "'sinf' Scientific Inferiors lookup 19 subtable" uni2082
Substitution2: "'sups' Superscript lookup 17 subtable" twosuperior
AlternateSubs2: "'aalt' Access All Alternates lookup 1 subtable" twosuperior uni2082
EndChar

StartChar: three
Encoding: 51 51 22
Width: 1200
GlyphClass: 1
Flags: W
LayerCount: 2
Fore
SplineSet
405 -20 m 0,0,1
 335 -20 335 -20 267.5 -5 c 128,-1,2
 200 10 200 10 147 44.5 c 128,-1,3
 94 79 94 79 61.5 134.5 c 128,-1,4
 29 190 29 190 29 270 c 0,5,6
 29 297 29 297 32.5 323.5 c 128,-1,7
 36 350 36 350 42 376 c 1,8,9
 67 381 67 381 92 382.5 c 128,-1,10
 117 384 117 384 143 388 c 1,11,12
 134 351 134 351 134 313 c 0,13,14
 134 251 134 251 159 205.5 c 128,-1,15
 184 160 184 160 225 130.5 c 128,-1,16
 266 101 266 101 318.5 87 c 128,-1,17
 371 73 371 73 427 73 c 0,18,19
 510 73 510 73 588.5 103 c 128,-1,20
 667 133 667 133 728.5 186.5 c 128,-1,21
 790 240 790 240 827.5 313.5 c 128,-1,22
 865 387 865 387 865 474 c 0,23,24
 865 558 865 558 817.5 612.5 c 128,-1,25
 770 667 770 667 690 687 c 0,26,27
 646 698 646 698 603.5 698.5 c 128,-1,28
 561 699 561 699 516 699 c 1,29,-1
 540 801 l 1,30,31
 579 801 579 801 618 801.5 c 128,-1,32
 657 802 657 802 695 811 c 0,33,34
 750 825 750 825 795 856 c 128,-1,35
 840 887 840 887 872.5 930 c 128,-1,36
 905 973 905 973 922.5 1025.5 c 128,-1,37
 940 1078 940 1078 940 1134 c 0,38,39
 940 1182 940 1182 922 1220 c 128,-1,40
 904 1258 904 1258 873.5 1284.5 c 128,-1,41
 843 1311 843 1311 802 1324.5 c 128,-1,42
 761 1338 761 1338 715 1338 c 0,43,44
 656 1338 656 1338 599.5 1318.5 c 128,-1,45
 543 1299 543 1299 496 1263.5 c 128,-1,46
 449 1228 449 1228 415.5 1179.5 c 128,-1,47
 382 1131 382 1131 368 1072 c 1,48,-1
 272 1087 l 1,49,50
 291 1169 291 1169 335.5 1233.5 c 128,-1,51
 380 1298 380 1298 442 1342.5 c 128,-1,52
 504 1387 504 1387 579.5 1410.5 c 128,-1,53
 655 1434 655 1434 737 1434 c 0,54,55
 799 1434 799 1434 855 1417.5 c 128,-1,56
 911 1401 911 1401 954.5 1368 c 128,-1,57
 998 1335 998 1335 1023.5 1285 c 128,-1,58
 1049 1235 1049 1235 1049 1168 c 0,59,60
 1049 1100 1049 1100 1028.5 1038.5 c 128,-1,61
 1008 977 1008 977 971 924.5 c 128,-1,62
 934 872 934 872 883.5 830 c 128,-1,63
 833 788 833 788 774 759 c 1,64,65
 871 727 871 727 918.5 663 c 128,-1,66
 966 599 966 599 966 496 c 0,67,68
 966 378 966 378 920.5 283 c 128,-1,69
 875 188 875 188 797.5 120.5 c 128,-1,70
 720 53 720 53 618.5 16.5 c 128,-1,71
 517 -20 517 -20 405 -20 c 0,0,1
EndSplineSet
Substitution2: "'subs' Subscript lookup 20 subtable" uni2083
Substitution2: "'sinf' Scientific Inferiors lookup 19 subtable" uni2083
Substitution2: "'sups' Superscript lookup 17 subtable" threesuperior
AlternateSubs2: "'aalt' Access All Alternates lookup 1 subtable" threesuperior uni2083
EndChar

StartChar: four
Encoding: 52 52 23
Width: 1200
GlyphClass: 1
Flags: W
LayerCount: 2
Fore
SplineSet
686 0 m 1,0,-1
 575 0 l 1,1,-1
 668 403 l 1,2,-1
 13 403 l 1,3,-1
 27 466 l 1,4,-1
 903 1413 l 1,5,-1
 1012 1413 l 1,6,-1
 800 493 l 1,7,-1
 1025 493 l 1,8,-1
 1004 403 l 1,9,-1
 779 403 l 1,10,-1
 686 0 l 1,0,-1
689 493 m 1,11,-1
 862 1245 l 1,12,-1
 156 493 l 1,13,-1
 689 493 l 1,11,-1
EndSplineSet
Substitution2: "'subs' Subscript lookup 20 subtable" uni2084
Substitution2: "'sinf' Scientific Inferiors lookup 19 subtable" uni2084
Substitution2: "'sups' Superscript lookup 17 subtable" uni2074
AlternateSubs2: "'aalt' Access All Alternates lookup 1 subtable" uni2074 uni2084
EndChar

StartChar: five
Encoding: 53 53 24
Width: 1200
GlyphClass: 1
Flags: W
LayerCount: 2
Fore
SplineSet
431 -20 m 0,0,1
 345 -20 345 -20 278.5 7 c 128,-1,2
 212 34 212 34 167 82.5 c 128,-1,3
 122 131 122 131 98.5 200 c 128,-1,4
 75 269 75 269 75 353 c 1,5,6
 101 364 101 364 129 372.5 c 128,-1,7
 157 381 157 381 183 392 c 1,8,9
 182 385 182 385 182 379 c 0,10,11
 182 378 182 378 182 378 c 2,12,13
 182 377 182 377 182 377 c 1,14,-1
 182 376 l 2,15,16
 182 375 182 375 182 375 c 257,17,18
 182 375 182 375 182 374 c 2,19,20
 182 374 182 374 182 373 c 1,21,22
 182 373 182 373 182 373 c 1,23,-1
 182 368 l 1,24,25
 182 368 182 368 182 368 c 1,26,-1
 182 366 l 2,27,28
 182 323 182 323 192.5 277.5 c 128,-1,29
 203 232 203 232 224.5 192.5 c 128,-1,30
 246 153 246 153 280 124.5 c 128,-1,31
 314 96 314 96 362 87 c 0,32,33
 383 83 383 83 404.5 81 c 128,-1,34
 426 79 426 79 448 79 c 0,35,36
 543 79 543 79 624.5 119 c 128,-1,37
 706 159 706 159 766 225.5 c 128,-1,38
 826 292 826 292 860.5 378 c 128,-1,39
 895 464 895 464 895 555 c 0,40,41
 895 580 895 580 891.5 604.5 c 128,-1,42
 888 629 888 629 883 653 c 0,43,44
 874 694 874 694 848 723.5 c 128,-1,45
 822 753 822 753 787.5 771.5 c 128,-1,46
 753 790 753 790 713 798.5 c 128,-1,47
 673 807 673 807 635 807 c 0,48,49
 533 807 533 807 444 768 c 128,-1,50
 355 729 355 729 289 651 c 1,51,-1
 211 716 l 1,52,-1
 488 1413 l 1,53,-1
 1148 1413 l 1,54,-1
 1127 1319 l 1,55,-1
 553 1319 l 1,56,-1
 337 770 l 1,57,58
 480 901 480 901 670 901 c 0,59,60
 747 901 747 901 809 878 c 128,-1,61
 871 855 871 855 914.5 812 c 128,-1,62
 958 769 958 769 981.5 707.5 c 128,-1,63
 1005 646 1005 646 1005 569 c 0,64,65
 1005 494 1005 494 983.5 421 c 128,-1,66
 962 348 962 348 924 282.5 c 128,-1,67
 886 217 886 217 832.5 161.5 c 128,-1,68
 779 106 779 106 715.5 65.5 c 128,-1,69
 652 25 652 25 579.5 2.5 c 128,-1,70
 507 -20 507 -20 431 -20 c 0,0,1
EndSplineSet
Substitution2: "'subs' Subscript lookup 20 subtable" uni2085
Substitution2: "'sinf' Scientific Inferiors lookup 19 subtable" uni2085
Substitution2: "'sups' Superscript lookup 17 subtable" uni2075
AlternateSubs2: "'aalt' Access All Alternates lookup 1 subtable" uni2075 uni2085
EndChar

StartChar: six
Encoding: 54 54 25
Width: 1200
GlyphClass: 1
Flags: W
LayerCount: 2
Fore
SplineSet
420 -20 m 0,0,1
 344 -20 344 -20 279.5 6.5 c 128,-1,2
 215 33 215 33 169 79.5 c 128,-1,3
 123 126 123 126 97 190.5 c 128,-1,4
 71 255 71 255 71 331 c 0,5,6
 71 429 71 429 107 518 c 128,-1,7
 143 607 143 607 203 683 c 2,8,-1
 783 1414 l 1,9,-1
 896 1414 l 1,10,-1
 457 860 l 1,11,12
 543 881 543 881 630 881 c 0,13,14
 683 881 683 881 735 872 c 128,-1,15
 787 863 787 863 832.5 841 c 128,-1,16
 878 819 878 819 913 782.5 c 128,-1,17
 948 746 948 746 966 691 c 0,18,19
 977 658 977 658 984 624 c 128,-1,20
 991 590 991 590 991 555 c 0,21,22
 991 481 991 481 969.5 409 c 128,-1,23
 948 337 948 337 909.5 273.5 c 128,-1,24
 871 210 871 210 817.5 156 c 128,-1,25
 764 102 764 102 700.5 63 c 128,-1,26
 637 24 637 24 566 2 c 128,-1,27
 495 -20 495 -20 420 -20 c 0,0,1
445 78 m 0,28,29
 501 78 501 78 555 96 c 128,-1,30
 609 114 609 114 657.5 145 c 128,-1,31
 706 176 706 176 746.5 219 c 128,-1,32
 787 262 787 262 817 311.5 c 128,-1,33
 847 361 847 361 863.5 416 c 128,-1,34
 880 471 880 471 880 526 c 0,35,36
 880 590 880 590 860.5 638 c 128,-1,37
 841 686 841 686 805.5 718 c 128,-1,38
 770 750 770 750 720 766 c 128,-1,39
 670 782 670 782 608 782 c 0,40,41
 521 782 521 782 443.5 748 c 128,-1,42
 366 714 366 714 308 656 c 128,-1,43
 250 598 250 598 216 520.5 c 128,-1,44
 182 443 182 443 182 356 c 0,45,46
 182 298 182 298 200.5 247 c 128,-1,47
 219 196 219 196 253.5 158.5 c 128,-1,48
 288 121 288 121 336.5 99.5 c 128,-1,49
 385 78 385 78 445 78 c 0,28,29
EndSplineSet
Substitution2: "'subs' Subscript lookup 20 subtable" uni2086
Substitution2: "'sinf' Scientific Inferiors lookup 19 subtable" uni2086
Substitution2: "'sups' Superscript lookup 17 subtable" uni2076
AlternateSubs2: "'aalt' Access All Alternates lookup 1 subtable" uni2076 uni2086
EndChar

StartChar: seven
Encoding: 55 55 26
Width: 1200
GlyphClass: 1
Flags: W
LayerCount: 2
Fore
SplineSet
275 0 m 1,0,-1
 149 0 l 1,1,-1
 1059 1318 l 1,2,-1
 279 1318 l 1,3,-1
 301 1413 l 1,4,-1
 1204 1413 l 1,5,-1
 1192 1360 l 1,6,-1
 275 0 l 1,0,-1
EndSplineSet
Substitution2: "'subs' Subscript lookup 20 subtable" uni2087
Substitution2: "'sinf' Scientific Inferiors lookup 19 subtable" uni2087
Substitution2: "'sups' Superscript lookup 17 subtable" uni2077
AlternateSubs2: "'aalt' Access All Alternates lookup 1 subtable" uni2077 uni2087
EndChar

StartChar: eight
Encoding: 56 56 27
Width: 1200
GlyphClass: 1
Flags: W
LayerCount: 2
Fore
SplineSet
429 -20 m 0,0,1
 359 -20 359 -20 291.5 -3.5 c 128,-1,2
 224 13 224 13 171 48.5 c 128,-1,3
 118 84 118 84 85.5 140.5 c 128,-1,4
 53 197 53 197 53 277 c 0,5,6
 53 303 53 303 56.5 329 c 128,-1,7
 60 355 60 355 66 381 c 0,8,9
 100 527 100 527 194.5 620 c 128,-1,10
 289 713 289 713 427 762 c 1,11,12
 289 839 289 839 289 996 c 0,13,14
 289 1092 289 1092 329.5 1172.5 c 128,-1,15
 370 1253 370 1253 436.5 1311 c 128,-1,16
 503 1369 503 1369 589.5 1401.5 c 128,-1,17
 676 1434 676 1434 767 1434 c 0,18,19
 829 1434 829 1434 884.5 1418.5 c 128,-1,20
 940 1403 940 1403 982.5 1370.5 c 128,-1,21
 1025 1338 1025 1338 1050 1289 c 128,-1,22
 1075 1240 1075 1240 1075 1172 c 0,23,24
 1075 1103 1075 1103 1054.5 1040.5 c 128,-1,25
 1034 978 1034 978 997 925.5 c 128,-1,26
 960 873 960 873 908.5 831.5 c 128,-1,27
 857 790 857 790 795 762 c 1,28,29
 833 746 833 746 862 727.5 c 128,-1,30
 891 709 891 709 913 685.5 c 128,-1,31
 935 662 935 662 951 631.5 c 128,-1,32
 967 601 967 601 977 561 c 0,33,34
 982 541 982 541 984.5 522 c 128,-1,35
 987 503 987 503 987 483 c 0,36,37
 987 432 987 432 975 381 c 0,38,39
 953 283 953 283 901 208 c 128,-1,40
 849 133 849 133 776.5 82.5 c 128,-1,41
 704 32 704 32 615 6 c 128,-1,42
 526 -20 526 -20 429 -20 c 0,0,1
622 789 m 0,43,44
 691 789 691 789 754 817 c 128,-1,45
 817 845 817 845 864 892 c 128,-1,46
 911 939 911 939 939 1002 c 128,-1,47
 967 1065 967 1065 967 1134 c 0,48,49
 967 1174 967 1174 954 1207 c 0,50,51
 940 1245 940 1245 920.5 1270.5 c 128,-1,52
 901 1296 901 1296 875.5 1311 c 128,-1,53
 850 1326 850 1326 818 1332.5 c 128,-1,54
 786 1339 786 1339 747 1339 c 0,55,56
 676 1339 676 1339 613 1312 c 128,-1,57
 550 1285 550 1285 503 1238.5 c 128,-1,58
 456 1192 456 1192 428.5 1129 c 128,-1,59
 401 1066 401 1066 401 995 c 0,60,61
 401 955 401 955 414 922 c 0,62,63
 428 883 428 883 447.5 857.5 c 128,-1,64
 467 832 467 832 492.5 816.5 c 128,-1,65
 518 801 518 801 550.5 795 c 128,-1,66
 583 789 583 789 622 789 c 0,43,44
449 68 m 0,67,68
 533 68 533 68 610 99.5 c 128,-1,69
 687 131 687 131 745.5 185.5 c 128,-1,70
 804 240 804 240 839 314.5 c 128,-1,71
 874 389 874 389 874 475 c 0,72,73
 874 534 874 534 851.5 579 c 128,-1,74
 829 624 829 624 791 654.5 c 128,-1,75
 753 685 753 685 703.5 700.5 c 128,-1,76
 654 716 654 716 599 716 c 0,77,78
 513 716 513 716 435 685 c 128,-1,79
 357 654 357 654 297.5 599 c 128,-1,80
 238 544 238 544 202.5 469 c 128,-1,81
 167 394 167 394 167 306 c 0,82,83
 167 246 167 246 190.5 201 c 128,-1,84
 214 156 214 156 253 126.5 c 128,-1,85
 292 97 292 97 343 82.5 c 128,-1,86
 394 68 394 68 449 68 c 0,67,68
EndSplineSet
Substitution2: "'subs' Subscript lookup 20 subtable" uni2088
Substitution2: "'sinf' Scientific Inferiors lookup 19 subtable" uni2088
Substitution2: "'sups' Superscript lookup 17 subtable" uni2078
AlternateSubs2: "'aalt' Access All Alternates lookup 1 subtable" uni2078 uni2088
EndChar

StartChar: nine
Encoding: 57 57 28
Width: 1200
GlyphClass: 1
Flags: W
LayerCount: 2
Fore
SplineSet
396 0 m 1,0,-1
 283 0 l 1,1,-1
 722 554 l 1,2,3
 637 533 637 533 549 533 c 0,4,5
 496 533 496 533 444 542 c 128,-1,6
 392 551 392 551 346.5 573 c 128,-1,7
 301 595 301 595 266 631.5 c 128,-1,8
 231 668 231 668 213 723 c 0,9,10
 202 756 202 756 195 790 c 128,-1,11
 188 824 188 824 188 859 c 0,12,13
 188 934 188 934 209.5 1005.5 c 128,-1,14
 231 1077 231 1077 269.5 1140.5 c 128,-1,15
 308 1204 308 1204 361.5 1258 c 128,-1,16
 415 1312 415 1312 478.5 1351 c 128,-1,17
 542 1390 542 1390 613 1412 c 128,-1,18
 684 1434 684 1434 759 1434 c 0,19,20
 836 1434 836 1434 900 1408 c 128,-1,21
 964 1382 964 1382 1010 1335 c 128,-1,22
 1056 1288 1056 1288 1082 1224 c 128,-1,23
 1108 1160 1108 1160 1108 1083 c 0,24,25
 1108 985 1108 985 1072 896 c 128,-1,26
 1036 807 1036 807 976 731 c 2,27,-1
 396 0 l 1,0,-1
571 632 m 0,28,29
 658 632 658 632 735.5 666 c 128,-1,30
 813 700 813 700 871 758 c 128,-1,31
 929 816 929 816 963 893.5 c 128,-1,32
 997 971 997 971 997 1058 c 0,33,34
 997 1117 997 1117 978.5 1167.5 c 128,-1,35
 960 1218 960 1218 925.5 1255.5 c 128,-1,36
 891 1293 891 1293 842.5 1314.5 c 128,-1,37
 794 1336 794 1336 734 1336 c 0,38,39
 678 1336 678 1336 624 1318 c 128,-1,40
 570 1300 570 1300 521.5 1269 c 128,-1,41
 473 1238 473 1238 432.5 1195 c 128,-1,42
 392 1152 392 1152 362 1102.5 c 128,-1,43
 332 1053 332 1053 315.5 998 c 128,-1,44
 299 943 299 943 299 888 c 0,45,46
 299 824 299 824 318.5 776 c 128,-1,47
 338 728 338 728 373.5 696 c 128,-1,48
 409 664 409 664 459.5 648 c 128,-1,49
 510 632 510 632 571 632 c 0,28,29
EndSplineSet
Substitution2: "'subs' Subscript lookup 20 subtable" uni2089
Substitution2: "'sinf' Scientific Inferiors lookup 19 subtable" uni2089
Substitution2: "'sups' Superscript lookup 17 subtable" uni2079
AlternateSubs2: "'aalt' Access All Alternates lookup 1 subtable" uni2079 uni2089
EndChar

StartChar: colon
Encoding: 58 58 29
Width: 600
GlyphClass: 1
Flags: W
LayerCount: 2
Fore
SplineSet
457 792 m 1,0,-1
 295 792 l 1,1,-1
 332 952 l 1,2,-1
 494 952 l 1,3,-1
 457 792 l 1,0,-1
275 0 m 1,4,-1
 114 0 l 1,5,-1
 151 160 l 1,6,-1
 312 160 l 1,7,-1
 275 0 l 1,4,-1
EndSplineSet
EndChar

StartChar: semicolon
Encoding: 59 59 30
Width: 600
GlyphClass: 1
Flags: W
LayerCount: 2
Fore
SplineSet
456 792 m 1,0,-1
 294 792 l 1,1,-1
 332 952 l 1,2,-1
 493 952 l 1,3,-1
 456 792 l 1,0,-1
37 -226 m 1,4,-1
 -24 -226 l 1,5,-1
 189 259 l 1,6,-1
 342 259 l 1,7,-1
 37 -226 l 1,4,-1
EndSplineSet
EndChar

StartChar: less
Encoding: 60 60 31
Width: 1223
GlyphClass: 1
Flags: W
LayerCount: 2
Fore
SplineSet
1001 179 m 1,0,-1
 142 674 l 1,1,-1
 1001 1169 l 1,2,-1
 1053 1081 l 1,3,-1
 321 674 l 1,4,-1
 1053 266 l 1,5,-1
 1001 179 l 1,0,-1
EndSplineSet
EndChar

StartChar: equal
Encoding: 61 61 32
Width: 1275
GlyphClass: 1
Flags: W
LayerCount: 2
Fore
SplineSet
1002 786 m 1,0,-1
 274 786 l 1,1,-1
 274 890 l 1,2,-1
 1002 890 l 1,3,-1
 1002 786 l 1,0,-1
1002 453 m 1,4,-1
 274 453 l 1,5,-1
 274 555 l 1,6,-1
 1002 555 l 1,7,-1
 1002 453 l 1,4,-1
EndSplineSet
EndChar

StartChar: greater
Encoding: 62 62 33
Width: 1220
GlyphClass: 1
Flags: W
LayerCount: 2
Fore
SplineSet
220 179 m 1,0,-1
 170 266 l 1,1,-1
 901 674 l 1,2,-1
 170 1081 l 1,3,-1
 220 1169 l 1,4,-1
 1081 674 l 1,5,-1
 220 179 l 1,0,-1
EndSplineSet
EndChar

StartChar: question
Encoding: 63 63 34
Width: 1048
GlyphClass: 1
Flags: W
LayerCount: 2
Fore
SplineSet
537 360 m 1,0,-1
 435 360 l 1,1,2
 443 393 443 393 450.5 425.5 c 128,-1,3
 458 458 458 458 465 491 c 0,4,5
 472 522 472 522 478 553.5 c 128,-1,6
 484 585 484 585 492.5 616 c 128,-1,7
 501 647 501 647 513.5 676 c 128,-1,8
 526 705 526 705 545 731 c 0,9,10
 559 750 559 750 575.5 765 c 128,-1,11
 592 780 592 780 612 793 c 0,12,13
 651 818 651 818 686.5 835.5 c 128,-1,14
 722 853 722 853 753 869 c 128,-1,15
 784 885 784 885 811.5 902.5 c 128,-1,16
 839 920 839 920 862.5 945 c 128,-1,17
 886 970 886 970 905 1005.5 c 128,-1,18
 924 1041 924 1041 939 1093 c 0,19,20
 944 1110 944 1110 947.5 1126.5 c 128,-1,21
 951 1143 951 1143 951 1160 c 0,22,23
 951 1210 951 1210 931.5 1243.5 c 128,-1,24
 912 1277 912 1277 879.5 1297.5 c 128,-1,25
 847 1318 847 1318 806 1327 c 128,-1,26
 765 1336 765 1336 722 1336 c 0,27,28
 667 1336 667 1336 610 1318.5 c 128,-1,29
 553 1301 553 1301 504 1269 c 128,-1,30
 455 1237 455 1237 419.5 1191.5 c 128,-1,31
 384 1146 384 1146 371 1089 c 1,32,-1
 261 1099 l 1,33,34
 279 1174 279 1174 324 1236 c 128,-1,35
 369 1298 369 1298 431 1342 c 128,-1,36
 493 1386 493 1386 567 1410 c 128,-1,37
 641 1434 641 1434 716 1434 c 0,38,39
 779 1434 779 1434 839.5 1419 c 128,-1,40
 900 1404 900 1404 948 1371.5 c 128,-1,41
 996 1339 996 1339 1025 1288.5 c 128,-1,42
 1054 1238 1054 1238 1054 1166 c 0,43,44
 1054 1119 1054 1119 1044 1074 c 128,-1,45
 1034 1029 1034 1029 1014 987 c 0,46,47
 989 935 989 935 956 901 c 128,-1,48
 923 867 923 867 887 844 c 128,-1,49
 851 821 851 821 813.5 804.5 c 128,-1,50
 776 788 776 788 741 771.5 c 128,-1,51
 706 755 706 755 676 735 c 128,-1,52
 646 715 646 715 624 684 c 0,53,54
 612 667 612 667 604.5 647 c 128,-1,55
 597 627 597 627 592 607 c 0,56,57
 578 545 578 545 564 484 c 128,-1,58
 550 423 550 423 537 360 c 1,0,-1
486 0 m 1,59,-1
 325 0 l 1,60,-1
 362 160 l 1,61,-1
 524 160 l 1,62,-1
 486 0 l 1,59,-1
EndSplineSet
EndChar

StartChar: at
Encoding: 64 64 35
Width: 2089
GlyphClass: 1
Flags: W
LayerCount: 2
Fore
SplineSet
850 -349 m 0,0,1
 702 -349 702 -349 573.5 -307.5 c 128,-1,2
 445 -266 445 -266 349.5 -185 c 128,-1,3
 254 -104 254 -104 199.5 15.5 c 128,-1,4
 145 135 145 135 145 292 c 0,5,6
 145 397 145 397 166.5 499.5 c 128,-1,7
 188 602 188 602 227 699 c 0,8,9
 291 858 291 858 395 992.5 c 128,-1,10
 499 1127 499 1127 633.5 1224.5 c 128,-1,11
 768 1322 768 1322 927.5 1377 c 128,-1,12
 1087 1432 1087 1432 1262 1432 c 0,13,14
 1412 1432 1412 1432 1540 1388.5 c 128,-1,15
 1668 1345 1668 1345 1761.5 1262 c 128,-1,16
 1855 1179 1855 1179 1908 1057 c 128,-1,17
 1961 935 1961 935 1961 779 c 0,18,19
 1961 697 1961 697 1944 604 c 128,-1,20
 1927 511 1927 511 1893.5 419.5 c 128,-1,21
 1860 328 1860 328 1810 244.5 c 128,-1,22
 1760 161 1760 161 1694 97 c 128,-1,23
 1628 33 1628 33 1546.5 -5 c 128,-1,24
 1465 -43 1465 -43 1368 -43 c 0,25,26
 1327 -43 1327 -43 1286 -34.5 c 128,-1,27
 1245 -26 1245 -26 1212.5 -6 c 128,-1,28
 1180 14 1180 14 1159.5 46.5 c 128,-1,29
 1139 79 1139 79 1139 128 c 0,30,31
 1139 163 1139 163 1149.5 196.5 c 128,-1,32
 1160 230 1160 230 1174 262 c 1,33,34
 1140 222 1140 222 1098.5 187.5 c 128,-1,35
 1057 153 1057 153 1009.5 128.5 c 128,-1,36
 962 104 962 104 910.5 90 c 128,-1,37
 859 76 859 76 805 76 c 0,38,39
 684 76 684 76 624.5 145 c 128,-1,40
 565 214 565 214 565 331 c 0,41,42
 565 403 565 403 587 482 c 128,-1,43
 609 561 609 561 649 638.5 c 128,-1,44
 689 716 689 716 744 786 c 128,-1,45
 799 856 799 856 864.5 909.5 c 128,-1,46
 930 963 930 963 1004 994.5 c 128,-1,47
 1078 1026 1078 1026 1155 1026 c 0,48,49
 1209 1026 1209 1026 1253.5 1011 c 128,-1,50
 1298 996 1298 996 1328 967 c 128,-1,51
 1358 938 1358 938 1373 895 c 0,52,53
 1383 863 1383 863 1383 824 c 2,54,-1
 1382 795 l 1,55,-1
 1460 977 l 1,56,-1
 1584 973 l 1,57,58
 1565 929 1565 929 1534 863.5 c 128,-1,59
 1503 798 1503 798 1467 722.5 c 128,-1,60
 1431 647 1431 647 1394 567 c 128,-1,61
 1357 487 1357 487 1327.5 412.5 c 128,-1,62
 1298 338 1298 338 1279 274.5 c 128,-1,63
 1260 211 1260 211 1260 169 c 0,64,65
 1260 141 1260 141 1267.5 124 c 128,-1,66
 1275 107 1275 107 1288.5 98 c 128,-1,67
 1302 89 1302 89 1322 86.5 c 128,-1,68
 1342 84 1342 84 1367 84 c 0,69,70
 1447 84 1447 84 1513.5 116 c 128,-1,71
 1580 148 1580 148 1633 202 c 128,-1,72
 1686 256 1686 256 1725.5 326 c 128,-1,73
 1765 396 1765 396 1791 472 c 128,-1,74
 1817 548 1817 548 1830 625 c 128,-1,75
 1843 702 1843 702 1843 769 c 0,76,77
 1843 902 1843 902 1799 1004.5 c 128,-1,78
 1755 1107 1755 1107 1676.5 1176.5 c 128,-1,79
 1598 1246 1598 1246 1490.5 1282 c 128,-1,80
 1383 1318 1383 1318 1255 1318 c 0,81,82
 1077 1318 1077 1318 918 1255 c 128,-1,83
 759 1192 759 1192 631.5 1082 c 128,-1,84
 504 972 504 972 415 824 c 128,-1,85
 326 676 326 676 288 506 c 0,86,87
 277 457 277 457 270.5 407.5 c 128,-1,88
 264 358 264 358 264 307 c 0,89,90
 264 174 264 174 310 74 c 128,-1,91
 356 -26 356 -26 436 -92.5 c 128,-1,92
 516 -159 516 -159 624.5 -192 c 128,-1,93
 733 -225 733 -225 858 -225 c 0,94,95
 925 -225 925 -225 991.5 -215 c 128,-1,96
 1058 -205 1058 -205 1122 -185 c 1,97,-1
 1154 -301 l 1,98,99
 1079 -324 1079 -324 1003.5 -336.5 c 128,-1,100
 928 -349 928 -349 850 -349 c 0,0,1
832 200 m 0,101,102
 909 200 909 200 977.5 233 c 128,-1,103
 1046 266 1046 266 1103 319 c 128,-1,104
 1160 372 1160 372 1204 438 c 128,-1,105
 1248 504 1248 504 1276 569 c 0,106,107
 1285 589 1285 589 1294 613 c 128,-1,108
 1303 637 1303 637 1309.5 662 c 128,-1,109
 1316 687 1316 687 1320.5 712.5 c 128,-1,110
 1325 738 1325 738 1325 760 c 0,111,112
 1325 835 1325 835 1283 869 c 128,-1,113
 1241 903 1241 903 1169 903 c 0,114,115
 1107 903 1107 903 1046 878 c 128,-1,116
 985 853 985 853 930 810.5 c 128,-1,117
 875 768 875 768 828 712 c 128,-1,118
 781 656 781 656 747 594 c 128,-1,119
 713 532 713 532 693.5 468 c 128,-1,120
 674 404 674 404 674 345 c 0,121,122
 674 267 674 267 715.5 233.5 c 128,-1,123
 757 200 757 200 832 200 c 0,101,102
EndSplineSet
EndChar

StartChar: A
Encoding: 65 65 36
Width: 1295
GlyphClass: 1
Flags: W
LayerCount: 2
Fore
SplineSet
1091 0 m 1,0,-1
 971 0 l 1,1,-1
 935 308 l 1,2,-1
 277 308 l 1,3,-1
 99 0 l 1,4,-1
 -28 0 l 1,5,-1
 815 1413 l 1,6,-1
 904 1413 l 1,7,-1
 1091 0 l 1,0,-1
921 419 m 1,8,-1
 826 1248 l 1,9,-1
 339 419 l 1,10,-1
 921 419 l 1,8,-1
EndSplineSet
Substitution2: "Single Substitution lookup 3 subtable" ordfeminine
Substitution2: "Single Substitution lookup 2 subtable" ordfeminine
Position2: "'cpsp' Capital Spacing lookup 0 per glyph data 0" dx=5 dy=0 dh=10 dv=0
EndChar

StartChar: B
Encoding: 66 66 37
Width: 1245
GlyphClass: 1
Flags: W
LayerCount: 2
Fore
SplineSet
549 0 m 2,0,-1
 119 0 l 1,1,2
 200 355 200 355 281.5 706.5 c 128,-1,3
 363 1058 363 1058 444 1413 c 1,4,-1
 789 1413 l 2,5,6
 831 1413 831 1413 875.5 1408 c 128,-1,7
 920 1403 920 1403 963 1390.5 c 128,-1,8
 1006 1378 1006 1378 1044.5 1358.5 c 128,-1,9
 1083 1339 1083 1339 1112 1309.5 c 128,-1,10
 1141 1280 1141 1280 1158 1240.5 c 128,-1,11
 1175 1201 1175 1201 1175 1150 c 0,12,13
 1175 1077 1175 1077 1154.5 1015.5 c 128,-1,14
 1134 954 1134 954 1096.5 903 c 128,-1,15
 1059 852 1059 852 1007 811 c 128,-1,16
 955 770 955 770 893 738 c 1,17,18
 982 697 982 697 1033 631.5 c 128,-1,19
 1084 566 1084 566 1084 465 c 0,20,21
 1084 343 1084 343 1042.5 255 c 128,-1,22
 1001 167 1001 167 929 110.5 c 128,-1,23
 857 54 857 54 759.5 27 c 128,-1,24
 662 0 662 0 549 0 c 2,0,-1
630 767 m 2,25,26
 703 767 703 767 769 786 c 128,-1,27
 835 805 835 805 888 842.5 c 128,-1,28
 941 880 941 880 978.5 935.5 c 128,-1,29
 1016 991 1016 991 1033 1065 c 0,30,31
 1038 1085 1038 1085 1040.5 1104 c 128,-1,32
 1043 1123 1043 1123 1043 1143 c 0,33,34
 1043 1200 1043 1200 1018 1233.5 c 128,-1,35
 993 1267 993 1267 954 1284 c 128,-1,36
 915 1301 915 1301 867.5 1306 c 128,-1,37
 820 1311 820 1311 776 1311 c 2,38,-1
 530 1311 l 1,39,-1
 405 767 l 1,40,-1
 630 767 l 2,25,26
569 103 m 2,41,42
 641 103 641 103 705 117 c 128,-1,43
 769 131 769 131 820.5 162.5 c 128,-1,44
 872 194 872 194 909 246 c 128,-1,45
 946 298 946 298 962 373 c 0,46,47
 967 397 967 397 970.5 421.5 c 128,-1,48
 974 446 974 446 974 471 c 0,49,50
 974 530 974 530 952 567.5 c 128,-1,51
 930 605 930 605 894 626 c 128,-1,52
 858 647 858 647 811.5 654.5 c 128,-1,53
 765 662 765 662 715 662 c 2,54,-1
 382 662 l 1,55,-1
 252 103 l 1,56,-1
 569 103 l 2,41,42
EndSplineSet
Position2: "'cpsp' Capital Spacing lookup 0 per glyph data 0" dx=5 dy=0 dh=10 dv=0
EndChar

StartChar: C
Encoding: 67 67 38
Width: 1421
GlyphClass: 1
Flags: W
LayerCount: 2
Fore
SplineSet
606 -20 m 0,0,1
 488 -20 488 -20 397 14 c 128,-1,2
 306 48 306 48 244.5 112.5 c 128,-1,3
 183 177 183 177 151.5 269.5 c 128,-1,4
 120 362 120 362 120 479 c 0,5,6
 120 537 120 537 127 593.5 c 128,-1,7
 134 650 134 650 146 707 c 0,8,9
 166 803 166 803 201.5 894.5 c 128,-1,10
 237 986 237 986 287 1067 c 128,-1,11
 337 1148 337 1148 401.5 1216 c 128,-1,12
 466 1284 466 1284 544.5 1332.5 c 128,-1,13
 623 1381 623 1381 715.5 1408.5 c 128,-1,14
 808 1436 808 1436 914 1436 c 0,15,16
 1004 1436 1004 1436 1082.5 1413.5 c 128,-1,17
 1161 1391 1161 1391 1222.5 1346 c 128,-1,18
 1284 1301 1284 1301 1327.5 1233.5 c 128,-1,19
 1371 1166 1371 1166 1391 1075 c 1,20,-1
 1288 1027 l 1,21,22
 1276 1107 1276 1107 1240 1163.5 c 128,-1,23
 1204 1220 1204 1220 1151 1255.5 c 128,-1,24
 1098 1291 1098 1291 1030.5 1307.5 c 128,-1,25
 963 1324 963 1324 888 1324 c 0,26,27
 776 1324 776 1324 684.5 1287 c 128,-1,28
 593 1250 593 1250 521.5 1187 c 128,-1,29
 450 1124 450 1124 397 1039.5 c 128,-1,30
 344 955 344 955 309.5 859.5 c 128,-1,31
 275 764 275 764 258.5 663 c 128,-1,32
 242 562 242 562 242 466 c 0,33,34
 242 374 242 374 269.5 305.5 c 128,-1,35
 297 237 297 237 347.5 191.5 c 128,-1,36
 398 146 398 146 470 123.5 c 128,-1,37
 542 101 542 101 630 101 c 0,38,39
 797 101 797 101 927.5 174.5 c 128,-1,40
 1058 248 1058 248 1144 391 c 1,41,-1
 1237 342 l 1,42,43
 1183 261 1183 261 1115 194 c 128,-1,44
 1047 127 1047 127 967 79.5 c 128,-1,45
 887 32 887 32 796.5 6 c 128,-1,46
 706 -20 706 -20 606 -20 c 0,0,1
EndSplineSet
Position2: "'cpsp' Capital Spacing lookup 0 per glyph data 0" dx=5 dy=0 dh=10 dv=0
EndChar

StartChar: D
Encoding: 68 68 39
Width: 1419
GlyphClass: 1
Flags: W
LayerCount: 2
Fore
SplineSet
459 0 m 2,0,-1
 119 0 l 1,1,2
 200 355 200 355 281.5 706.5 c 128,-1,3
 363 1058 363 1058 444 1413 c 1,4,-1
 777 1413 l 2,5,6
 900 1413 900 1413 1004 1385.5 c 128,-1,7
 1108 1358 1108 1358 1184.5 1298.5 c 128,-1,8
 1261 1239 1261 1239 1304 1145 c 128,-1,9
 1347 1051 1347 1051 1347 918 c 0,10,11
 1347 834 1347 834 1332 753 c 128,-1,12
 1317 672 1317 672 1291 593 c 0,13,14
 1192 296 1192 296 981 148 c 128,-1,15
 770 0 770 0 459 0 c 2,0,-1
450 104 m 2,16,17
 594 104 594 104 719 147.5 c 128,-1,18
 844 191 844 191 943 271.5 c 128,-1,19
 1042 352 1042 352 1111 465.5 c 128,-1,20
 1180 579 1180 579 1211 718 c 0,21,22
 1222 765 1222 765 1228 811.5 c 128,-1,23
 1234 858 1234 858 1234 906 c 0,24,25
 1234 1017 1234 1017 1198 1095 c 128,-1,26
 1162 1173 1162 1173 1099 1221.5 c 128,-1,27
 1036 1270 1036 1270 949 1292 c 128,-1,28
 862 1314 862 1314 760 1314 c 2,29,-1
 538 1314 l 1,30,-1
 257 104 l 1,31,-1
 450 104 l 2,16,17
EndSplineSet
Position2: "'cpsp' Capital Spacing lookup 0 per glyph data 0" dx=5 dy=0 dh=10 dv=0
EndChar

StartChar: E
Encoding: 69 69 40
Width: 1252
GlyphClass: 1
Flags: W
LayerCount: 2
Fore
SplineSet
1022 0 m 1,0,-1
 119 0 l 1,1,-1
 444 1413 l 1,2,-1
 1347 1413 l 1,3,-1
 1326 1321 l 1,4,-1
 538 1321 l 1,5,-1
 408 751 l 1,6,-1
 1074 751 l 1,7,-1
 1053 664 l 1,8,-1
 385 664 l 1,9,-1
 255 101 l 1,10,-1
 1044 101 l 1,11,-1
 1022 0 l 1,0,-1
EndSplineSet
Position2: "'cpsp' Capital Spacing lookup 0 per glyph data 0" dx=5 dy=0 dh=10 dv=0
EndChar

StartChar: F
Encoding: 70 70 41
Width: 1196
GlyphClass: 1
Flags: W
LayerCount: 2
Fore
SplineSet
234 0 m 1,0,-1
 119 0 l 1,1,-1
 444 1413 l 1,2,-1
 1310 1413 l 1,3,-1
 1288 1321 l 1,4,-1
 538 1321 l 1,5,-1
 408 751 l 1,6,-1
 1070 751 l 1,7,-1
 1048 664 l 1,8,-1
 385 664 l 1,9,-1
 234 0 l 1,0,-1
EndSplineSet
Position2: "'cpsp' Capital Spacing lookup 0 per glyph data 0" dx=5 dy=0 dh=10 dv=0
EndChar

StartChar: G
Encoding: 71 71 42
Width: 1506
GlyphClass: 1
Flags: W
LayerCount: 2
Fore
SplineSet
651 -20 m 0,0,1
 533 -20 533 -20 442.5 14 c 128,-1,2
 352 48 352 48 290.5 111.5 c 128,-1,3
 229 175 229 175 197.5 267 c 128,-1,4
 166 359 166 359 166 475 c 0,5,6
 166 554 166 554 179 631.5 c 128,-1,7
 192 709 192 709 215 784 c 0,8,9
 254 916 254 916 321 1034.5 c 128,-1,10
 388 1153 388 1153 481.5 1242.5 c 128,-1,11
 575 1332 575 1332 696 1384 c 128,-1,12
 817 1436 817 1436 965 1436 c 0,13,14
 1057 1436 1057 1436 1135.5 1413 c 128,-1,15
 1214 1390 1214 1390 1276 1344.5 c 128,-1,16
 1338 1299 1338 1299 1381 1230.5 c 128,-1,17
 1424 1162 1424 1162 1445 1070 c 1,18,-1
 1332 1032 l 1,19,20
 1297 1177 1297 1177 1200 1249.5 c 128,-1,21
 1103 1322 1103 1322 956 1322 c 0,22,23
 821 1322 821 1322 713 1271.5 c 128,-1,24
 605 1221 605 1221 524 1136 c 128,-1,25
 443 1051 443 1051 389 940 c 128,-1,26
 335 829 335 829 306 707 c 0,27,28
 293 653 293 653 286 599 c 128,-1,29
 279 545 279 545 279 489 c 0,30,31
 279 397 279 397 302 323.5 c 128,-1,32
 325 250 325 250 371.5 198 c 128,-1,33
 418 146 418 146 488.5 118.5 c 128,-1,34
 559 91 559 91 654 91 c 0,35,36
 769 91 769 91 869 131.5 c 128,-1,37
 969 172 969 172 1047.5 242.5 c 128,-1,38
 1126 313 1126 313 1180.5 407.5 c 128,-1,39
 1235 502 1235 502 1259 611 c 1,40,41
 1177 609 1177 609 1095 608.5 c 128,-1,42
 1013 608 1013 608 931 606 c 1,43,-1
 952 691 l 1,44,-1
 1382 691 l 1,45,-1
 1222 0 l 1,46,-1
 1123 0 l 1,47,-1
 1202 296 l 1,48,49
 1160 222 1160 222 1100.5 163.5 c 128,-1,50
 1041 105 1041 105 969 64 c 128,-1,51
 897 23 897 23 816 1.5 c 128,-1,52
 735 -20 735 -20 651 -20 c 0,0,1
EndSplineSet
Position2: "'cpsp' Capital Spacing lookup 0 per glyph data 0" dx=5 dy=0 dh=10 dv=0
EndChar

StartChar: H
Encoding: 72 72 43
Width: 1456
GlyphClass: 1
Flags: W
LayerCount: 2
Fore
SplineSet
1109 0 m 1,0,-1
 995 0 l 1,1,-1
 1146 664 l 1,2,-1
 385 664 l 1,3,-1
 233 0 l 1,4,-1
 119 0 l 1,5,-1
 444 1413 l 1,6,-1
 558 1413 l 1,7,-1
 408 751 l 1,8,-1
 1169 751 l 1,9,-1
 1321 1413 l 1,10,-1
 1435 1413 l 1,11,-1
 1109 0 l 1,0,-1
EndSplineSet
Position2: "'cpsp' Capital Spacing lookup 0 per glyph data 0" dx=5 dy=0 dh=10 dv=0
EndChar

StartChar: I
Encoding: 73 73 44
Width: 580
GlyphClass: 1
Flags: W
LayerCount: 2
Fore
SplineSet
233 0 m 1,0,-1
 119 0 l 1,1,-1
 444 1413 l 1,2,-1
 558 1413 l 1,3,-1
 233 0 l 1,0,-1
EndSplineSet
Position2: "'cpsp' Capital Spacing lookup 0 per glyph data 0" dx=5 dy=0 dh=10 dv=0
EndChar

StartChar: J
Encoding: 74 74 45
Width: 1127
GlyphClass: 1
Flags: W
LayerCount: 2
Fore
SplineSet
417 -20 m 0,0,1
 336 -20 336 -20 271 -1.5 c 128,-1,2
 206 17 206 17 160 56 c 128,-1,3
 114 95 114 95 89.5 156 c 128,-1,4
 65 217 65 217 65 302 c 0,5,6
 65 342 65 342 71 379 c 1,7,-1
 183 384 l 1,8,9
 178 364 178 364 177 344 c 128,-1,10
 176 324 176 324 176 304 c 0,11,12
 176 199 176 199 231.5 137.5 c 128,-1,13
 287 76 287 76 394 76 c 0,14,15
 489 76 489 76 556 108 c 128,-1,16
 623 140 623 140 670 195 c 128,-1,17
 717 250 717 250 747 323.5 c 128,-1,18
 777 397 777 397 796 479 c 2,19,-1
 1013 1413 l 1,20,-1
 1128 1413 l 1,21,22
 1087 1238 1087 1238 1049 1064 c 128,-1,23
 1011 890 1011 890 970 715 c 0,24,25
 945 608 945 608 919 502 c 128,-1,26
 893 396 893 396 850 295 c 0,27,28
 821 226 821 226 779 168 c 128,-1,29
 737 110 737 110 683 68.5 c 128,-1,30
 629 27 629 27 562.5 3.5 c 128,-1,31
 496 -20 496 -20 417 -20 c 0,0,1
EndSplineSet
Position2: "'cpsp' Capital Spacing lookup 0 per glyph data 0" dx=5 dy=0 dh=10 dv=0
EndChar

StartChar: K
Encoding: 75 75 46
Width: 1443
GlyphClass: 1
Flags: W
LayerCount: 2
Fore
SplineSet
1183 0 m 1,0,-1
 1048 0 l 1,1,-1
 724 776 l 1,2,-1
 272 398 l 1,3,-1
 180 0 l 1,4,-1
 65 0 l 1,5,-1
 391 1413 l 1,6,-1
 506 1413 l 1,7,-1
 307 549 l 1,8,-1
 1323 1413 l 1,9,-1
 1474 1413 l 1,10,-1
 828 866 l 1,11,-1
 1183 0 l 1,0,-1
EndSplineSet
Position2: "'cpsp' Capital Spacing lookup 0 per glyph data 0" dx=5 dy=0 dh=10 dv=0
EndChar

StartChar: L
Encoding: 76 76 47
Width: 1040
GlyphClass: 1
Flags: W
LayerCount: 2
Fore
SplineSet
840 0 m 1,0,-1
 119 0 l 1,1,-1
 444 1413 l 1,2,-1
 558 1413 l 1,3,-1
 255 101 l 1,4,-1
 861 101 l 1,5,-1
 840 0 l 1,0,-1
EndSplineSet
Position2: "'cpsp' Capital Spacing lookup 0 per glyph data 0" dx=5 dy=0 dh=10 dv=0
EndChar

StartChar: M
Encoding: 77 77 48
Width: 1755
GlyphClass: 1
Flags: W
LayerCount: 2
Fore
SplineSet
1364 0 m 1,0,-1
 1248 0 l 1,1,-1
 1556 1335 l 1,2,-1
 812 124 l 1,3,-1
 673 124 l 1,4,-1
 491 1335 l 1,5,-1
 182 0 l 1,6,-1
 65 0 l 1,7,-1
 391 1413 l 1,8,-1
 592 1413 l 1,9,-1
 759 215 l 1,10,-1
 1490 1413 l 1,11,-1
 1691 1413 l 1,12,-1
 1364 0 l 1,0,-1
EndSplineSet
Position2: "'cpsp' Capital Spacing lookup 0 per glyph data 0" dx=5 dy=0 dh=10 dv=0
EndChar

StartChar: N
Encoding: 78 78 49
Width: 1409
GlyphClass: 1
Flags: W
LayerCount: 2
Fore
SplineSet
1019 0 m 1,0,-1
 819 0 l 1,1,-1
 487 1318 l 1,2,-1
 182 0 l 1,3,-1
 65 0 l 1,4,-1
 391 1413 l 1,5,-1
 586 1413 l 1,6,-1
 925 97 l 1,7,-1
 1229 1413 l 1,8,-1
 1345 1413 l 1,9,-1
 1019 0 l 1,0,-1
EndSplineSet
Position2: "'cpsp' Capital Spacing lookup 0 per glyph data 0" dx=5 dy=0 dh=10 dv=0
EndChar

StartChar: O
Encoding: 79 79 50
Width: 1421
GlyphClass: 1
Flags: W
LayerCount: 2
Fore
SplineSet
605 -20 m 0,0,1
 486 -20 486 -20 395.5 14 c 128,-1,2
 305 48 305 48 243.5 112.5 c 128,-1,3
 182 177 182 177 151 269.5 c 128,-1,4
 120 362 120 362 120 479 c 0,5,6
 120 537 120 537 127 593.5 c 128,-1,7
 134 650 134 650 146 707 c 0,8,9
 178 854 178 854 241.5 986 c 128,-1,10
 305 1118 305 1118 401.5 1218 c 128,-1,11
 498 1318 498 1318 626.5 1377 c 128,-1,12
 755 1436 755 1436 917 1436 c 0,13,14
 1036 1436 1036 1436 1126 1400.5 c 128,-1,15
 1216 1365 1216 1365 1277.5 1299.5 c 128,-1,16
 1339 1234 1339 1234 1370 1141 c 128,-1,17
 1401 1048 1401 1048 1401 932 c 0,18,19
 1401 875 1401 875 1394 819 c 128,-1,20
 1387 763 1387 763 1375 707 c 0,21,22
 1344 560 1344 560 1280.5 428.5 c 128,-1,23
 1217 297 1217 297 1120.5 197 c 128,-1,24
 1024 97 1024 97 895 38.5 c 128,-1,25
 766 -20 766 -20 605 -20 c 0,0,1
629 91 m 0,26,27
 740 91 740 91 831.5 127 c 128,-1,28
 923 163 923 163 995.5 226 c 128,-1,29
 1068 289 1068 289 1121.5 374.5 c 128,-1,30
 1175 460 1175 460 1210 559 c 0,31,32
 1240 645 1240 645 1258.5 734.5 c 128,-1,33
 1277 824 1277 824 1277 915 c 0,34,35
 1277 1012 1277 1012 1253.5 1088 c 128,-1,36
 1230 1164 1230 1164 1182 1216.5 c 128,-1,37
 1134 1269 1134 1269 1061 1296.5 c 128,-1,38
 988 1324 988 1324 888 1324 c 0,39,40
 831 1324 831 1324 775 1314.5 c 128,-1,41
 719 1305 719 1305 666 1283 c 0,42,43
 595 1254 595 1254 536.5 1204 c 128,-1,44
 478 1154 478 1154 431.5 1091 c 128,-1,45
 385 1028 385 1028 350.5 954 c 128,-1,46
 316 880 316 880 293 803 c 128,-1,47
 270 726 270 726 258.5 648 c 128,-1,48
 247 570 247 570 247 499 c 0,49,50
 247 406 247 406 270.5 330.5 c 128,-1,51
 294 255 294 255 341 201.5 c 128,-1,52
 388 148 388 148 460 119.5 c 128,-1,53
 532 91 532 91 629 91 c 0,26,27
EndSplineSet
Substitution2: "Single Substitution lookup 3 subtable" ordmasculine
Substitution2: "Single Substitution lookup 2 subtable" ordmasculine
Position2: "'cpsp' Capital Spacing lookup 0 per glyph data 0" dx=5 dy=0 dh=10 dv=0
EndChar

StartChar: P
Encoding: 80 80 51
Width: 1157
GlyphClass: 1
Flags: W
LayerCount: 2
Fore
SplineSet
234 0 m 1,0,-1
 119 0 l 1,1,2
 200 355 200 355 281.5 706.5 c 128,-1,3
 363 1058 363 1058 444 1413 c 1,4,-1
 815 1413 l 2,5,6
 884 1413 884 1413 948.5 1398 c 128,-1,7
 1013 1383 1013 1383 1063.5 1349 c 128,-1,8
 1114 1315 1114 1315 1144.5 1260.5 c 128,-1,9
 1175 1206 1175 1206 1175 1128 c 0,10,11
 1175 1009 1175 1009 1119 905 c 0,12,13
 1083 838 1083 838 1033 791.5 c 128,-1,14
 983 745 983 745 923 716 c 128,-1,15
 863 687 863 687 794.5 674.5 c 128,-1,16
 726 662 726 662 653 662 c 2,17,-1
 385 662 l 1,18,-1
 234 0 l 1,0,-1
667 758 m 2,19,20
 748 758 748 758 820 782.5 c 128,-1,21
 892 807 892 807 945.5 853 c 128,-1,22
 999 899 999 899 1030.5 966.5 c 128,-1,23
 1062 1034 1062 1034 1062 1119 c 0,24,25
 1062 1176 1062 1176 1040.5 1214.5 c 128,-1,26
 1019 1253 1019 1253 983 1275.5 c 128,-1,27
 947 1298 947 1298 901 1307.5 c 128,-1,28
 855 1317 855 1317 805 1317 c 2,29,-1
 538 1317 l 1,30,-1
 408 758 l 1,31,-1
 667 758 l 2,19,20
EndSplineSet
Position2: "'cpsp' Capital Spacing lookup 0 per glyph data 0" dx=5 dy=0 dh=10 dv=0
EndChar

StartChar: Q
Encoding: 81 81 52
Width: 1554
GlyphClass: 1
Flags: W
LayerCount: 2
Fore
SplineSet
1212 -88 m 1,0,-1
 1049 132 l 1,1,2
 951 53 951 53 840.5 16.5 c 128,-1,3
 730 -20 730 -20 605 -20 c 0,4,5
 486 -20 486 -20 395.5 14 c 128,-1,6
 305 48 305 48 243.5 112.5 c 128,-1,7
 182 177 182 177 151 269.5 c 128,-1,8
 120 362 120 362 120 479 c 0,9,10
 120 537 120 537 127 593.5 c 128,-1,11
 134 650 134 650 146 707 c 0,12,13
 177 854 177 854 240.5 986 c 128,-1,14
 304 1118 304 1118 401 1218 c 128,-1,15
 498 1318 498 1318 627 1377 c 128,-1,16
 756 1436 756 1436 917 1436 c 0,17,18
 1036 1436 1036 1436 1126.5 1401 c 128,-1,19
 1217 1366 1217 1366 1278 1300.5 c 128,-1,20
 1339 1235 1339 1235 1370 1141.5 c 128,-1,21
 1401 1048 1401 1048 1401 932 c 0,22,23
 1401 839 1401 839 1383.5 741.5 c 128,-1,24
 1366 644 1366 644 1332 550 c 128,-1,25
 1298 456 1298 456 1249 370.5 c 128,-1,26
 1200 285 1200 285 1137 216 c 1,27,-1
 1303 -7 l 1,28,-1
 1212 -88 l 1,0,-1
629 91 m 0,29,30
 728 91 728 91 819 122.5 c 128,-1,31
 910 154 910 154 986 217 c 1,32,-1
 852 397 l 1,33,-1
 939 482 l 1,34,-1
 1071 305 l 1,35,36
 1118 364 1118 364 1156 438.5 c 128,-1,37
 1194 513 1194 513 1221 594 c 128,-1,38
 1248 675 1248 675 1262.5 757.5 c 128,-1,39
 1277 840 1277 840 1277 915 c 0,40,41
 1277 1012 1277 1012 1253.5 1088 c 128,-1,42
 1230 1164 1230 1164 1182 1216.5 c 128,-1,43
 1134 1269 1134 1269 1061 1296.5 c 128,-1,44
 988 1324 988 1324 888 1324 c 0,45,46
 831 1324 831 1324 775.5 1314.5 c 128,-1,47
 720 1305 720 1305 667 1283 c 0,48,49
 596 1254 596 1254 537.5 1204 c 128,-1,50
 479 1154 479 1154 432.5 1091 c 128,-1,51
 386 1028 386 1028 351 954 c 128,-1,52
 316 880 316 880 293 803 c 128,-1,53
 270 726 270 726 258.5 648.5 c 128,-1,54
 247 571 247 571 247 499 c 0,55,56
 247 466 247 466 248.5 438 c 128,-1,57
 250 410 250 410 255 384 c 128,-1,58
 260 358 260 358 269 331.5 c 128,-1,59
 278 305 278 305 292 275 c 0,60,61
 316 224 316 224 352 189 c 128,-1,62
 388 154 388 154 431.5 132.5 c 128,-1,63
 475 111 475 111 525 101 c 128,-1,64
 575 91 575 91 629 91 c 0,29,30
EndSplineSet
Position2: "'cpsp' Capital Spacing lookup 0 per glyph data 0" dx=5 dy=0 dh=10 dv=0
EndChar

StartChar: R
Encoding: 82 82 53
Width: 1216
GlyphClass: 1
Flags: W
LayerCount: 2
Fore
SplineSet
985 -2 m 1,0,-1
 862 -2 l 1,1,-1
 657 646 l 1,2,-1
 381 646 l 1,3,-1
 230 -2 l 1,4,-1
 115 -2 l 1,5,-1
 443 1411 l 1,6,-1
 819 1411 l 2,7,8
 888 1411 888 1411 951.5 1393 c 128,-1,9
 1015 1375 1015 1375 1063.5 1338.5 c 128,-1,10
 1112 1302 1112 1302 1140.5 1246 c 128,-1,11
 1169 1190 1169 1190 1169 1114 c 0,12,13
 1169 1026 1169 1026 1138 949 c 128,-1,14
 1107 872 1107 872 1053 813 c 128,-1,15
 999 754 999 754 925.5 715 c 128,-1,16
 852 676 852 676 766 663 c 1,17,-1
 985 -2 l 1,0,-1
692 756 m 2,18,19
 732 756 732 756 761 762.5 c 128,-1,20
 790 769 790 769 826 786 c 0,21,22
 877 809 877 809 920.5 840.5 c 128,-1,23
 964 872 964 872 995 912.5 c 128,-1,24
 1026 953 1026 953 1043.5 1002.5 c 128,-1,25
 1061 1052 1061 1052 1061 1111 c 0,26,27
 1061 1166 1061 1166 1039.5 1204 c 128,-1,28
 1018 1242 1018 1242 982.5 1266 c 128,-1,29
 947 1290 947 1290 901.5 1300.5 c 128,-1,30
 856 1311 856 1311 808 1311 c 2,31,-1
 536 1311 l 1,32,-1
 407 756 l 1,33,-1
 692 756 l 2,18,19
EndSplineSet
Position2: "'cpsp' Capital Spacing lookup 0 per glyph data 0" dx=5 dy=0 dh=10 dv=0
EndChar

StartChar: S
Encoding: 83 83 54
Width: 1114
GlyphClass: 1
Flags: W
LayerCount: 2
Fore
SplineSet
476 -16 m 0,0,1
 393 -16 393 -16 319.5 7.5 c 128,-1,2
 246 31 246 31 190.5 77 c 128,-1,3
 135 123 135 123 103 191 c 128,-1,4
 71 259 71 259 71 347 c 1,5,-1
 179 371 l 1,6,7
 179 302 179 302 200.5 250 c 128,-1,8
 222 198 222 198 261 163.5 c 128,-1,9
 300 129 300 129 354.5 111.5 c 128,-1,10
 409 94 409 94 476 94 c 0,11,12
 547 94 547 94 614.5 113 c 128,-1,13
 682 132 682 132 735 170.5 c 128,-1,14
 788 209 788 209 820 267.5 c 128,-1,15
 852 326 852 326 852 405 c 0,16,17
 852 464 852 464 829.5 507 c 128,-1,18
 807 550 807 550 770 583 c 128,-1,19
 733 616 733 616 686 642 c 128,-1,20
 639 668 639 668 590 693 c 128,-1,21
 541 718 541 718 494 746 c 128,-1,22
 447 774 447 774 410 810.5 c 128,-1,23
 373 847 373 847 350.5 895.5 c 128,-1,24
 328 944 328 944 328 1011 c 0,25,26
 328 1102 328 1102 366 1179.5 c 128,-1,27
 404 1257 404 1257 467.5 1313.5 c 128,-1,28
 531 1370 531 1370 613 1402 c 128,-1,29
 695 1434 695 1434 783 1434 c 0,30,31
 837 1434 837 1434 886 1420.5 c 128,-1,32
 935 1407 935 1407 976.5 1380.5 c 128,-1,33
 1018 1354 1018 1354 1049.5 1314.5 c 128,-1,34
 1081 1275 1081 1275 1100 1223 c 1,35,-1
 1004 1177 l 1,36,37
 975 1252 975 1252 915 1289.5 c 128,-1,38
 855 1327 855 1327 777 1327 c 0,39,40
 715 1327 715 1327 655.5 1306.5 c 128,-1,41
 596 1286 596 1286 549 1247.5 c 128,-1,42
 502 1209 502 1209 473 1155 c 128,-1,43
 444 1101 444 1101 444 1035 c 0,44,45
 444 978 444 978 466.5 937 c 128,-1,46
 489 896 489 896 525.5 864.5 c 128,-1,47
 562 833 562 833 609 808.5 c 128,-1,48
 656 784 656 784 705.5 759.5 c 128,-1,49
 755 735 755 735 802 707 c 128,-1,50
 849 679 849 679 885.5 641.5 c 128,-1,51
 922 604 922 604 944.5 553.5 c 128,-1,52
 967 503 967 503 967 433 c 0,53,54
 967 334 967 334 925.5 251.5 c 128,-1,55
 884 169 884 169 816 109.5 c 128,-1,56
 748 50 748 50 659.5 17 c 128,-1,57
 571 -16 571 -16 476 -16 c 0,0,1
EndSplineSet
Position2: "'cpsp' Capital Spacing lookup 0 per glyph data 0" dx=5 dy=0 dh=10 dv=0
EndChar

StartChar: T
Encoding: 84 84 55
Width: 1279
GlyphClass: 1
Flags: W
LayerCount: 2
Fore
SplineSet
584 0 m 1,0,-1
 467 0 l 1,1,-1
 773 1328 l 1,2,-1
 280 1328 l 1,3,-1
 299 1413 l 1,4,-1
 1402 1413 l 1,5,-1
 1382 1328 l 1,6,-1
 890 1328 l 1,7,-1
 584 0 l 1,0,-1
EndSplineSet
Position2: "'cpsp' Capital Spacing lookup 0 per glyph data 0" dx=5 dy=0 dh=10 dv=0
EndChar

StartChar: U
Encoding: 85 85 56
Width: 1353
GlyphClass: 1
Flags: W
LayerCount: 2
Fore
SplineSet
566 -20 m 0,0,1
 383 -20 383 -20 286 74 c 128,-1,2
 189 168 189 168 189 353 c 0,3,4
 189 451 189 451 211.5 546.5 c 128,-1,5
 234 642 234 642 258 736 c 0,6,7
 301 906 301 906 339 1074 c 128,-1,8
 377 1242 377 1242 417 1413 c 1,9,-1
 531 1413 l 1,10,11
 481 1196 481 1196 428 982.5 c 128,-1,12
 375 769 375 769 331 551 c 0,13,14
 321 503 321 503 313.5 455 c 128,-1,15
 306 407 306 407 306 358 c 0,16,17
 306 226 306 226 370 155.5 c 128,-1,18
 434 85 434 85 569 85 c 0,19,20
 679 85 679 85 758 124.5 c 128,-1,21
 837 164 837 164 892.5 230 c 128,-1,22
 948 296 948 296 985 382 c 128,-1,23
 1022 468 1022 468 1049 561 c 0,24,25
 1080 667 1080 667 1101.5 774 c 128,-1,26
 1123 881 1123 881 1148 989 c 2,27,-1
 1247 1413 l 1,28,-1
 1362 1413 l 1,29,-1
 1258 963 l 2,30,31
 1240 882 1240 882 1222.5 791 c 128,-1,32
 1205 700 1205 700 1181.5 608 c 128,-1,33
 1158 516 1158 516 1126.5 426.5 c 128,-1,34
 1095 337 1095 337 1049 259.5 c 128,-1,35
 1003 182 1003 182 939 120.5 c 128,-1,36
 875 59 875 59 787 22 c 0,37,38
 734 -1 734 -1 678.5 -10.5 c 128,-1,39
 623 -20 623 -20 566 -20 c 0,0,1
EndSplineSet
Position2: "'cpsp' Capital Spacing lookup 0 per glyph data 0" dx=5 dy=0 dh=10 dv=0
EndChar

StartChar: V
Encoding: 86 86 57
Width: 1321
GlyphClass: 1
Flags: W
LayerCount: 2
Fore
SplineSet
555 0 m 1,0,-1
 444 0 l 1,1,-1
 251 1413 l 1,2,-1
 374 1413 l 1,3,-1
 528 127 l 1,4,-1
 1277 1413 l 1,5,-1
 1396 1413 l 1,6,-1
 555 0 l 1,0,-1
EndSplineSet
Position2: "'cpsp' Capital Spacing lookup 0 per glyph data 0" dx=5 dy=0 dh=10 dv=0
EndChar

StartChar: W
Encoding: 87 87 58
Width: 1969
GlyphClass: 1
Flags: W
LayerCount: 2
Fore
SplineSet
1322 0 m 1,0,-1
 1171 0 l 1,1,-1
 1102 1219 l 1,2,-1
 472 0 l 1,3,-1
 321 0 l 1,4,-1
 261 1413 l 1,5,-1
 376 1413 l 1,6,-1
 430 119 l 1,7,-1
 1100 1413 l 1,8,-1
 1195 1413 l 1,9,-1
 1269 119 l 1,10,-1
 1919 1413 l 1,11,-1
 2035 1413 l 1,12,-1
 1322 0 l 1,0,-1
EndSplineSet
Position2: "'cpsp' Capital Spacing lookup 0 per glyph data 1" dx=5 dy=1 dh=10 dv=2
EndChar

StartChar: X
Encoding: 88 88 59
Width: 1245
GlyphClass: 1
Flags: W
LayerCount: 2
Fore
SplineSet
1024 0 m 1,0,-1
 898 0 l 1,1,-1
 649 597 l 1,2,-1
 126 0 l 1,3,-1
 -12 0 l 1,4,-1
 617 707 l 1,5,-1
 319 1413 l 1,6,-1
 451 1413 l 1,7,-1
 691 806 l 1,8,-1
 1218 1413 l 1,9,-1
 1351 1413 l 1,10,-1
 726 708 l 1,11,-1
 1024 0 l 1,0,-1
EndSplineSet
Position2: "'cpsp' Capital Spacing lookup 0 per glyph data 0" dx=5 dy=0 dh=10 dv=0
EndChar

StartChar: Y
Encoding: 89 89 60
Width: 1322
GlyphClass: 1
Flags: W
LayerCount: 2
Fore
SplineSet
602 0 m 1,0,-1
 494 0 l 1,1,-1
 622 553 l 1,2,-1
 299 1413 l 1,3,-1
 426 1413 l 1,4,-1
 700 677 l 1,5,-1
 1318 1413 l 1,6,-1
 1449 1413 l 1,7,-1
 731 554 l 1,8,-1
 602 0 l 1,0,-1
EndSplineSet
Position2: "'cpsp' Capital Spacing lookup 0 per glyph data 0" dx=5 dy=0 dh=10 dv=0
EndChar

StartChar: Z
Encoding: 90 90 61
Width: 1294
GlyphClass: 1
Flags: W
LayerCount: 2
Fore
SplineSet
1060 0 m 1,0,-1
 -5 0 l 1,1,-1
 14 99 l 1,2,-1
 1231 1321 l 1,3,-1
 343 1321 l 1,4,-1
 365 1413 l 1,5,-1
 1385 1413 l 1,6,-1
 1364 1308 l 1,7,-1
 154 105 l 1,8,-1
 1085 105 l 1,9,-1
 1060 0 l 1,0,-1
EndSplineSet
Position2: "'cpsp' Capital Spacing lookup 0 per glyph data 0" dx=5 dy=0 dh=10 dv=0
EndChar

StartChar: bracketleft
Encoding: 91 91 62
Width: 644
GlyphClass: 1
Flags: W
LayerCount: 2
Fore
SplineSet
422 -65 m 1,0,-1
 93 -65 l 1,1,-1
 448 1476 l 1,2,-1
 777 1476 l 1,3,-1
 765 1419 l 1,4,-1
 529 1419 l 1,5,-1
 200 -6 l 1,6,-1
 436 -6 l 1,7,-1
 422 -65 l 1,0,-1
EndSplineSet
EndChar

StartChar: backslash
Encoding: 92 92 63
Width: 940
GlyphClass: 1
Flags: W
LayerCount: 2
Fore
SplineSet
682 -432 m 1,0,-1
 571 -432 l 1,1,-1
 276 1517 l 1,2,-1
 392 1517 l 1,3,-1
 682 -432 l 1,0,-1
EndSplineSet
EndChar

StartChar: bracketright
Encoding: 93 93 64
Width: 644
GlyphClass: 1
Flags: W
LayerCount: 2
Fore
SplineSet
290 -65 m 1,0,-1
 -38 -65 l 1,1,-1
 -25 -6 l 1,2,-1
 212 -6 l 1,3,-1
 540 1419 l 1,4,-1
 304 1419 l 1,5,-1
 316 1476 l 1,6,-1
 644 1476 l 1,7,-1
 290 -65 l 1,0,-1
EndSplineSet
EndChar

StartChar: asciicircum
Encoding: 94 94 65
Width: 988
GlyphClass: 1
Flags: W
LayerCount: 2
Fore
SplineSet
911 857 m 1,0,-1
 795 857 l 1,1,-1
 660 1208 l 1,2,-1
 362 857 l 1,3,-1
 241 857 l 1,4,-1
 697 1397 l 1,5,-1
 911 857 l 1,0,-1
EndSplineSet
EndChar

StartChar: underscore
Encoding: 95 95 66
Width: 1246
GlyphClass: 1
Flags: W
LayerCount: 2
Fore
SplineSet
862 -85 m 1,0,-1
 114 -85 l 1,1,-1
 133 -6 l 1,2,-1
 881 -6 l 1,3,-1
 862 -85 l 1,0,-1
EndSplineSet
EndChar

StartChar: a
Encoding: 97 97 68
Width: 1157
GlyphClass: 1
Flags: W
LayerCount: 2
Fore
SplineSet
409 -20 m 0,0,1
 327 -20 327 -20 269 9.5 c 128,-1,2
 211 39 211 39 174 89 c 128,-1,3
 137 139 137 139 119.5 205.5 c 128,-1,4
 102 272 102 272 102 346 c 0,5,6
 102 419 102 419 118 500.5 c 128,-1,7
 134 582 134 582 165.5 661 c 128,-1,8
 197 740 197 740 242.5 812.5 c 128,-1,9
 288 885 288 885 347.5 940 c 128,-1,10
 407 995 407 995 479.5 1027.5 c 128,-1,11
 552 1060 552 1060 636 1060 c 0,12,13
 742 1060 742 1060 819.5 1016.5 c 128,-1,14
 897 973 897 973 942 874 c 1,15,16
 952 916 952 916 962 956.5 c 128,-1,17
 972 997 972 997 983 1039 c 1,18,-1
 1091 1039 l 1,19,-1
 852 0 l 1,20,-1
 742 0 l 1,21,-1
 776 151 l 1,22,23
 707 70 707 70 611.5 25 c 128,-1,24
 516 -20 516 -20 409 -20 c 0,0,1
439 74 m 0,25,26
 514 74 514 74 577 102 c 128,-1,27
 640 130 640 130 690.5 177.5 c 128,-1,28
 741 225 741 225 779.5 288 c 128,-1,29
 818 351 818 351 843.5 420 c 128,-1,30
 869 489 869 489 882 560 c 128,-1,31
 895 631 895 631 895 695 c 0,32,33
 895 752 895 752 882 801 c 128,-1,34
 869 850 869 850 841 885.5 c 128,-1,35
 813 921 813 921 769 941.5 c 128,-1,36
 725 962 725 962 663 962 c 0,37,38
 589 962 589 962 526.5 934 c 128,-1,39
 464 906 464 906 413.5 858.5 c 128,-1,40
 363 811 363 811 324.5 749 c 128,-1,41
 286 687 286 687 260.5 618.5 c 128,-1,42
 235 550 235 550 222 479.5 c 128,-1,43
 209 409 209 409 209 346 c 0,44,45
 209 289 209 289 221 239.5 c 128,-1,46
 233 190 233 190 260.5 153 c 128,-1,47
 288 116 288 116 332 95 c 128,-1,48
 376 74 376 74 439 74 c 0,25,26
EndSplineSet
Substitution2: "Single Substitution lookup 3 subtable" ordfeminine
Substitution2: "Single Substitution lookup 2 subtable" ordfeminine
EndChar

StartChar: b
Encoding: 98 98 69
Width: 1154
GlyphClass: 1
Flags: W
LayerCount: 2
Fore
SplineSet
523 -20 m 0,0,1
 417 -20 417 -20 339.5 24 c 128,-1,2
 262 68 262 68 221 169 c 1,3,4
 210 127 210 127 200 84.5 c 128,-1,5
 190 42 190 42 179 0 c 1,6,-1
 74 0 l 1,7,-1
 414 1413 l 1,8,-1
 519 1413 l 1,9,10
 484 1279 484 1279 449 1146.5 c 128,-1,11
 414 1014 414 1014 378 880 c 1,12,13
 453 961 453 961 545.5 1011.5 c 128,-1,14
 638 1062 638 1062 751 1062 c 0,15,16
 832 1062 832 1062 891 1032.5 c 128,-1,17
 950 1003 950 1003 987.5 952.5 c 128,-1,18
 1025 902 1025 902 1043 835.5 c 128,-1,19
 1061 769 1061 769 1061 695 c 0,20,21
 1061 612 1061 612 1043.5 526 c 128,-1,22
 1026 440 1026 440 992 359.5 c 128,-1,23
 958 279 958 279 907.5 208 c 128,-1,24
 857 137 857 137 791 84 c 0,25,26
 731 36 731 36 666 8 c 128,-1,27
 601 -20 601 -20 523 -20 c 0,0,1
493 67 m 0,28,29
 567 67 567 67 629.5 95.5 c 128,-1,30
 692 124 692 124 744 171.5 c 128,-1,31
 796 219 796 219 835.5 282 c 128,-1,32
 875 345 875 345 902 414 c 128,-1,33
 929 483 929 483 943 553.5 c 128,-1,34
 957 624 957 624 957 688 c 0,35,36
 957 746 957 746 944.5 797.5 c 128,-1,37
 932 849 932 849 904 888 c 128,-1,38
 876 927 876 927 831.5 950 c 128,-1,39
 787 973 787 973 722 973 c 0,40,41
 647 973 647 973 584.5 943.5 c 128,-1,42
 522 914 522 914 471 865 c 128,-1,43
 420 816 420 816 382 751.5 c 128,-1,44
 344 687 344 687 318 616.5 c 128,-1,45
 292 546 292 546 279 474 c 128,-1,46
 266 402 266 402 266 339 c 0,47,48
 266 284 266 284 278.5 234.5 c 128,-1,49
 291 185 291 185 318 147.5 c 128,-1,50
 345 110 345 110 388 88.5 c 128,-1,51
 431 67 431 67 493 67 c 0,28,29
EndSplineSet
EndChar

StartChar: c
Encoding: 99 99 70
Width: 991
GlyphClass: 1
Flags: W
LayerCount: 2
Fore
SplineSet
429 -20 m 0,0,1
 341 -20 341 -20 277.5 8.5 c 128,-1,2
 214 37 214 37 173.5 88 c 128,-1,3
 133 139 133 139 114 208.5 c 128,-1,4
 95 278 95 278 95 360 c 0,5,6
 95 437 95 437 112 518.5 c 128,-1,7
 129 600 129 600 161.5 677.5 c 128,-1,8
 194 755 194 755 242 823.5 c 128,-1,9
 290 892 290 892 351.5 944 c 128,-1,10
 413 996 413 996 488 1026 c 128,-1,11
 563 1056 563 1056 649 1056 c 0,12,13
 777 1056 777 1056 862 993 c 128,-1,14
 947 930 947 930 977 804 c 1,15,-1
 868 754 l 1,16,17
 864 799 864 799 842.5 836.5 c 128,-1,18
 821 874 821 874 788 900 c 128,-1,19
 755 926 755 926 713.5 940.5 c 128,-1,20
 672 955 672 955 628 955 c 0,21,22
 556 955 556 955 497 928 c 128,-1,23
 438 901 438 901 391 856 c 128,-1,24
 344 811 344 811 309 751.5 c 128,-1,25
 274 692 274 692 251 626.5 c 128,-1,26
 228 561 228 561 216.5 493.5 c 128,-1,27
 205 426 205 426 205 366 c 0,28,29
 205 305 205 305 217.5 252.5 c 128,-1,30
 230 200 230 200 258.5 161.5 c 128,-1,31
 287 123 287 123 333 101.5 c 128,-1,32
 379 80 379 80 447 80 c 0,33,34
 497 80 497 80 545 95.5 c 128,-1,35
 593 111 593 111 635 138 c 128,-1,36
 677 165 677 165 712 202 c 128,-1,37
 747 239 747 239 770 282 c 1,38,-1
 852 238 l 1,39,40
 818 181 818 181 773 133.5 c 128,-1,41
 728 86 728 86 674.5 52 c 128,-1,42
 621 18 621 18 559 -1 c 128,-1,43
 497 -20 497 -20 429 -20 c 0,0,1
EndSplineSet
EndChar

StartChar: d
Encoding: 100 100 71
Width: 1162
GlyphClass: 1
Flags: W
LayerCount: 2
Fore
SplineSet
410 -20 m 0,0,1
 328 -20 328 -20 269.5 9 c 128,-1,2
 211 38 211 38 173.5 88 c 128,-1,3
 136 138 136 138 119 204.5 c 128,-1,4
 102 271 102 271 102 346 c 0,5,6
 102 427 102 427 119.5 512.5 c 128,-1,7
 137 598 137 598 170.5 679 c 128,-1,8
 204 760 204 760 253 831 c 128,-1,9
 302 902 302 902 366 954 c 0,10,11
 424 1002 424 1002 492 1031 c 128,-1,12
 560 1060 560 1060 636 1060 c 0,13,14
 742 1060 742 1060 820 1016 c 128,-1,15
 898 972 898 972 943 874 c 1,16,17
 978 1010 978 1010 1012.5 1144 c 128,-1,18
 1047 1278 1047 1278 1084 1413 c 1,19,-1
 1192 1413 l 1,20,-1
 852 0 l 1,21,-1
 743 0 l 1,22,-1
 776 151 l 1,23,24
 701 68 701 68 612.5 24 c 128,-1,25
 524 -20 524 -20 410 -20 c 0,0,1
440 74 m 0,26,27
 515 74 515 74 577.5 102 c 128,-1,28
 640 130 640 130 691 178 c 128,-1,29
 742 226 742 226 780 288.5 c 128,-1,30
 818 351 818 351 844 420 c 128,-1,31
 870 489 870 489 883 560 c 128,-1,32
 896 631 896 631 896 695 c 0,33,34
 896 752 896 752 883 800.5 c 128,-1,35
 870 849 870 849 842.5 885 c 128,-1,36
 815 921 815 921 771 941.5 c 128,-1,37
 727 962 727 962 665 962 c 0,38,39
 596 962 596 962 538 939 c 128,-1,40
 480 916 480 916 432.5 876 c 128,-1,41
 385 836 385 836 348.5 783.5 c 128,-1,42
 312 731 312 731 285 671 c 0,43,44
 252 596 252 596 230.5 512 c 128,-1,45
 209 428 209 428 209 346 c 0,46,47
 209 289 209 289 221.5 239.5 c 128,-1,48
 234 190 234 190 261.5 153 c 128,-1,49
 289 116 289 116 333 95 c 128,-1,50
 377 74 377 74 440 74 c 0,26,27
EndSplineSet
EndChar

StartChar: e
Encoding: 101 101 72
Width: 1057
GlyphClass: 1
Flags: W
LayerCount: 2
Fore
SplineSet
444 -12 m 0,0,1
 359 -12 359 -12 293.5 13.5 c 128,-1,2
 228 39 228 39 184 86.5 c 128,-1,3
 140 134 140 134 117 201 c 128,-1,4
 94 268 94 268 94 351 c 0,5,6
 94 429 94 429 111 511 c 128,-1,7
 128 593 128 593 160.5 670.5 c 128,-1,8
 193 748 193 748 241 817.5 c 128,-1,9
 289 887 289 887 350.5 939 c 128,-1,10
 412 991 412 991 487.5 1021.5 c 128,-1,11
 563 1052 563 1052 650 1052 c 0,12,13
 725 1052 725 1052 788 1034 c 128,-1,14
 851 1016 851 1016 896.5 978.5 c 128,-1,15
 942 941 942 941 967 883 c 128,-1,16
 992 825 992 825 992 745 c 0,17,18
 992 679 992 679 980 614 c 128,-1,19
 968 549 968 549 946 486 c 1,20,-1
 221 486 l 1,21,22
 213 453 213 453 207.5 419.5 c 128,-1,23
 202 386 202 386 202 351 c 0,24,25
 202 291 202 291 219 241 c 128,-1,26
 236 191 236 191 269 155.5 c 128,-1,27
 302 120 302 120 350 100 c 128,-1,28
 398 80 398 80 460 80 c 0,29,30
 549 80 549 80 636 106 c 128,-1,31
 723 132 723 132 792 190 c 1,32,-1
 854 134 l 1,33,34
 768 62 768 62 662 25 c 128,-1,35
 556 -12 556 -12 444 -12 c 0,0,1
865 584 m 1,36,37
 896 658 896 658 896 737 c 0,38,39
 896 797 896 797 874.5 838.5 c 128,-1,40
 853 880 853 880 816 905.5 c 128,-1,41
 779 931 779 931 731 942.5 c 128,-1,42
 683 954 683 954 629 954 c 0,43,44
 550 954 550 954 486 922.5 c 128,-1,45
 422 891 422 891 373 839.5 c 128,-1,46
 324 788 324 788 291 721.5 c 128,-1,47
 258 655 258 655 241 584 c 1,48,-1
 865 584 l 1,36,37
EndSplineSet
EndChar

StartChar: f
Encoding: 102 102 73
Width: 707
GlyphClass: 1
Flags: W
LayerCount: 2
Fore
SplineSet
170 0 m 1,0,-1
 59 0 l 1,1,-1
 279 956 l 1,2,-1
 89 956 l 1,3,-1
 108 1037 l 1,4,-1
 298 1037 l 1,5,-1
 344 1207 l 2,6,7
 359 1264 359 1264 390 1306.5 c 128,-1,8
 421 1349 421 1349 463 1377.5 c 128,-1,9
 505 1406 505 1406 556 1420 c 128,-1,10
 607 1434 607 1434 664 1434 c 0,11,12
 703 1434 703 1434 741.5 1425 c 128,-1,13
 780 1416 780 1416 815 1398 c 1,14,-1
 775 1312 l 1,15,16
 745 1325 745 1325 712.5 1333 c 128,-1,17
 680 1341 680 1341 647 1341 c 0,18,19
 573 1341 573 1341 523.5 1308 c 128,-1,20
 474 1275 474 1275 454 1201 c 2,21,-1
 411 1039 l 1,22,-1
 729 1039 l 1,23,-1
 709 956 l 1,24,-1
 395 956 l 1,25,-1
 170 0 l 1,0,-1
EndSplineSet
EndChar

StartChar: g
Encoding: 103 103 74
Width: 1166
GlyphClass: 1
Flags: W
LayerCount: 2
Fore
SplineSet
344 -433 m 0,0,1
 291 -433 291 -433 238 -423 c 128,-1,2
 185 -413 185 -413 138.5 -390 c 128,-1,3
 92 -367 92 -367 55 -330 c 128,-1,4
 18 -293 18 -293 -3 -240 c 1,5,-1
 92 -189 l 1,6,7
 108 -230 108 -230 133.5 -259.5 c 128,-1,8
 159 -289 159 -289 191 -307.5 c 128,-1,9
 223 -326 223 -326 261.5 -334.5 c 128,-1,10
 300 -343 300 -343 342 -343 c 0,11,12
 424 -343 424 -343 489 -316 c 128,-1,13
 554 -289 554 -289 603.5 -242.5 c 128,-1,14
 653 -196 653 -196 688 -132.5 c 128,-1,15
 723 -69 723 -69 745 4 c 0,16,17
 756 42 756 42 765 80.5 c 128,-1,18
 774 119 774 119 784 157 c 1,19,20
 749 118 749 118 707.5 85 c 128,-1,21
 666 52 666 52 619.5 28 c 128,-1,22
 573 4 573 4 522.5 -9.5 c 128,-1,23
 472 -23 472 -23 419 -23 c 0,24,25
 335 -23 335 -23 275 5 c 128,-1,26
 215 33 215 33 176 81.5 c 128,-1,27
 137 130 137 130 119 196.5 c 128,-1,28
 101 263 101 263 101 341 c 0,29,30
 101 417 101 417 117 500 c 128,-1,31
 133 583 133 583 164.5 663 c 128,-1,32
 196 743 196 743 242.5 815 c 128,-1,33
 289 887 289 887 350 941.5 c 128,-1,34
 411 996 411 996 485.5 1028 c 128,-1,35
 560 1060 560 1060 647 1060 c 0,36,37
 750 1060 750 1060 826.5 1014 c 128,-1,38
 903 968 903 968 943 871 c 1,39,-1
 983 1039 l 1,40,-1
 1095 1039 l 1,41,42
 1065 910 1065 910 1036.5 780 c 128,-1,43
 1008 650 1008 650 978.5 520 c 128,-1,44
 949 390 949 390 918 261 c 128,-1,45
 887 132 887 132 851 4 c 0,46,47
 823 -94 823 -94 781 -174.5 c 128,-1,48
 739 -255 739 -255 678 -312.5 c 128,-1,49
 617 -370 617 -370 534.5 -401.5 c 128,-1,50
 452 -433 452 -433 344 -433 c 0,0,1
439 65 m 0,51,52
 514 65 514 65 577 94 c 128,-1,53
 640 123 640 123 691 172.5 c 128,-1,54
 742 222 742 222 780.5 286 c 128,-1,55
 819 350 819 350 845 420.5 c 128,-1,56
 871 491 871 491 884 562.5 c 128,-1,57
 897 634 897 634 897 698 c 0,58,59
 897 754 897 754 885 803.5 c 128,-1,60
 873 853 873 853 846 890 c 128,-1,61
 819 927 819 927 776 948 c 128,-1,62
 733 969 733 969 670 969 c 0,63,64
 595 969 595 969 531 940.5 c 128,-1,65
 467 912 467 912 416 863 c 128,-1,66
 365 814 365 814 326 750.5 c 128,-1,67
 287 687 287 687 261 617 c 128,-1,68
 235 547 235 547 221.5 475.5 c 128,-1,69
 208 404 208 404 208 339 c 0,70,71
 208 282 208 282 220.5 232.5 c 128,-1,72
 233 183 233 183 261 145.5 c 128,-1,73
 289 108 289 108 332.5 86.5 c 128,-1,74
 376 65 376 65 439 65 c 0,51,52
EndSplineSet
EndChar

StartChar: h
Encoding: 104 104 75
Width: 1151
GlyphClass: 1
Flags: W
LayerCount: 2
Fore
SplineSet
873 0 m 1,0,-1
 762 0 l 1,1,-1
 836 315 l 2,2,3
 849 371 849 371 864.5 427.5 c 128,-1,4
 880 484 880 484 893 540.5 c 128,-1,5
 906 597 906 597 915 654.5 c 128,-1,6
 924 712 924 712 924 770 c 0,7,8
 924 858 924 858 883.5 907.5 c 128,-1,9
 843 957 843 957 751 957 c 0,10,11
 691 957 691 957 635 937.5 c 128,-1,12
 579 918 579 918 530 884.5 c 128,-1,13
 481 851 481 851 440.5 806.5 c 128,-1,14
 400 762 400 762 371 711 c 0,15,16
 351 676 351 676 336.5 640 c 128,-1,17
 322 604 322 604 311 566 c 0,18,19
 271 426 271 426 242 284 c 128,-1,20
 213 142 213 142 179 0 c 1,21,-1
 74 0 l 1,22,-1
 414 1413 l 1,23,-1
 519 1413 l 1,24,-1
 372 846 l 1,25,26
 407 892 407 892 451 930.5 c 128,-1,27
 495 969 495 969 546 997 c 128,-1,28
 597 1025 597 1025 653 1040.5 c 128,-1,29
 709 1056 709 1056 768 1056 c 0,30,31
 900 1056 900 1056 966.5 983 c 128,-1,32
 1033 910 1033 910 1033 781 c 0,33,34
 1033 746 1033 746 1029 711.5 c 128,-1,35
 1025 677 1025 677 1017 643 c 2,36,-1
 873 0 l 1,0,-1
EndSplineSet
EndChar

StartChar: i
Encoding: 105 105 76
Width: 477
GlyphClass: 1
Flags: W
LayerCount: 2
Fore
SplineSet
192 0 m 1,0,-1
 81 0 l 1,1,-1
 309 1039 l 1,2,-1
 421 1039 l 1,3,-1
 192 0 l 1,0,-1
455 1239 m 1,4,-1
 343 1239 l 1,5,-1
 384 1413 l 1,6,-1
 495 1413 l 1,7,-1
 455 1239 l 1,4,-1
EndSplineSet
Substitution2: "'locl' Localized Forms in Latin lookup 21-1" i.loclTRK
Substitution2: "Single Substitution lookup 2 subtable" dotlessi
Substitution2: "'aalt' Access All Alternates lookup 0 subtable" i.loclTRK
EndChar

StartChar: j
Encoding: 106 106 77
Width: 510
GlyphClass: 1
Flags: W
LayerCount: 2
Fore
SplineSet
471 1253 m 1,0,-1
 358 1253 l 1,1,-1
 399 1420 l 1,2,-1
 512 1420 l 1,3,-1
 471 1253 l 1,0,-1
-170 -440 m 0,4,5
 -205 -440 -205 -440 -239.5 -433 c 128,-1,6
 -274 -426 -274 -426 -306 -411 c 1,7,-1
 -266 -323 l 1,8,9
 -235 -332 -235 -332 -203.5 -335 c 128,-1,10
 -172 -338 -172 -338 -140 -338 c 0,11,12
 -74 -338 -74 -338 -31.5 -299 c 128,-1,13
 11 -260 11 -260 25 -197 c 2,14,-1
 314 1039 l 1,15,-1
 427 1039 l 1,16,-1
 144 -172 l 2,17,18
 130 -233 130 -233 103.5 -282.5 c 128,-1,19
 77 -332 77 -332 38 -367 c 128,-1,20
 -1 -402 -1 -402 -53 -421 c 128,-1,21
 -105 -440 -105 -440 -170 -440 c 0,4,5
EndSplineSet
Substitution2: "Single Substitution lookup 2 subtable" uni0237
EndChar

StartChar: k
Encoding: 107 107 78
Width: 1062
GlyphClass: 1
Flags: W
LayerCount: 2
Fore
SplineSet
834 0 m 1,0,-1
 703 0 l 1,1,-1
 505 565 l 1,2,-1
 204 305 l 1,3,-1
 133 0 l 1,4,-1
 22 0 l 1,5,-1
 347 1413 l 1,6,-1
 454 1413 l 1,7,-1
 240 460 l 1,8,-1
 873 1039 l 1,9,-1
 1005 1039 l 1,10,-1
 598 656 l 1,11,-1
 834 0 l 1,0,-1
EndSplineSet
EndChar

StartChar: l
Encoding: 108 108 79
Width: 497
GlyphClass: 1
Flags: W
LayerCount: 2
Fore
SplineSet
155 -20 m 0,0,1
 133 -20 133 -20 112.5 -16.5 c 128,-1,2
 92 -13 92 -13 76 -3 c 128,-1,3
 60 7 60 7 50.5 23.5 c 128,-1,4
 41 40 41 40 41 66 c 0,5,6
 41 113 41 113 53.5 156.5 c 128,-1,7
 66 200 66 200 77 245 c 2,8,-1
 345 1413 l 1,9,-1
 452 1413 l 1,10,-1
 152 107 l 1,11,12
 156 93 156 93 164.5 82.5 c 128,-1,13
 173 72 173 72 189 72 c 0,14,15
 215 72 215 72 241 74 c 128,-1,16
 267 76 267 76 292 84 c 1,17,-1
 271 -1 l 1,18,19
 243 -12 243 -12 213.5 -16 c 128,-1,20
 184 -20 184 -20 155 -20 c 0,0,1
EndSplineSet
EndChar

StartChar: m
Encoding: 109 109 80
Width: 1747
GlyphClass: 1
Flags: W
LayerCount: 2
Fore
SplineSet
1470 0 m 1,0,-1
 1360 0 l 1,1,2
 1396 159 1396 159 1435 316 c 128,-1,3
 1474 473 1474 473 1507 633 c 0,4,5
 1515 668 1515 668 1519 703 c 128,-1,6
 1523 738 1523 738 1523 773 c 0,7,8
 1523 819 1523 819 1513.5 856.5 c 128,-1,9
 1504 894 1504 894 1483 920.5 c 128,-1,10
 1462 947 1462 947 1428 961.5 c 128,-1,11
 1394 976 1394 976 1345 976 c 0,12,13
 1270 976 1270 976 1207.5 942 c 128,-1,14
 1145 908 1145 908 1096.5 853.5 c 128,-1,15
 1048 799 1048 799 1014.5 732 c 128,-1,16
 981 665 981 665 965 599 c 0,17,18
 956 561 956 561 947.5 524 c 128,-1,19
 939 487 939 487 931 449 c 256,20,21
 923 411 923 411 914 373.5 c 128,-1,22
 905 336 905 336 897 298 c 2,23,-1
 828 0 l 1,24,-1
 717 0 l 1,25,-1
 863 637 l 2,26,27
 871 673 871 673 876.5 709.5 c 128,-1,28
 882 746 882 746 882 783 c 0,29,30
 882 872 882 872 841 924 c 128,-1,31
 800 976 800 976 706 976 c 0,32,33
 631 976 631 976 567 942 c 128,-1,34
 503 908 503 908 453.5 854 c 128,-1,35
 404 800 404 800 370 733 c 128,-1,36
 336 666 336 666 320 599 c 0,37,38
 311 561 311 561 302.5 524 c 128,-1,39
 294 487 294 487 286 449 c 0,40,41
 261 336 261 336 234.5 224.5 c 128,-1,42
 208 113 208 113 182 0 c 1,43,-1
 72 0 l 1,44,-1
 311 1039 l 1,45,-1
 422 1039 l 1,46,-1
 369 814 l 1,47,48
 393 864 393 864 427.5 908.5 c 128,-1,49
 462 953 462 953 505.5 986 c 128,-1,50
 549 1019 549 1019 600.5 1038.5 c 128,-1,51
 652 1058 652 1058 710 1058 c 0,52,53
 769 1058 769 1058 819 1044.5 c 128,-1,54
 869 1031 869 1031 906 1002 c 128,-1,55
 943 973 943 973 964.5 928 c 128,-1,56
 986 883 986 883 987 820 c 1,57,58
 1020 872 1020 872 1056.5 915 c 128,-1,59
 1093 958 1093 958 1137 989.5 c 128,-1,60
 1181 1021 1181 1021 1234 1038.5 c 128,-1,61
 1287 1056 1287 1056 1351 1056 c 0,62,63
 1491 1056 1491 1056 1560.5 984.5 c 128,-1,64
 1630 913 1630 913 1630 774 c 0,65,66
 1630 737 1630 737 1625 700.5 c 128,-1,67
 1620 664 1620 664 1612 628 c 2,68,-1
 1470 0 l 1,0,-1
EndSplineSet
EndChar

StartChar: n
Encoding: 110 110 81
Width: 1146
GlyphClass: 1
Flags: W
LayerCount: 2
Fore
SplineSet
868 0 m 1,0,-1
 760 0 l 1,1,-1
 906 634 l 2,2,3
 914 666 914 666 918 699.5 c 128,-1,4
 922 733 922 733 922 766 c 0,5,6
 922 859 922 859 879.5 906.5 c 128,-1,7
 837 954 837 954 742 954 c 0,8,9
 681 954 681 954 618.5 930.5 c 128,-1,10
 556 907 556 907 501.5 867 c 128,-1,11
 447 827 447 827 404.5 775 c 128,-1,12
 362 723 362 723 340 667 c 0,13,14
 333 650 333 650 327.5 632.5 c 128,-1,15
 322 615 322 615 317 597 c 0,16,17
 296 524 296 524 278.5 449 c 128,-1,18
 261 374 261 374 245 299 c 0,19,20
 245 298 245 298 245 297 c 2,21,-1
 244 292 l 2,22,23
 243 291 243 291 243 290 c 2,24,-1
 242 285 l 2,25,26
 242 284 242 284 242 283 c 2,27,-1
 241 278 l 2,28,29
 240 277 240 277 240 276 c 2,30,-1
 239 271 l 2,31,32
 239 269 239 269 238 267 c 2,33,-1
 237 262 l 2,34,35
 237 261 237 261 237 260 c 2,36,-1
 236 255 l 2,37,38
 235 254 235 254 235 253 c 2,39,-1
 234 248 l 2,40,41
 234 247 234 247 234 246 c 2,42,-1
 233 241 l 2,43,44
 232 239 232 239 232 237 c 2,45,-1
 231 232 l 2,46,47
 230 231 230 231 230 230 c 2,48,-1
 229 225 l 2,49,50
 229 224 229 224 229 223 c 2,51,-1
 228 218 l 2,52,53
 228 217 228 217 227 216 c 2,54,-1
 226 211 l 2,55,56
 226 210 226 210 226 209 c 2,57,-1
 224 202 l 2,58,59
 224 201 224 201 224 200 c 2,60,-1
 223 195 l 2,61,62
 223 194 223 194 222 193 c 2,63,-1
 221 188 l 2,64,65
 221 187 221 187 221 186 c 2,66,-1
 220 181 l 2,67,68
 219 179 219 179 219 177 c 2,69,-1
 218 172 l 2,70,71
 218 171 218 171 217 170 c 2,72,-1
 216 165 l 2,73,74
 216 164 216 164 216 163 c 2,75,-1
 215 158 l 2,76,77
 215 157 215 157 214 156 c 2,78,-1
 213 151 l 2,79,80
 213 150 213 150 213 149 c 0,81,82
 197 74 197 74 179 0 c 1,83,-1
 72 0 l 1,84,-1
 311 1039 l 1,85,-1
 419 1039 l 1,86,87
 406 994 406 994 396 948 c 128,-1,88
 386 902 386 902 374 856 c 1,89,90
 406 900 406 900 449 936.5 c 128,-1,91
 492 973 492 973 541 999.5 c 128,-1,92
 590 1026 590 1026 644 1041 c 128,-1,93
 698 1056 698 1056 753 1056 c 0,94,95
 891 1056 891 1056 959 985.5 c 128,-1,96
 1027 915 1027 915 1027 778 c 0,97,98
 1027 718 1027 718 1018.5 659.5 c 128,-1,99
 1010 601 1010 601 996.5 543 c 128,-1,100
 983 485 983 485 967.5 427.5 c 128,-1,101
 952 370 952 370 938 313 c 0,102,103
 919 235 919 235 902 157 c 128,-1,104
 885 79 885 79 868 0 c 1,0,-1
EndSplineSet
EndChar

StartChar: o
Encoding: 111 111 82
Width: 1148
GlyphClass: 1
Flags: W
LayerCount: 2
Fore
SplineSet
464 -20 m 0,0,1
 375 -20 375 -20 305.5 11 c 128,-1,2
 236 42 236 42 188.5 96.5 c 128,-1,3
 141 151 141 151 116 224.5 c 128,-1,4
 91 298 91 298 91 383 c 0,5,6
 91 463 91 463 112 543 c 128,-1,7
 133 623 133 623 171.5 697.5 c 128,-1,8
 210 772 210 772 264 836.5 c 128,-1,9
 318 901 318 901 384.5 949 c 128,-1,10
 451 997 451 997 528 1024.5 c 128,-1,11
 605 1052 605 1052 689 1052 c 0,12,13
 779 1052 779 1052 848.5 1021 c 128,-1,14
 918 990 918 990 965.5 936 c 128,-1,15
 1013 882 1013 882 1038 808.5 c 128,-1,16
 1063 735 1063 735 1063 649 c 0,17,18
 1063 569 1063 569 1042 488.5 c 128,-1,19
 1021 408 1021 408 982.5 333.5 c 128,-1,20
 944 259 944 259 890 194.5 c 128,-1,21
 836 130 836 130 769.5 82.5 c 128,-1,22
 703 35 703 35 626 7.5 c 128,-1,23
 549 -20 549 -20 464 -20 c 0,0,1
471 82 m 0,24,25
 544 82 544 82 608 106.5 c 128,-1,26
 672 131 672 131 726 173.5 c 128,-1,27
 780 216 780 216 822.5 273 c 128,-1,28
 865 330 865 330 894.5 394.5 c 128,-1,29
 924 459 924 459 939.5 528 c 128,-1,30
 955 597 955 597 955 663 c 0,31,32
 955 727 955 727 937.5 780 c 128,-1,33
 920 833 920 833 885.5 870.5 c 128,-1,34
 851 908 851 908 800 929 c 128,-1,35
 749 950 749 950 683 950 c 0,36,37
 612 950 612 950 548 925.5 c 128,-1,38
 484 901 484 901 430.5 858.5 c 128,-1,39
 377 816 377 816 334.5 759.5 c 128,-1,40
 292 703 292 703 262 639 c 128,-1,41
 232 575 232 575 216 507 c 128,-1,42
 200 439 200 439 200 374 c 0,43,44
 200 313 200 313 218.5 259.5 c 128,-1,45
 237 206 237 206 271.5 166.5 c 128,-1,46
 306 127 306 127 356.5 104.5 c 128,-1,47
 407 82 407 82 471 82 c 0,24,25
EndSplineSet
Substitution2: "Single Substitution lookup 3 subtable" ordmasculine
Substitution2: "Single Substitution lookup 2 subtable" ordmasculine
EndChar

StartChar: p
Encoding: 112 112 83
Width: 1162
GlyphClass: 1
Flags: W
LayerCount: 2
Fore
SplineSet
75 -440 m 1,0,-1
 -32 -440 l 1,1,2
 -23 -386 -23 -386 -9 -332 c 0,3,4
 -7 -323 -7 -323 -4 -314 c 2,5,-1
 -3 -310 l 2,6,7
 -1 -300 -1 -300 2 -289 c 2,8,-1
 3 -285 l 2,9,10
 11 -255 11 -255 19 -224 c 0,11,12
 37 -150 37 -150 54 -76.5 c 128,-1,13
 71 -3 71 -3 88 72 c 0,14,15
 146 315 146 315 201 555.5 c 128,-1,16
 256 796 256 796 314 1039 c 1,17,-1
 422 1039 l 1,18,19
 411 1000 411 1000 401.5 960 c 128,-1,20
 392 920 392 920 380 881 c 1,21,22
 455 964 455 964 547 1012 c 128,-1,23
 639 1060 639 1060 753 1060 c 0,24,25
 836 1060 836 1060 895 1031.5 c 128,-1,26
 954 1003 954 1003 991.5 953.5 c 128,-1,27
 1029 904 1029 904 1046.5 837.5 c 128,-1,28
 1064 771 1064 771 1064 695 c 0,29,30
 1064 611 1064 611 1047 525 c 128,-1,31
 1030 439 1030 439 996 358.5 c 128,-1,32
 962 278 962 278 911.5 207 c 128,-1,33
 861 136 861 136 794 83 c 0,34,35
 734 35 734 35 668.5 7.5 c 128,-1,36
 603 -20 603 -20 526 -20 c 0,37,38
 420 -20 420 -20 342 24 c 128,-1,39
 264 68 264 68 223 170 c 1,40,-1
 75 -440 l 1,0,-1
494 67 m 0,41,42
 569 67 569 67 633 95 c 128,-1,43
 697 123 697 123 748.5 171 c 128,-1,44
 800 219 800 219 840 281.5 c 128,-1,45
 880 344 880 344 906.5 413.5 c 128,-1,46
 933 483 933 483 947 554 c 128,-1,47
 961 625 961 625 961 690 c 0,48,49
 961 749 961 749 948 799.5 c 128,-1,50
 935 850 935 850 906.5 887.5 c 128,-1,51
 878 925 878 925 832.5 946.5 c 128,-1,52
 787 968 787 968 723 968 c 0,53,54
 650 968 650 968 587.5 939.5 c 128,-1,55
 525 911 525 911 474.5 862.5 c 128,-1,56
 424 814 424 814 385.5 750.5 c 128,-1,57
 347 687 347 687 321 618 c 128,-1,58
 295 549 295 549 281.5 478.5 c 128,-1,59
 268 408 268 408 268 345 c 0,60,61
 268 290 268 290 280 239.5 c 128,-1,62
 292 189 292 189 319 151 c 128,-1,63
 346 113 346 113 389 90 c 128,-1,64
 432 67 432 67 494 67 c 0,41,42
EndSplineSet
EndChar

StartChar: q
Encoding: 113 113 84
Width: 1157
GlyphClass: 1
Flags: W
LayerCount: 2
Fore
SplineSet
745 -440 m 1,0,-1
 634 -440 l 1,1,-1
 781 159 l 1,2,3
 742 116 742 116 701 82.5 c 128,-1,4
 660 49 660 49 614 26.5 c 128,-1,5
 568 4 568 4 516.5 -8 c 128,-1,6
 465 -20 465 -20 406 -20 c 0,7,8
 324 -20 324 -20 265.5 9.5 c 128,-1,9
 207 39 207 39 170.5 89 c 128,-1,10
 134 139 134 139 117 205.5 c 128,-1,11
 100 272 100 272 100 346 c 0,12,13
 100 435 100 435 118.5 522 c 128,-1,14
 137 609 137 609 173 690 c 0,15,16
 204 759 204 759 249.5 825.5 c 128,-1,17
 295 892 295 892 353.5 944 c 128,-1,18
 412 996 412 996 483 1028 c 128,-1,19
 554 1060 554 1060 636 1060 c 0,20,21
 742 1060 742 1060 819 1016.5 c 128,-1,22
 896 973 896 973 939 874 c 1,23,24
 948 916 948 916 959.5 956.5 c 128,-1,25
 971 997 971 997 980 1039 c 1,26,-1
 1091 1039 l 1,27,28
 1003 667 1003 667 918.5 299 c 128,-1,29
 834 -69 834 -69 745 -440 c 1,0,-1
434 67 m 0,30,31
 510 67 510 67 573 96 c 128,-1,32
 636 125 636 125 687 174 c 128,-1,33
 738 223 738 223 776.5 287 c 128,-1,34
 815 351 815 351 840.5 421.5 c 128,-1,35
 866 492 866 492 879 563.5 c 128,-1,36
 892 635 892 635 892 699 c 0,37,38
 892 755 892 755 879.5 804.5 c 128,-1,39
 867 854 867 854 840 890.5 c 128,-1,40
 813 927 813 927 769.5 948 c 128,-1,41
 726 969 726 969 664 969 c 0,42,43
 589 969 589 969 525.5 940.5 c 128,-1,44
 462 912 462 912 411.5 864 c 128,-1,45
 361 816 361 816 322.5 752.5 c 128,-1,46
 284 689 284 689 258 619.5 c 128,-1,47
 232 550 232 550 219 478.5 c 128,-1,48
 206 407 206 407 206 343 c 0,49,50
 206 287 206 287 218 236.5 c 128,-1,51
 230 186 230 186 257 148.5 c 128,-1,52
 284 111 284 111 327.5 89 c 128,-1,53
 371 67 371 67 434 67 c 0,30,31
EndSplineSet
EndChar

StartChar: r
Encoding: 114 114 85
Width: 834
GlyphClass: 1
Flags: W
LayerCount: 2
Fore
SplineSet
185 0 m 1,0,-1
 72 0 l 1,1,-1
 312 1039 l 1,2,-1
 428 1039 l 1,3,4
 414 978 414 978 400 917.5 c 128,-1,5
 386 857 386 857 371 797 c 1,6,7
 385 831 385 831 402.5 863.5 c 128,-1,8
 420 896 420 896 446 923 c 0,9,10
 472 951 472 951 507 975 c 128,-1,11
 542 999 542 999 581.5 1016.5 c 128,-1,12
 621 1034 621 1034 662 1044 c 128,-1,13
 703 1054 703 1054 742 1054 c 256,14,15
 781 1054 781 1054 819.5 1044.5 c 128,-1,16
 858 1035 858 1035 891 1014 c 1,17,-1
 853 929 l 1,18,19
 830 953 830 953 798.5 962.5 c 128,-1,20
 767 972 767 972 735 972 c 0,21,22
 678 972 678 972 629 953 c 128,-1,23
 580 934 580 934 539 901 c 128,-1,24
 498 868 498 868 464 825 c 128,-1,25
 430 782 430 782 402.5 734 c 128,-1,26
 375 686 375 686 354 635.5 c 128,-1,27
 333 585 333 585 317 539 c 0,28,29
 290 458 290 458 271.5 376.5 c 128,-1,30
 253 295 253 295 234 212 c 2,31,-1
 185 0 l 1,0,-1
EndSplineSet
EndChar

StartChar: s
Encoding: 115 115 86
Width: 884
GlyphClass: 1
Flags: W
LayerCount: 2
Fore
SplineSet
368 -20 m 0,0,1
 315 -20 315 -20 259.5 -3.5 c 128,-1,2
 204 13 204 13 157.5 44 c 128,-1,3
 111 75 111 75 78.5 120 c 128,-1,4
 46 165 46 165 38 222 c 1,5,-1
 140 267 l 1,6,7
 162 176 162 176 228 130.5 c 128,-1,8
 294 85 294 85 385 85 c 0,9,10
 435 85 435 85 480.5 100 c 128,-1,11
 526 115 526 115 561 144 c 128,-1,12
 596 173 596 173 617 214.5 c 128,-1,13
 638 256 638 256 638 309 c 0,14,15
 638 352 638 352 614 382.5 c 128,-1,16
 590 413 590 413 551.5 435.5 c 128,-1,17
 513 458 513 458 466 475.5 c 128,-1,18
 419 493 419 493 373 510 c 128,-1,19
 327 527 327 527 287.5 547 c 128,-1,20
 248 567 248 567 224 595 c 0,21,22
 192 632 192 632 181 670 c 128,-1,23
 170 708 170 708 170 756 c 0,24,25
 170 829 170 829 196.5 884.5 c 128,-1,26
 223 940 223 940 268 977.5 c 128,-1,27
 313 1015 313 1015 373.5 1034.5 c 128,-1,28
 434 1054 434 1054 502 1054 c 0,29,30
 549 1054 549 1054 597 1041.5 c 128,-1,31
 645 1029 645 1029 687 1005 c 128,-1,32
 729 981 729 981 761.5 945 c 128,-1,33
 794 909 794 909 810 862 c 1,34,-1
 718 820 l 1,35,36
 706 858 706 858 683 883 c 128,-1,37
 660 908 660 908 629.5 924 c 128,-1,38
 599 940 599 940 564 946.5 c 128,-1,39
 529 953 529 953 493 953 c 0,40,41
 450 953 450 953 409 943 c 128,-1,42
 368 933 368 933 337 911 c 128,-1,43
 306 889 306 889 287 854 c 128,-1,44
 268 819 268 819 268 770 c 0,45,46
 268 724 268 724 288.5 694.5 c 128,-1,47
 309 665 309 665 343 644 c 128,-1,48
 377 623 377 623 420 608 c 128,-1,49
 463 593 463 593 508.5 577.5 c 128,-1,50
 554 562 554 562 597 542.5 c 128,-1,51
 640 523 640 523 674 493 c 128,-1,52
 708 463 708 463 728.5 420 c 128,-1,53
 749 377 749 377 749 313 c 0,54,55
 749 241 749 241 715 179.5 c 128,-1,56
 681 118 681 118 626 74 c 128,-1,57
 571 30 571 30 503.5 5 c 128,-1,58
 436 -20 436 -20 368 -20 c 0,0,1
EndSplineSet
Substitution2: "'hist' Historical Forms lookup 18 subtable" longs
Substitution2: "'aalt' Access All Alternates lookup 0 subtable" longs
EndChar

StartChar: t
Encoding: 116 116 87
Width: 662
GlyphClass: 1
Flags: W
LayerCount: 2
Fore
SplineSet
330 -22 m 0,0,1
 239 -22 239 -22 193.5 20.5 c 128,-1,2
 148 63 148 63 148 155 c 0,3,4
 148 186 148 186 152.5 216.5 c 128,-1,5
 157 247 157 247 164 277 c 2,6,-1
 316 956 l 1,7,-1
 158 956 l 1,8,-1
 177 1039 l 1,9,-1
 334 1039 l 1,10,-1
 386 1231 l 1,11,-1
 530 1336 l 1,12,-1
 451 1039 l 1,13,-1
 714 1039 l 1,14,-1
 696 956 l 1,15,-1
 431 956 l 1,16,17
 399 822 399 822 370.5 688.5 c 128,-1,18
 342 555 342 555 309 421 c 0,19,20
 294 360 294 360 276 297.5 c 128,-1,21
 258 235 258 235 258 172 c 0,22,23
 258 123 258 123 280 91.5 c 128,-1,24
 302 60 302 60 355 60 c 0,25,26
 381 60 381 60 405 66.5 c 128,-1,27
 429 73 429 73 453 81 c 1,28,-1
 441 -6 l 1,29,30
 413 -12 413 -12 386 -17 c 128,-1,31
 359 -22 359 -22 330 -22 c 0,0,1
EndSplineSet
EndChar

StartChar: u
Encoding: 117 117 88
Width: 1142
GlyphClass: 1
Flags: W
LayerCount: 2
Fore
SplineSet
400 -23 m 0,0,1
 261 -23 261 -23 194 52 c 128,-1,2
 127 127 127 127 127 263 c 0,3,4
 127 305 127 305 132.5 345.5 c 128,-1,5
 138 386 138 386 147 427 c 2,6,-1
 284 1039 l 1,7,-1
 392 1039 l 1,8,-1
 248 400 l 2,9,10
 240 363 240 363 234 326.5 c 128,-1,11
 228 290 228 290 228 252 c 0,12,13
 228 211 228 211 236.5 175.5 c 128,-1,14
 245 140 245 140 264 114 c 128,-1,15
 283 88 283 88 314.5 73 c 128,-1,16
 346 58 346 58 391 58 c 0,17,18
 468 58 468 58 539.5 90 c 128,-1,19
 611 122 611 122 666 174 c 0,20,21
 725 229 725 229 765.5 294 c 128,-1,22
 806 359 806 359 835 430.5 c 128,-1,23
 864 502 864 502 883 578.5 c 128,-1,24
 902 655 902 655 916.5 733 c 128,-1,25
 931 811 931 811 944 888.5 c 128,-1,26
 957 966 957 966 973 1039 c 1,27,-1
 1078 1039 l 1,28,-1
 840 0 l 1,29,-1
 733 0 l 1,30,-1
 784 206 l 1,31,32
 753 157 753 157 711.5 115 c 128,-1,33
 670 73 670 73 620.5 42.5 c 128,-1,34
 571 12 571 12 515 -5.5 c 128,-1,35
 459 -23 459 -23 400 -23 c 0,0,1
EndSplineSet
EndChar

StartChar: v
Encoding: 118 118 89
Width: 977
GlyphClass: 1
Flags: W
LayerCount: 2
Fore
SplineSet
424 0 m 1,0,-1
 320 0 l 1,1,-1
 187 1039 l 1,2,-1
 304 1039 l 1,3,-1
 400 139 l 1,4,-1
 918 1039 l 1,5,-1
 1037 1039 l 1,6,-1
 424 0 l 1,0,-1
EndSplineSet
EndChar

StartChar: w
Encoding: 119 119 90
Width: 1453
GlyphClass: 1
Flags: W
LayerCount: 2
Fore
SplineSet
987 0 m 1,0,-1
 871 0 l 1,1,-1
 814 882 l 1,2,-1
 341 0 l 1,3,-1
 230 0 l 1,4,-1
 192 1039 l 1,5,-1
 304 1039 l 1,6,-1
 331 159 l 1,7,-1
 793 1039 l 1,8,-1
 902 1039 l 1,9,-1
 959 162 l 1,10,-1
 1388 1039 l 1,11,-1
 1506 1039 l 1,12,-1
 987 0 l 1,0,-1
EndSplineSet
EndChar

StartChar: x
Encoding: 120 120 91
Width: 931
GlyphClass: 1
Flags: W
LayerCount: 2
Fore
SplineSet
754 0 m 1,0,-1
 621 0 l 1,1,-1
 450 453 l 1,2,-1
 64 0 l 1,3,-1
 -73 0 l 1,4,-1
 412 548 l 1,5,-1
 196 1039 l 1,6,-1
 326 1039 l 1,7,-1
 487 634 l 1,8,-1
 843 1039 l 1,9,-1
 971 1039 l 1,10,-1
 527 539 l 1,11,-1
 754 0 l 1,0,-1
EndSplineSet
EndChar

StartChar: y
Encoding: 121 121 92
Width: 1009
GlyphClass: 1
Flags: W
LayerCount: 2
Fore
SplineSet
178 -432 m 1,0,-1
 65 -432 l 1,1,-1
 342 5 l 1,2,-1
 185 1039 l 1,3,-1
 306 1039 l 1,4,-1
 419 137 l 1,5,-1
 944 1039 l 1,6,-1
 1064 1039 l 1,7,-1
 178 -432 l 1,0,-1
EndSplineSet
EndChar

StartChar: z
Encoding: 122 122 93
Width: 953
GlyphClass: 1
Flags: W
LayerCount: 2
Fore
SplineSet
740 0 m 1,0,-1
 -36 0 l 1,1,-1
 -17 88 l 1,2,-1
 842 956 l 1,3,-1
 215 956 l 1,4,-1
 232 1039 l 1,5,-1
 977 1039 l 1,6,-1
 957 940 l 1,7,-1
 110 91 l 1,8,-1
 761 91 l 1,9,-1
 740 0 l 1,0,-1
EndSplineSet
EndChar

StartChar: braceleft
Encoding: 123 123 94
Width: 600
GlyphClass: 1
Flags: W
LayerCount: 2
Fore
SplineSet
379 -107 m 1,0,-1
 370 -107 l 2,1,2
 369 -107 369 -107 368 -107 c 2,3,-1
 364 -107 l 2,4,5
 363 -107 363 -107 363 -107 c 1,6,-1
 362 -107 l 2,7,8
 361 -107 361 -107 361 -107 c 1,9,-1
 358 -107 l 2,10,11
 357 -107 357 -107 356 -107 c 2,12,-1
 346 -107 l 1,13,14
 346 -107 346 -107 345 -107 c 2,15,-1
 343 -107 l 1,16,17
 343 -107 343 -107 342 -107 c 2,18,-1
 337 -107 l 2,19,20
 314 -107 314 -107 289 -106 c 128,-1,21
 264 -105 264 -105 241.5 -101.5 c 128,-1,22
 219 -98 219 -98 207 -90 c 0,23,24
 176 -68 176 -68 156.5 -36.5 c 128,-1,25
 137 -5 137 -5 137 33 c 0,26,27
 137 50 137 50 139.5 66 c 128,-1,28
 142 82 142 82 146 99 c 2,29,-1
 207 372 l 2,30,31
 210 386 210 386 214.5 401.5 c 128,-1,32
 219 417 219 417 223 433.5 c 128,-1,33
 227 450 227 450 230 465.5 c 128,-1,34
 233 481 233 481 233 494 c 0,35,36
 233 515 233 515 223.5 531 c 128,-1,37
 214 547 214 547 200 560 c 128,-1,38
 186 573 186 573 168.5 582 c 128,-1,39
 151 591 151 591 134 598 c 1,40,-1
 144 691 l 1,41,42
 221 708 221 708 263.5 754.5 c 128,-1,43
 306 801 306 801 325 876 c 0,44,45
 349 971 349 971 369.5 1065.5 c 128,-1,46
 390 1160 390 1160 412 1256 c 0,47,48
 419 1285 419 1285 426.5 1315 c 128,-1,49
 434 1345 434 1345 448 1371 c 0,50,51
 464 1403 464 1403 494 1428 c 0,52,53
 519 1448 519 1448 548.5 1457.5 c 128,-1,54
 578 1467 578 1467 609 1471 c 128,-1,55
 640 1475 640 1475 672 1475 c 2,56,-1
 733 1475 l 1,57,-1
 731 1422 l 1,58,59
 725 1424 725 1424 720 1424 c 0,60,61
 718 1424 718 1424 714 1423.5 c 128,-1,62
 710 1423 710 1423 702 1423 c 0,63,64
 678 1423 678 1423 651.5 1420 c 128,-1,65
 625 1417 625 1417 601 1408 c 128,-1,66
 577 1399 577 1399 558.5 1382.5 c 128,-1,67
 540 1366 540 1366 533 1339 c 0,68,69
 510 1247 510 1247 490.5 1155 c 128,-1,70
 471 1063 471 1063 450 971 c 0,71,72
 440 928 440 928 430.5 884.5 c 128,-1,73
 421 841 421 841 405 801 c 0,74,75
 394 775 394 775 383 759.5 c 128,-1,76
 372 744 372 744 353 725 c 0,77,78
 337 709 337 709 317 697 c 128,-1,79
 297 685 297 685 275 675.5 c 128,-1,80
 253 666 253 666 231 658 c 128,-1,81
 209 650 209 650 188 642 c 1,82,83
 210 628 210 628 236 613 c 128,-1,84
 262 598 262 598 284.5 579.5 c 128,-1,85
 307 561 307 561 322 537.5 c 128,-1,86
 337 514 337 514 337 484 c 1,87,-1
 316 409 l 2,88,89
 300 346 300 346 285.5 283.5 c 128,-1,90
 271 221 271 221 258 157 c 0,91,92
 252 128 252 128 245 97.5 c 128,-1,93
 238 67 238 67 238 38 c 0,94,95
 238 -15 238 -15 269 -36 c 128,-1,96
 300 -57 300 -57 349 -57 c 0,97,98
 367 -57 367 -57 382 -51 c 1,99,100
 382 -65 382 -65 381.5 -79 c 128,-1,101
 381 -93 381 -93 379 -107 c 1,0,-1
EndSplineSet
EndChar

StartChar: bar
Encoding: 124 124 95
Width: 633
GlyphClass: 1
Flags: W
LayerCount: 2
Fore
SplineSet
120 -514 m 1,0,-1
 45 -514 l 1,1,-1
 518 1535 l 1,2,-1
 594 1535 l 1,3,-1
 120 -514 l 1,0,-1
EndSplineSet
EndChar

StartChar: braceright
Encoding: 125 125 96
Width: 600
GlyphClass: 1
Flags: W
LayerCount: 2
Fore
SplineSet
-48 -107 m 1,0,-1
 -46 -55 l 1,1,2
 -41 -57 -41 -57 -37 -57 c 2,3,-1
 -36 -57 l 1,4,5
 -36 -57 -36 -57 -36 -57 c 1,6,-1
 -35 -57 l 1,7,8
 -35 -57 -35 -57 -34 -57 c 2,9,-1
 -30 -57 l 2,10,11
 -29 -57 -29 -57 -29 -57 c 1,12,-1
 -28 -57 l 2,13,14
 54 -57 54 -57 104.5 -13 c 128,-1,15
 155 31 155 31 173 109 c 2,16,-1
 257 474 l 2,17,18
 266 511 266 511 290.5 537.5 c 128,-1,19
 315 564 315 564 347 583 c 128,-1,20
 379 602 379 602 415.5 615 c 128,-1,21
 452 628 452 628 484 638 c 1,22,23
 460 648 460 648 433.5 662 c 128,-1,24
 407 676 407 676 385 695.5 c 128,-1,25
 363 715 363 715 348.5 739.5 c 128,-1,26
 334 764 334 764 334 794 c 0,27,28
 334 823 334 823 341.5 850.5 c 128,-1,29
 349 878 349 878 355 906 c 2,30,-1
 400 1096 l 1,31,-1
 442 1279 l 2,32,33
 447 1302 447 1302 453.5 1324 c 128,-1,34
 460 1346 460 1346 460 1369 c 0,35,36
 460 1388 460 1388 448 1399 c 128,-1,37
 436 1410 436 1410 419 1415 c 128,-1,38
 402 1420 402 1420 383.5 1421.5 c 128,-1,39
 365 1423 365 1423 351 1423 c 0,40,41
 339 1423 339 1423 327 1422.5 c 128,-1,42
 315 1422 315 1422 304 1420 c 1,43,-1
 306 1474 l 1,44,-1
 325 1474 l 2,45,46
 362 1474 362 1474 402 1472.5 c 128,-1,47
 442 1471 442 1471 475.5 1459 c 128,-1,48
 509 1447 509 1447 530.5 1420.5 c 128,-1,49
 552 1394 552 1394 552 1344 c 0,50,51
 552 1327 552 1327 549.5 1309.5 c 128,-1,52
 547 1292 547 1292 543 1275 c 2,53,-1
 443 844 l 2,54,55
 437 822 437 822 437 798 c 0,56,57
 437 750 437 750 462.5 724 c 128,-1,58
 488 698 488 698 533 687 c 1,59,-1
 521 594 l 1,60,61
 497 586 497 586 471 574 c 128,-1,62
 445 562 445 562 421.5 546 c 128,-1,63
 398 530 398 530 380 509 c 128,-1,64
 362 488 362 488 356 461 c 0,65,66
 332 361 332 361 308 261 c 128,-1,67
 284 161 284 161 262 60 c 0,68,69
 261 54 261 54 256 39 c 128,-1,70
 251 24 251 24 245.5 8.5 c 128,-1,71
 240 -7 240 -7 234.5 -20.5 c 128,-1,72
 229 -34 229 -34 225 -38 c 0,73,74
 194 -67 194 -67 162 -81 c 128,-1,75
 130 -95 130 -95 96.5 -101 c 128,-1,76
 63 -107 63 -107 27 -107 c 2,77,-1
 24 -107 l 2,78,79
 21 -107 21 -107 19 -107 c 2,80,-1
 8 -107 l 2,81,82
 6 -107 6 -107 5 -107 c 2,83,-1
 2 -107 l 2,84,85
 1 -107 1 -107 0 -107 c 2,86,-1
 -7 -107 l 2,87,88
 -9 -107 -9 -107 -10 -107 c 2,89,-1
 -30 -107 l 2,90,91
 -31 -107 -31 -107 -33 -107 c 2,92,-1
 -36 -107 l 2,93,94
 -37 -107 -37 -107 -38 -107 c 2,95,-1
 -48 -107 l 1,0,-1
EndSplineSet
EndChar

StartChar: asciitilde
Encoding: 126 126 97
Width: 1175
GlyphClass: 1
Flags: W
LayerCount: 2
Fore
SplineSet
747 381 m 0,0,1
 708 381 708 381 677.5 396 c 128,-1,2
 647 411 647 411 621 433.5 c 128,-1,3
 595 456 595 456 572 482 c 128,-1,4
 549 508 549 508 525 530.5 c 128,-1,5
 501 553 501 553 474 568 c 128,-1,6
 447 583 447 583 413 583 c 0,7,8
 378 583 378 583 355.5 566 c 128,-1,9
 333 549 333 549 320.5 523.5 c 128,-1,10
 308 498 308 498 303 467 c 128,-1,11
 298 436 298 436 298 408 c 1,12,-1
 233 408 l 1,13,14
 233 450 233 450 242.5 492.5 c 128,-1,15
 252 535 252 535 273 569.5 c 128,-1,16
 294 604 294 604 328 626 c 128,-1,17
 362 648 362 648 411 648 c 0,18,19
 457 648 457 648 490 633.5 c 128,-1,20
 523 619 523 619 549.5 597 c 128,-1,21
 576 575 576 575 598 549 c 128,-1,22
 620 523 620 523 643 501 c 128,-1,23
 666 479 666 479 692.5 464.5 c 128,-1,24
 719 450 719 450 754 450 c 0,25,26
 792 450 792 450 815 469 c 128,-1,27
 838 488 838 488 850.5 516.5 c 128,-1,28
 863 545 863 545 867 578.5 c 128,-1,29
 871 612 871 612 871 642 c 1,30,-1
 944 642 l 1,31,32
 944 594 944 594 934 547.5 c 128,-1,33
 924 501 924 501 901 464 c 128,-1,34
 878 427 878 427 840.5 404 c 128,-1,35
 803 381 803 381 747 381 c 0,0,1
EndSplineSet
EndChar

StartChar: exclamdown
Encoding: 161 161 99
Width: 638
GlyphClass: 1
Flags: W
LayerCount: 2
Fore
SplineSet
475 838 m 1,0,-1
 314 838 l 1,1,-1
 351 997 l 1,2,-1
 512 997 l 1,3,-1
 475 838 l 1,0,-1
168 -438 m 1,4,-1
 32 -438 l 1,5,-1
 309 635 l 1,6,-1
 389 635 l 1,7,-1
 168 -438 l 1,4,-1
EndSplineSet
EndChar

StartChar: cent
Encoding: 162 162 100
Width: 1160
GlyphClass: 1
Flags: W
LayerCount: 2
Fore
SplineSet
492 -206 m 1,0,-1
 414 -206 l 1,1,-1
 466 -14 l 1,2,3
 390 -7 390 -7 335.5 23 c 128,-1,4
 281 53 281 53 246 100.5 c 128,-1,5
 211 148 211 148 194.5 210.5 c 128,-1,6
 178 273 178 273 178 344 c 0,7,8
 178 418 178 418 194 493.5 c 128,-1,9
 210 569 210 569 240.5 640.5 c 128,-1,10
 271 712 271 712 316 775.5 c 128,-1,11
 361 839 361 839 418 888.5 c 128,-1,12
 475 938 475 938 543.5 970 c 128,-1,13
 612 1002 612 1002 691 1010 c 1,14,-1
 740 1199 l 1,15,-1
 815 1199 l 1,16,-1
 766 1011 l 1,17,18
 818 1005 818 1005 864 985 c 128,-1,19
 910 965 910 965 947 932.5 c 128,-1,20
 984 900 984 900 1010 857 c 128,-1,21
 1036 814 1036 814 1047 763 c 1,22,-1
 927 725 l 1,23,24
 925 766 925 766 907.5 799 c 128,-1,25
 890 832 890 832 861.5 854.5 c 128,-1,26
 833 877 833 877 796.5 889 c 128,-1,27
 760 901 760 901 721 901 c 0,28,29
 654 901 654 901 597 876 c 128,-1,30
 540 851 540 851 493 808.5 c 128,-1,31
 446 766 446 766 410 710 c 128,-1,32
 374 654 374 654 349.5 592 c 128,-1,33
 325 530 325 530 312.5 466 c 128,-1,34
 300 402 300 402 300 344 c 0,35,36
 300 290 300 290 311 243.5 c 128,-1,37
 322 197 322 197 347 163.5 c 128,-1,38
 372 130 372 130 413 111 c 128,-1,39
 454 92 454 92 514 92 c 0,40,41
 559 92 559 92 605 106.5 c 128,-1,42
 651 121 651 121 692 146 c 128,-1,43
 733 171 733 171 766.5 205.5 c 128,-1,44
 800 240 800 240 821 280 c 1,45,-1
 915 224 l 1,46,47
 855 120 855 120 757.5 56.5 c 128,-1,48
 660 -7 660 -7 539 -15 c 1,49,-1
 492 -206 l 1,0,-1
EndSplineSet
EndChar

StartChar: sterling
Encoding: 163 163 101
Width: 1266
GlyphClass: 1
Flags: W
LayerCount: 2
Fore
SplineSet
1067 0 m 1,0,-1
 63 0 l 1,1,2
 68 18 68 18 71.5 36.5 c 128,-1,3
 75 55 75 55 80 73 c 1,4,5
 162 135 162 135 227.5 193 c 128,-1,6
 293 251 293 251 338.5 317.5 c 128,-1,7
 384 384 384 384 408.5 466 c 128,-1,8
 433 548 433 548 433 657 c 1,9,-1
 214 657 l 1,10,-1
 236 749 l 1,11,-1
 433 749 l 1,12,13
 428 781 428 781 425 812 c 128,-1,14
 422 843 422 843 422 875 c 0,15,16
 422 941 422 941 435.5 1007.5 c 128,-1,17
 449 1074 449 1074 475 1135.5 c 128,-1,18
 501 1197 501 1197 540 1250.5 c 128,-1,19
 579 1304 579 1304 629.5 1343.5 c 128,-1,20
 680 1383 680 1383 742.5 1405.5 c 128,-1,21
 805 1428 805 1428 878 1428 c 0,22,23
 941 1428 941 1428 995 1408 c 128,-1,24
 1049 1388 1049 1388 1091 1351.5 c 128,-1,25
 1133 1315 1133 1315 1161 1264.5 c 128,-1,26
 1189 1214 1189 1214 1199 1152 c 1,27,28
 1176 1144 1176 1144 1151.5 1138.5 c 128,-1,29
 1127 1133 1127 1133 1103 1127 c 1,30,31
 1097 1171 1097 1171 1077.5 1208.5 c 128,-1,32
 1058 1246 1058 1246 1028 1273 c 128,-1,33
 998 1300 998 1300 959 1315 c 128,-1,34
 920 1330 920 1330 875 1330 c 0,35,36
 781 1330 781 1330 712.5 1287 c 128,-1,37
 644 1244 644 1244 600 1175.5 c 128,-1,38
 556 1107 556 1107 535 1023 c 128,-1,39
 514 939 514 939 514 857 c 0,40,41
 514 830 514 830 515.5 803 c 128,-1,42
 517 776 517 776 521 749 c 1,43,-1
 995 749 l 1,44,-1
 973 657 l 1,45,-1
 524 657 l 1,46,47
 524 557 524 557 509 478 c 128,-1,48
 494 399 494 399 459.5 333 c 128,-1,49
 425 267 425 267 369.5 209.5 c 128,-1,50
 314 152 314 152 232 94 c 1,51,-1
 1091 98 l 1,52,-1
 1067 0 l 1,0,-1
EndSplineSet
EndChar

StartChar: currency
Encoding: 164 164 102
Width: 1117
GlyphClass: 1
Flags: W
LayerCount: 2
Fore
SplineSet
862 184 m 1,0,-1
 782 284 l 1,1,2
 718 241 718 241 649 217.5 c 128,-1,3
 580 194 580 194 502 194 c 0,4,5
 429 194 429 194 364 216 c 128,-1,6
 299 238 299 238 248 292 c 1,7,-1
 118 184 l 1,8,9
 102 203 102 203 88 223 c 128,-1,10
 74 243 74 243 57 262 c 1,11,-1
 191 368 l 1,12,13
 146 451 146 451 146 545 c 0,14,15
 146 648 146 648 189.5 739.5 c 128,-1,16
 233 831 233 831 308 900 c 1,17,-1
 230 996 l 1,18,-1
 320 1076 l 1,19,-1
 397 974 l 1,20,21
 461 1017 461 1017 532.5 1042 c 128,-1,22
 604 1067 604 1067 682 1067 c 0,23,24
 754 1067 754 1067 817 1043.5 c 128,-1,25
 880 1020 880 1020 932 969 c 1,26,-1
 1060 1074 l 1,27,-1
 1119 1001 l 1,28,-1
 993 896 l 1,29,30
 1037 814 1037 814 1037 721 c 0,31,32
 1037 670 1037 670 1025 620.5 c 128,-1,33
 1013 571 1013 571 991.5 525 c 128,-1,34
 970 479 970 479 940 437 c 128,-1,35
 910 395 910 395 875 359 c 1,36,-1
 952 263 l 1,37,38
 929 243 929 243 907 223 c 128,-1,39
 885 203 885 203 862 184 c 1,0,-1
492 297 m 256,40,41
 545 297 545 297 598 313.5 c 128,-1,42
 651 330 651 330 700 359 c 128,-1,43
 749 388 749 388 791.5 427.5 c 128,-1,44
 834 467 834 467 866 514 c 128,-1,45
 898 561 898 561 916 613 c 128,-1,46
 934 665 934 665 934 719 c 0,47,48
 934 775 934 775 915 819.5 c 128,-1,49
 896 864 896 864 862 895.5 c 128,-1,50
 828 927 828 927 781.5 944 c 128,-1,51
 735 961 735 961 681 961 c 0,52,53
 628 961 628 961 574.5 944.5 c 128,-1,54
 521 928 521 928 472 898 c 128,-1,55
 423 868 423 868 381 827.5 c 128,-1,56
 339 787 339 787 308 739.5 c 128,-1,57
 277 692 277 692 259.5 639 c 128,-1,58
 242 586 242 586 242 532 c 0,59,60
 242 477 242 477 261 433 c 128,-1,61
 280 389 280 389 313.5 359 c 128,-1,62
 347 329 347 329 393 313 c 128,-1,63
 439 297 439 297 492 297 c 256,40,41
EndSplineSet
EndChar

StartChar: yen
Encoding: 165 165 103
Width: 1318
GlyphClass: 1
Flags: W
LayerCount: 2
Fore
SplineSet
601 0 m 1,0,-1
 490 0 l 1,1,-1
 567 340 l 1,2,-1
 267 340 l 1,3,-1
 285 423 l 1,4,-1
 586 423 l 1,5,-1
 616 549 l 1,6,-1
 316 549 l 1,7,-1
 335 631 l 1,8,-1
 597 631 l 1,9,-1
 299 1413 l 1,10,-1
 424 1413 l 1,11,-1
 703 694 l 1,12,-1
 1317 1413 l 1,13,-1
 1445 1413 l 1,14,-1
 788 633 l 1,15,-1
 1049 633 l 1,16,-1
 1030 549 l 1,17,-1
 727 549 l 1,18,-1
 697 423 l 1,19,-1
 1000 423 l 1,20,-1
 981 340 l 1,21,-1
 678 340 l 1,22,-1
 601 0 l 1,0,-1
EndSplineSet
EndChar

StartChar: brokenbar
Encoding: 166 166 104
Width: 620
GlyphClass: 1
Flags: W
LayerCount: 2
Fore
SplineSet
396 734 m 1,0,-1
 333 734 l 1,1,-1
 504 1475 l 1,2,-1
 567 1475 l 1,3,-1
 396 734 l 1,0,-1
155 -308 m 1,4,-1
 92 -308 l 1,5,-1
 259 416 l 1,6,-1
 322 416 l 1,7,-1
 155 -308 l 1,4,-1
EndSplineSet
EndChar

StartChar: section
Encoding: 167 167 105
Width: 1146
GlyphClass: 1
Flags: W
LayerCount: 2
Fore
SplineSet
469 -18 m 0,0,1
 399 -18 399 -18 339.5 -2 c 128,-1,2
 280 14 280 14 235 48 c 128,-1,3
 190 82 190 82 162.5 135 c 128,-1,4
 135 188 135 188 129 262 c 1,5,-1
 229 286 l 1,6,7
 229 228 229 228 247 188.5 c 128,-1,8
 265 149 265 149 296.5 125 c 128,-1,9
 328 101 328 101 372.5 90.5 c 128,-1,10
 417 80 417 80 469 80 c 0,11,12
 508 80 508 80 548 86 c 128,-1,13
 588 92 588 92 624.5 105.5 c 128,-1,14
 661 119 661 119 693 141.5 c 128,-1,15
 725 164 725 164 749 198 c 0,16,17
 756 207 756 207 762.5 220 c 128,-1,18
 769 233 769 233 774.5 247 c 128,-1,19
 780 261 780 261 783 275 c 128,-1,20
 786 289 786 289 786 301 c 0,21,22
 786 312 786 312 785 324 c 128,-1,23
 784 336 784 336 782 347 c 0,24,25
 776 374 776 374 747.5 392 c 128,-1,26
 719 410 719 410 677 423.5 c 128,-1,27
 635 437 635 437 585.5 448 c 128,-1,28
 536 459 536 459 488.5 470.5 c 128,-1,29
 441 482 441 482 400.5 497 c 128,-1,30
 360 512 360 512 337 534 c 1,31,-1
 341 531 l 1,32,33
 312 560 312 560 295 592.5 c 128,-1,34
 278 625 278 625 278 667 c 0,35,36
 278 711 278 711 292 752.5 c 128,-1,37
 306 794 306 794 329 830.5 c 128,-1,38
 352 867 352 867 383.5 899 c 128,-1,39
 415 931 415 931 449 955 c 1,40,41
 412 979 412 979 396 1019.5 c 128,-1,42
 380 1060 380 1060 380 1103 c 0,43,44
 380 1177 380 1177 415.5 1238 c 128,-1,45
 451 1299 451 1299 507 1342.5 c 128,-1,46
 563 1386 563 1386 632.5 1410 c 128,-1,47
 702 1434 702 1434 770 1434 c 0,48,49
 907 1434 907 1434 983.5 1365 c 128,-1,50
 1060 1296 1060 1296 1077 1161 c 1,51,52
 1025 1160 1025 1160 972 1155 c 1,53,54
 967 1250 967 1250 912.5 1292 c 128,-1,55
 858 1334 858 1334 767 1334 c 0,56,57
 719 1334 719 1334 667.5 1318.5 c 128,-1,58
 616 1303 616 1303 573.5 1273 c 128,-1,59
 531 1243 531 1243 503.5 1200 c 128,-1,60
 476 1157 476 1157 476 1103 c 0,61,62
 476 1067 476 1067 498 1044.5 c 128,-1,63
 520 1022 520 1022 555.5 1007 c 128,-1,64
 591 992 591 992 636.5 982.5 c 128,-1,65
 682 973 682 973 730 963 c 128,-1,66
 778 953 778 953 823.5 938.5 c 128,-1,67
 869 924 869 924 904.5 900.5 c 128,-1,68
 940 877 940 877 962 841 c 128,-1,69
 984 805 984 805 984 750 c 0,70,71
 984 708 984 708 971.5 666 c 128,-1,72
 959 624 959 624 937.5 586.5 c 128,-1,73
 916 549 916 549 885.5 517.5 c 128,-1,74
 855 486 855 486 819 464 c 1,75,76
 885 409 885 409 885 320 c 0,77,78
 885 236 885 236 848.5 172.5 c 128,-1,79
 812 109 812 109 752.5 67 c 128,-1,80
 693 25 693 25 618.5 3.5 c 128,-1,81
 544 -18 544 -18 469 -18 c 0,0,1
703 512 m 1,82,83
 738 525 738 525 771 547 c 128,-1,84
 804 569 804 569 829.5 599 c 128,-1,85
 855 629 855 629 870.5 664.5 c 128,-1,86
 886 700 886 700 886 740 c 0,87,88
 886 770 886 770 873.5 793 c 128,-1,89
 861 816 861 816 840.5 833 c 128,-1,90
 820 850 820 850 793.5 861.5 c 128,-1,91
 767 873 767 873 739 881 c 128,-1,92
 711 889 711 889 683 894 c 128,-1,93
 655 899 655 899 632 903 c 0,94,95
 617 905 617 905 601.5 907 c 128,-1,96
 586 909 586 909 572 915 c 1,97,98
 538 902 538 902 503.5 880 c 128,-1,99
 469 858 469 858 441 828.5 c 128,-1,100
 413 799 413 799 395.5 763.5 c 128,-1,101
 378 728 378 728 378 689 c 0,102,103
 378 655 378 655 395.5 630.5 c 128,-1,104
 413 606 413 606 441 588.5 c 128,-1,105
 469 571 469 571 504.5 559.5 c 128,-1,106
 540 548 540 548 576.5 540 c 128,-1,107
 613 532 613 532 646 525.5 c 128,-1,108
 679 519 679 519 703 512 c 1,82,83
EndSplineSet
EndChar

StartChar: copyright
Encoding: 169 169 107
Width: 1818
GlyphClass: 1
Flags: W
LayerCount: 2
Fore
SplineSet
955 -51 m 256,0,1
 852 -51 852 -51 757 -23 c 128,-1,2
 662 5 662 5 580 55 c 128,-1,3
 498 105 498 105 431 175 c 128,-1,4
 364 245 364 245 317 329 c 128,-1,5
 270 413 270 413 244 509 c 128,-1,6
 218 605 218 605 218 707 c 256,7,8
 218 809 218 809 244 904.5 c 128,-1,9
 270 1000 270 1000 317 1084.5 c 128,-1,10
 364 1169 364 1169 431 1238.5 c 128,-1,11
 498 1308 498 1308 580 1358.5 c 128,-1,12
 662 1409 662 1409 757 1436.5 c 128,-1,13
 852 1464 852 1464 955 1464 c 256,14,15
 1058 1464 1058 1464 1152.5 1436 c 128,-1,16
 1247 1408 1247 1408 1329.5 1358 c 128,-1,17
 1412 1308 1412 1308 1479.5 1238 c 128,-1,18
 1547 1168 1547 1168 1594.5 1084 c 128,-1,19
 1642 1000 1642 1000 1668.5 904 c 128,-1,20
 1695 808 1695 808 1695 707 c 0,21,22
 1695 605 1695 605 1669 509 c 128,-1,23
 1643 413 1643 413 1595 329 c 128,-1,24
 1547 245 1547 245 1480 175 c 128,-1,25
 1413 105 1413 105 1330.5 55 c 128,-1,26
 1248 5 1248 5 1153 -23 c 128,-1,27
 1058 -51 1058 -51 955 -51 c 256,0,1
955 34 m 0,28,29
 1046 34 1046 34 1129.5 59 c 128,-1,30
 1213 84 1213 84 1285.5 129 c 128,-1,31
 1358 174 1358 174 1417.5 236.5 c 128,-1,32
 1477 299 1477 299 1519.5 374 c 128,-1,33
 1562 449 1562 449 1585 533.5 c 128,-1,34
 1608 618 1608 618 1608 707 c 0,35,36
 1608 795 1608 795 1584.5 879 c 128,-1,37
 1561 963 1561 963 1518.5 1038 c 128,-1,38
 1476 1113 1476 1113 1416 1175.5 c 128,-1,39
 1356 1238 1356 1238 1283.5 1283 c 128,-1,40
 1211 1328 1211 1328 1128 1353.5 c 128,-1,41
 1045 1379 1045 1379 955 1379 c 256,42,43
 865 1379 865 1379 781.5 1354 c 128,-1,44
 698 1329 698 1329 625.5 1283.5 c 128,-1,45
 553 1238 553 1238 493.5 1175.5 c 128,-1,46
 434 1113 434 1113 391.5 1038.5 c 128,-1,47
 349 964 349 964 325.5 879.5 c 128,-1,48
 302 795 302 795 302 707 c 256,49,50
 302 619 302 619 325.5 534.5 c 128,-1,51
 349 450 349 450 391.5 375 c 128,-1,52
 434 300 434 300 493.5 237.5 c 128,-1,53
 553 175 553 175 625.5 130 c 128,-1,54
 698 85 698 85 781.5 59.5 c 128,-1,55
 865 34 865 34 955 34 c 0,28,29
973 316 m 0,56,57
 886 316 886 316 822.5 347 c 128,-1,58
 759 378 759 378 717.5 431 c 128,-1,59
 676 484 676 484 656 554.5 c 128,-1,60
 636 625 636 625 636 705 c 0,61,62
 636 784 636 784 656.5 854.5 c 128,-1,63
 677 925 677 925 719 978 c 128,-1,64
 761 1031 761 1031 824.5 1062 c 128,-1,65
 888 1093 888 1093 973 1093 c 0,66,67
 1015 1093 1015 1093 1057.5 1082 c 128,-1,68
 1100 1071 1100 1071 1138 1050 c 128,-1,69
 1176 1029 1176 1029 1207 999 c 128,-1,70
 1238 969 1238 969 1258 930 c 1,71,-1
 1180 897 l 1,72,73
 1165 924 1165 924 1142 945 c 128,-1,74
 1119 966 1119 966 1091.5 980 c 128,-1,75
 1064 994 1064 994 1033.5 1001.5 c 128,-1,76
 1003 1009 1003 1009 973 1009 c 0,77,78
 907 1009 907 1009 859 984 c 128,-1,79
 811 959 811 959 779.5 917 c 128,-1,80
 748 875 748 875 732.5 820 c 128,-1,81
 717 765 717 765 717 705 c 256,82,83
 717 645 717 645 732 590.5 c 128,-1,84
 747 536 747 536 778 494 c 128,-1,85
 809 452 809 452 857 427 c 128,-1,86
 905 402 905 402 971 402 c 0,87,88
 1001 402 1001 402 1032 409.5 c 128,-1,89
 1063 417 1063 417 1091 431 c 128,-1,90
 1119 445 1119 445 1142 466.5 c 128,-1,91
 1165 488 1165 488 1178 516 c 1,92,-1
 1258 482 l 1,93,94
 1239 441 1239 441 1208.5 410 c 128,-1,95
 1178 379 1178 379 1140.5 358 c 128,-1,96
 1103 337 1103 337 1060 326.5 c 128,-1,97
 1017 316 1017 316 973 316 c 0,56,57
EndSplineSet
EndChar

StartChar: ordfeminine
Encoding: 170 170 108
Width: 1055
GlyphClass: 2
Flags: W
LayerCount: 2
Fore
SplineSet
502 712 m 0,0,1
 464 712 464 712 430 722.5 c 128,-1,2
 396 733 396 733 370.5 753.5 c 128,-1,3
 345 774 345 774 330 805 c 128,-1,4
 315 836 315 836 315 877 c 0,5,6
 315 943 315 943 340 989 c 128,-1,7
 365 1035 365 1035 406.5 1063.5 c 128,-1,8
 448 1092 448 1092 502 1105.5 c 128,-1,9
 556 1119 556 1119 614 1120 c 2,10,-1
 843 1126 l 1,11,12
 849 1150 849 1150 852.5 1175 c 128,-1,13
 856 1200 856 1200 856 1225 c 0,14,15
 856 1358 856 1358 723 1358 c 0,16,17
 696 1358 696 1358 665.5 1349.5 c 128,-1,18
 635 1341 635 1341 605.5 1326.5 c 128,-1,19
 576 1312 576 1312 551 1293 c 128,-1,20
 526 1274 526 1274 509 1253 c 1,21,-1
 438 1309 l 1,22,23
 500 1371 500 1371 568 1402.5 c 128,-1,24
 636 1434 636 1434 724 1434 c 0,25,26
 772 1434 772 1434 813 1422 c 128,-1,27
 854 1410 854 1410 883.5 1385.5 c 128,-1,28
 913 1361 913 1361 929.5 1323 c 128,-1,29
 946 1285 946 1285 946 1234 c 0,30,31
 946 1213 946 1213 943.5 1192.5 c 128,-1,32
 941 1172 941 1172 936 1151 c 2,33,-1
 837 726 l 1,34,-1
 760 726 l 1,35,-1
 788 858 l 1,36,37
 757 822 757 822 727 794.5 c 128,-1,38
 697 767 697 767 663.5 748.5 c 128,-1,39
 630 730 630 730 591 721 c 128,-1,40
 552 712 552 712 502 712 c 0,0,1
526 792 m 0,41,42
 576 792 576 792 625 814.5 c 128,-1,43
 674 837 674 837 715 873 c 128,-1,44
 756 909 756 909 785 955 c 128,-1,45
 814 1001 814 1001 825 1049 c 1,46,47
 799 1048 799 1048 772.5 1047.5 c 128,-1,48
 746 1047 746 1047 720 1047 c 0,49,50
 680 1046 680 1046 640.5 1045.5 c 128,-1,51
 601 1045 601 1045 564 1037 c 128,-1,52
 527 1029 527 1029 495 1009.5 c 128,-1,53
 463 990 463 990 439 952 c 0,54,55
 418 921 418 921 418 882 c 0,56,57
 418 860 418 860 427.5 843 c 128,-1,58
 437 826 437 826 452 815 c 128,-1,59
 467 804 467 804 486.5 798 c 128,-1,60
 506 792 506 792 526 792 c 0,41,42
EndSplineSet
EndChar

StartChar: guillemotleft
Encoding: 171 171 109
Width: 984
GlyphClass: 1
Flags: W
LayerCount: 2
Fore
SplineSet
368 203 m 1,0,-1
 98 511 l 1,1,-1
 507 817 l 1,2,-1
 480 685 l 1,3,-1
 237 512 l 1,4,-1
 395 337 l 1,5,-1
 368 203 l 1,0,-1
734 202 m 1,6,-1
 463 511 l 1,7,-1
 874 817 l 1,8,-1
 846 685 l 1,9,-1
 601 512 l 1,10,-1
 763 337 l 1,11,-1
 734 202 l 1,6,-1
EndSplineSet
EndChar

StartChar: logicalnot
Encoding: 172 172 110
Width: 1294
GlyphClass: 1
Flags: W
LayerCount: 2
Fore
SplineSet
1018 292 m 1,0,-1
 921 292 l 1,1,-1
 921 700 l 1,2,-1
 172 700 l 1,3,-1
 172 794 l 1,4,-1
 1018 794 l 1,5,-1
 1018 292 l 1,0,-1
EndSplineSet
EndChar

StartChar: uni00AD
Encoding: 173 173 111
Width: 976
GlyphClass: 1
Flags: W
LayerCount: 2
Fore
SplineSet
825 610 m 1,0,-1
 201 610 l 1,1,-1
 220 689 l 1,2,-1
 844 689 l 1,3,-1
 825 610 l 1,0,-1
EndSplineSet
EndChar

StartChar: registered
Encoding: 174 174 112
Width: 1818
GlyphClass: 1
Flags: W
LayerCount: 2
Fore
SplineSet
958 -49 m 0,0,1
 854 -49 854 -49 759 -21.5 c 128,-1,2
 664 6 664 6 582 56.5 c 128,-1,3
 500 107 500 107 433.5 176.5 c 128,-1,4
 367 246 367 246 319.5 330.5 c 128,-1,5
 272 415 272 415 246 511 c 128,-1,6
 220 607 220 607 220 709 c 256,7,8
 220 811 220 811 246 907 c 128,-1,9
 272 1003 272 1003 319.5 1087 c 128,-1,10
 367 1171 367 1171 434 1241 c 128,-1,11
 501 1311 501 1311 583 1361 c 128,-1,12
 665 1411 665 1411 760 1438.5 c 128,-1,13
 855 1466 855 1466 958 1466 c 256,14,15
 1061 1466 1061 1466 1155.5 1438 c 128,-1,16
 1250 1410 1250 1410 1332 1359.5 c 128,-1,17
 1414 1309 1414 1309 1481.5 1239 c 128,-1,18
 1549 1169 1549 1169 1596.5 1085 c 128,-1,19
 1644 1001 1644 1001 1670.5 905.5 c 128,-1,20
 1697 810 1697 810 1697 709 c 0,21,22
 1697 607 1697 607 1671 511.5 c 128,-1,23
 1645 416 1645 416 1597 331.5 c 128,-1,24
 1549 247 1549 247 1482 177 c 128,-1,25
 1415 107 1415 107 1333 57 c 128,-1,26
 1251 7 1251 7 1156 -21 c 128,-1,27
 1061 -49 1061 -49 958 -49 c 0,0,1
958 28 m 256,28,29
 1050 28 1050 28 1134.5 53.5 c 128,-1,30
 1219 79 1219 79 1292 124.5 c 128,-1,31
 1365 170 1365 170 1425.5 233.5 c 128,-1,32
 1486 297 1486 297 1529 372.5 c 128,-1,33
 1572 448 1572 448 1595.5 533.5 c 128,-1,34
 1619 619 1619 619 1619 709 c 256,35,36
 1619 799 1619 799 1595.5 884.5 c 128,-1,37
 1572 970 1572 970 1529 1045.5 c 128,-1,38
 1486 1121 1486 1121 1425.5 1184 c 128,-1,39
 1365 1247 1365 1247 1292 1292.5 c 128,-1,40
 1219 1338 1219 1338 1134.5 1363.5 c 128,-1,41
 1050 1389 1050 1389 958 1389 c 256,42,43
 866 1389 866 1389 781 1364 c 128,-1,44
 696 1339 696 1339 622.5 1293.5 c 128,-1,45
 549 1248 549 1248 489 1185 c 128,-1,46
 429 1122 429 1122 386 1046.5 c 128,-1,47
 343 971 343 971 319.5 885.5 c 128,-1,48
 296 800 296 800 296 709 c 256,49,50
 296 618 296 618 319.5 532.5 c 128,-1,51
 343 447 343 447 385.5 371 c 128,-1,52
 428 295 428 295 488.5 232 c 128,-1,53
 549 169 549 169 622.5 123.5 c 128,-1,54
 696 78 696 78 781 53 c 128,-1,55
 866 28 866 28 958 28 c 256,28,29
1288 310 m 1,56,-1
 1180 310 l 1,57,-1
 1000 653 l 1,58,-1
 811 653 l 1,59,-1
 811 310 l 1,60,-1
 720 310 l 1,61,-1
 720 1093 l 1,62,-1
 1013 1093 l 2,63,64
 1070 1093 1070 1093 1116 1081 c 128,-1,65
 1162 1069 1162 1069 1195 1042.5 c 128,-1,66
 1228 1016 1228 1016 1245.5 973.5 c 128,-1,67
 1263 931 1263 931 1263 870 c 0,68,69
 1263 782 1263 782 1218 725.5 c 128,-1,70
 1173 669 1173 669 1084 658 c 1,71,-1
 1288 310 l 1,56,-1
1013 731 m 2,72,73
 1048 731 1048 731 1079 738 c 128,-1,74
 1110 745 1110 745 1132.5 761 c 128,-1,75
 1155 777 1155 777 1168 804 c 128,-1,76
 1181 831 1181 831 1181 870 c 0,77,78
 1181 911 1181 911 1168.5 938 c 128,-1,79
 1156 965 1156 965 1133.5 981 c 128,-1,80
 1111 997 1111 997 1080.5 1003.5 c 128,-1,81
 1050 1010 1050 1010 1013 1010 c 2,82,-1
 801 1010 l 1,83,-1
 801 731 l 1,84,-1
 1013 731 l 2,72,73
EndSplineSet
EndChar

StartChar: degree
Encoding: 176 176 114
Width: 1037
GlyphClass: 1
Flags: W
LayerCount: 2
Fore
SplineSet
519 847 m 0,0,1
 457 847 457 847 403 870 c 128,-1,2
 349 893 349 893 309 933 c 128,-1,3
 269 973 269 973 246 1027 c 128,-1,4
 223 1081 223 1081 223 1143 c 256,5,6
 223 1205 223 1205 246 1258.5 c 128,-1,7
 269 1312 269 1312 309.5 1352.5 c 128,-1,8
 350 1393 350 1393 404 1416 c 128,-1,9
 458 1439 458 1439 519 1439 c 0,10,11
 579 1439 579 1439 632.5 1415.5 c 128,-1,12
 686 1392 686 1392 726 1351.5 c 128,-1,13
 766 1311 766 1311 789.5 1257 c 128,-1,14
 813 1203 813 1203 813 1143 c 0,15,16
 813 1082 813 1082 790 1028.5 c 128,-1,17
 767 975 767 975 727 934.5 c 128,-1,18
 687 894 687 894 633.5 870.5 c 128,-1,19
 580 847 580 847 519 847 c 0,0,1
519 916 m 0,20,21
 565 916 565 916 606 934.5 c 128,-1,22
 647 953 647 953 677.5 984 c 128,-1,23
 708 1015 708 1015 725.5 1056 c 128,-1,24
 743 1097 743 1097 743 1143 c 0,25,26
 743 1188 743 1188 725 1229.5 c 128,-1,27
 707 1271 707 1271 676.5 1302 c 128,-1,28
 646 1333 646 1333 605.5 1351.5 c 128,-1,29
 565 1370 565 1370 519 1370 c 256,30,31
 473 1370 473 1370 431.5 1352 c 128,-1,32
 390 1334 390 1334 359 1303 c 128,-1,33
 328 1272 328 1272 310 1231 c 128,-1,34
 292 1190 292 1190 292 1143 c 0,35,36
 292 1095 292 1095 309.5 1054 c 128,-1,37
 327 1013 327 1013 358 982 c 128,-1,38
 389 951 389 951 430 933.5 c 128,-1,39
 471 916 471 916 519 916 c 0,20,21
EndSplineSet
EndChar

StartChar: plusminus
Encoding: 177 177 115
Width: 1330
GlyphClass: 1
Flags: W
LayerCount: 2
Fore
SplineSet
705 107 m 1,0,-1
 625 107 l 1,1,-1
 625 587 l 1,2,-1
 167 587 l 1,3,-1
 167 666 l 1,4,-1
 625 666 l 1,5,-1
 625 1142 l 1,6,-1
 705 1142 l 1,7,-1
 705 666 l 1,8,-1
 1163 666 l 1,9,-1
 1163 587 l 1,10,-1
 705 587 l 1,11,-1
 705 107 l 1,0,-1
1163 -85 m 1,12,-1
 167 -85 l 1,13,-1
 167 -6 l 1,14,-1
 1163 -6 l 1,15,-1
 1163 -85 l 1,12,-1
EndSplineSet
EndChar

StartChar: twosuperior
Encoding: 178 178 116
Width: 827
GlyphClass: 2
Flags: W
LayerCount: 2
Fore
SplineSet
589 490 m 1,0,-1
 -42 490 l 1,1,-1
 -23 570 l 1,2,3
 34 602 34 602 90.5 636 c 128,-1,4
 147 670 147 670 201 709 c 0,5,6
 243 739 243 739 295 781.5 c 128,-1,7
 347 824 347 824 398.5 871 c 128,-1,8
 450 918 450 918 495.5 966.5 c 128,-1,9
 541 1015 541 1015 568 1058 c 256,10,11
 595 1101 595 1101 613 1149.5 c 128,-1,12
 631 1198 631 1198 631 1250 c 0,13,14
 631 1318 631 1318 590.5 1350.5 c 128,-1,15
 550 1383 550 1383 485 1383 c 0,16,17
 433 1383 433 1383 391.5 1363 c 128,-1,18
 350 1343 350 1343 318.5 1309.5 c 128,-1,19
 287 1276 287 1276 265.5 1233 c 128,-1,20
 244 1190 244 1190 232 1144 c 1,21,-1
 162 1153 l 1,22,23
 176 1213 176 1213 205.5 1267 c 128,-1,24
 235 1321 235 1321 278 1362.5 c 128,-1,25
 321 1404 321 1404 376 1428.5 c 128,-1,26
 431 1453 431 1453 496 1453 c 0,27,28
 533 1453 533 1453 564.5 1448 c 128,-1,29
 596 1443 596 1443 622 1429.5 c 128,-1,30
 648 1416 648 1416 668 1392.5 c 128,-1,31
 688 1369 688 1369 701 1332 c 0,32,33
 713 1299 713 1299 713 1263 c 0,34,35
 713 1184 713 1184 682 1114.5 c 128,-1,36
 651 1045 651 1045 602.5 984 c 128,-1,37
 554 923 554 923 494.5 870 c 128,-1,38
 435 817 435 817 379 771 c 0,39,40
 326 728 326 728 273 687.5 c 128,-1,41
 220 647 220 647 163 612 c 0,42,43
 138 596 138 596 113.5 582 c 128,-1,44
 89 568 89 568 65 554 c 1,45,-1
 604 554 l 1,46,-1
 589 490 l 1,0,-1
EndSplineSet
EndChar

StartChar: threesuperior
Encoding: 179 179 117
Width: 859
GlyphClass: 2
Flags: W
LayerCount: 2
Fore
SplineSet
281 477 m 0,0,1
 234 477 234 477 188.5 487.5 c 128,-1,2
 143 498 143 498 107 521 c 128,-1,3
 71 544 71 544 49 582 c 128,-1,4
 27 620 27 620 27 674 c 0,5,6
 27 692 27 692 29.5 710 c 128,-1,7
 32 728 32 728 36 746 c 1,8,9
 54 749 54 749 72.5 750.5 c 128,-1,10
 91 752 91 752 109 754 c 1,11,12
 106 740 106 740 104 727 c 128,-1,13
 102 714 102 714 102 700 c 0,14,15
 102 659 102 659 118.5 629.5 c 128,-1,16
 135 600 135 600 162.5 580.5 c 128,-1,17
 190 561 190 561 225 552 c 128,-1,18
 260 543 260 543 296 543 c 0,19,20
 351 543 351 543 403 563 c 128,-1,21
 455 583 455 583 496 618.5 c 128,-1,22
 537 654 537 654 562 702.5 c 128,-1,23
 587 751 587 751 587 809 c 0,24,25
 587 865 587 865 556.5 901 c 128,-1,26
 526 937 526 937 472 950 c 0,27,28
 443 958 443 958 413 958 c 2,29,-1
 411 958 l 2,30,31
 410 958 410 958 409 958 c 2,32,-1
 404 958 l 2,33,34
 403 958 403 958 402 958 c 2,35,-1
 396 958 l 2,36,37
 395 958 395 958 395 958 c 1,38,-1
 393 958 l 2,39,40
 392 958 392 958 391 958 c 2,41,-1
 389 958 l 2,42,43
 388 958 388 958 387 958 c 2,44,-1
 385 958 l 2,45,46
 384 958 384 958 383 958 c 2,47,-1
 353 958 l 1,48,-1
 370 1031 l 1,49,50
 396 1031 396 1031 422.5 1031.5 c 128,-1,51
 449 1032 449 1032 475 1038 c 0,52,53
 512 1047 512 1047 542 1067.5 c 128,-1,54
 572 1088 572 1088 593.5 1116.5 c 128,-1,55
 615 1145 615 1145 626.5 1180 c 128,-1,56
 638 1215 638 1215 638 1252 c 0,57,58
 638 1284 638 1284 626 1309 c 128,-1,59
 614 1334 614 1334 594 1351 c 128,-1,60
 574 1368 574 1368 546.5 1377 c 128,-1,61
 519 1386 519 1386 489 1386 c 0,62,63
 449 1386 449 1386 411.5 1373 c 128,-1,64
 374 1360 374 1360 343 1336.5 c 128,-1,65
 312 1313 312 1313 289.5 1280 c 128,-1,66
 267 1247 267 1247 258 1208 c 1,67,-1
 190 1219 l 1,68,69
 203 1275 203 1275 232.5 1318.5 c 128,-1,70
 262 1362 262 1362 304 1392.5 c 128,-1,71
 346 1423 346 1423 397 1439 c 128,-1,72
 448 1455 448 1455 504 1455 c 0,73,74
 545 1455 545 1455 583 1444 c 128,-1,75
 621 1433 621 1433 650.5 1410.5 c 128,-1,76
 680 1388 680 1388 697.5 1354.5 c 128,-1,77
 715 1321 715 1321 715 1276 c 256,78,79
 715 1231 715 1231 701.5 1190 c 128,-1,80
 688 1149 688 1149 664 1113 c 128,-1,81
 640 1077 640 1077 606.5 1048.5 c 128,-1,82
 573 1020 573 1020 534 1001 c 1,83,84
 659 959 659 959 659 827 c 0,85,86
 659 748 659 748 628.5 683 c 128,-1,87
 598 618 598 618 546.5 572.5 c 128,-1,88
 495 527 495 527 426.5 502 c 128,-1,89
 358 477 358 477 281 477 c 0,0,1
EndSplineSet
EndChar

StartChar: uni00B5
Encoding: 181 181 119
Width: 1360
GlyphClass: 1
Flags: W
LayerCount: 2
Fore
SplineSet
213 -267 m 1,0,-1
 106 -267 l 1,1,-1
 410 1039 l 1,2,-1
 537 1039 l 1,3,-1
 392 404 l 2,4,5
 384 369 384 369 378.5 334.5 c 128,-1,6
 373 300 373 300 373 265 c 0,7,8
 373 180 373 180 412 131.5 c 128,-1,9
 451 83 451 83 540 83 c 0,10,11
 609 83 609 83 677.5 114 c 128,-1,12
 746 145 746 145 803.5 195.5 c 128,-1,13
 861 246 861 246 903 310 c 128,-1,14
 945 374 945 374 961 441 c 0,15,16
 998 591 998 591 1032 739.5 c 128,-1,17
 1066 888 1066 888 1098 1039 c 1,18,-1
 1228 1039 l 1,19,-1
 988 0 l 1,20,-1
 861 0 l 1,21,-1
 912 214 l 1,22,23
 883 165 883 165 840 121.5 c 128,-1,24
 797 78 797 78 746 46 c 128,-1,25
 695 14 695 14 638 -4.5 c 128,-1,26
 581 -23 581 -23 522 -23 c 0,27,28
 465 -23 465 -23 412.5 -8 c 128,-1,29
 360 7 360 7 315 42 c 1,30,31
 266 -113 266 -113 213 -267 c 1,0,-1
EndSplineSet
EndChar

StartChar: paragraph
Encoding: 182 182 120
Width: 1403
GlyphClass: 1
Flags: W
LayerCount: 2
Fore
SplineSet
551 -247 m 1,0,-1
 435 -247 l 1,1,-1
 643 626 l 1,2,3
 571 626 571 626 503 645 c 128,-1,4
 435 664 435 664 381.5 702.5 c 128,-1,5
 328 741 328 741 296 800 c 128,-1,6
 264 859 264 859 264 939 c 0,7,8
 264 1011 264 1011 286 1073.5 c 128,-1,9
 308 1136 308 1136 346.5 1189 c 128,-1,10
 385 1242 385 1242 437.5 1283.5 c 128,-1,11
 490 1325 490 1325 550.5 1353.5 c 128,-1,12
 611 1382 611 1382 677.5 1397.5 c 128,-1,13
 744 1413 744 1413 810 1413 c 2,14,-1
 934 1413 l 1,15,16
 837 996 837 996 742.5 583 c 128,-1,17
 648 170 648 170 551 -247 c 1,0,-1
928 -247 m 1,18,-1
 812 -247 l 1,19,20
 909 170 909 170 1004 583 c 128,-1,21
 1099 996 1099 996 1196 1413 c 1,22,-1
 1311 1413 l 1,23,24
 1214 996 1214 996 1119.5 583 c 128,-1,25
 1025 170 1025 170 928 -247 c 1,18,-1
EndSplineSet
EndChar

StartChar: periodcentered
Encoding: 183 183 121
Width: 667
GlyphClass: 1
Flags: W
LayerCount: 2
Fore
SplineSet
395 721 m 0,0,1
 353 721 353 721 325.5 746 c 128,-1,2
 298 771 298 771 298 814 c 0,3,4
 298 841 298 841 308 865 c 128,-1,5
 318 889 318 889 335 907 c 128,-1,6
 352 925 352 925 376 935.5 c 128,-1,7
 400 946 400 946 427 946 c 0,8,9
 470 946 470 946 497.5 922 c 128,-1,10
 525 898 525 898 525 853 c 0,11,12
 525 827 525 827 514.5 803 c 128,-1,13
 504 779 504 779 486 761 c 128,-1,14
 468 743 468 743 444.5 732 c 128,-1,15
 421 721 421 721 395 721 c 0,0,1
EndSplineSet
EndChar

StartChar: cedilla
Encoding: 184 184 122
Width: 569
GlyphClass: 2
Flags: W
AnchorPoint: "Anchor-3" 37 -500 basemark 0
LayerCount: 2
Fore
SplineSet
52 -499 m 0,0,1
 25 -499 25 -499 -1.5 -490.5 c 128,-1,2
 -28 -482 -28 -482 -49 -466 c 128,-1,3
 -70 -450 -70 -450 -84.5 -427 c 128,-1,4
 -99 -404 -99 -404 -103 -376 c 1,5,-1
 -16 -342 l 1,6,7
 -16 -377 -16 -377 3 -397 c 128,-1,8
 22 -417 22 -417 57 -417 c 0,9,10
 83 -417 83 -417 109.5 -405.5 c 128,-1,11
 136 -394 136 -394 157.5 -375 c 128,-1,12
 179 -356 179 -356 192.5 -330.5 c 128,-1,13
 206 -305 206 -305 206 -278 c 0,14,15
 206 -241 206 -241 186 -220 c 128,-1,16
 166 -199 166 -199 136 -189 c 128,-1,17
 106 -179 106 -179 72.5 -177 c 128,-1,18
 39 -175 39 -175 12 -175 c 1,19,20
 41 -132 41 -132 72 -90.5 c 128,-1,21
 103 -49 103 -49 132 -6 c 1,22,-1
 237 -6 l 1,23,24
 211 -37 211 -37 186 -68 c 128,-1,25
 161 -99 161 -99 135 -129 c 1,26,27
 168 -129 168 -129 196.5 -137 c 128,-1,28
 225 -145 225 -145 246.5 -161.5 c 128,-1,29
 268 -178 268 -178 280 -204 c 128,-1,30
 292 -230 292 -230 292 -266 c 0,31,32
 292 -313 292 -313 271.5 -355 c 128,-1,33
 251 -397 251 -397 217.5 -429 c 128,-1,34
 184 -461 184 -461 141 -480 c 128,-1,35
 98 -499 98 -499 52 -499 c 0,0,1
EndSplineSet
EndChar

StartChar: onesuperior
Encoding: 185 185 123
Width: 1018
GlyphClass: 2
Flags: W
LayerCount: 2
Fore
SplineSet
499 490 m 1,0,-1
 419 490 l 1,1,-1
 591 1236 l 1,2,-1
 335 1236 l 1,3,-1
 350 1301 l 1,4,5
 378 1301 378 1301 405.5 1300 c 128,-1,6
 433 1299 433 1299 461 1299 c 0,7,8
 539 1299 539 1299 585.5 1331 c 128,-1,9
 632 1363 632 1363 647 1441 c 1,10,-1
 719 1441 l 1,11,-1
 499 490 l 1,0,-1
EndSplineSet
EndChar

StartChar: ordmasculine
Encoding: 186 186 124
Width: 997
GlyphClass: 2
Flags: W
LayerCount: 2
Fore
SplineSet
559 714 m 0,0,1
 496 714 496 714 446.5 734 c 128,-1,2
 397 754 397 754 363 790.5 c 128,-1,3
 329 827 329 827 311 878 c 128,-1,4
 293 929 293 929 293 990 c 0,5,6
 293 1045 293 1045 307.5 1099.5 c 128,-1,7
 322 1154 322 1154 348.5 1203.5 c 128,-1,8
 375 1253 375 1253 412.5 1295 c 128,-1,9
 450 1337 450 1337 496 1368 c 128,-1,10
 542 1399 542 1399 595 1416.5 c 128,-1,11
 648 1434 648 1434 705 1434 c 0,12,13
 766 1434 766 1434 815 1413.5 c 128,-1,14
 864 1393 864 1393 898 1356.5 c 128,-1,15
 932 1320 932 1320 950.5 1270 c 128,-1,16
 969 1220 969 1220 969 1160 c 0,17,18
 969 1077 969 1077 937.5 997 c 128,-1,19
 906 917 906 917 850.5 854 c 128,-1,20
 795 791 795 791 720.5 752.5 c 128,-1,21
 646 714 646 714 559 714 c 0,0,1
560 803 m 0,22,23
 632 803 632 803 688.5 837.5 c 128,-1,24
 745 872 745 872 784 926 c 128,-1,25
 823 980 823 980 843.5 1047 c 128,-1,26
 864 1114 864 1114 864 1178 c 0,27,28
 864 1256 864 1256 825.5 1301.5 c 128,-1,29
 787 1347 787 1347 706 1347 c 0,30,31
 633 1347 633 1347 576 1312.5 c 128,-1,32
 519 1278 519 1278 479 1223.5 c 128,-1,33
 439 1169 439 1169 418 1102 c 128,-1,34
 397 1035 397 1035 397 969 c 0,35,36
 397 888 397 888 438 845.5 c 128,-1,37
 479 803 479 803 560 803 c 0,22,23
EndSplineSet
EndChar

StartChar: guillemotright
Encoding: 187 187 125
Width: 983
GlyphClass: 1
Flags: W
LayerCount: 2
Fore
SplineSet
111 203 m 1,0,-1
 138 336 l 1,1,-1
 382 511 l 1,2,-1
 223 684 l 1,3,-1
 250 818 l 1,4,-1
 519 512 l 1,5,-1
 111 203 l 1,0,-1
475 203 m 1,6,-1
 503 336 l 1,7,-1
 745 511 l 1,8,-1
 587 684 l 1,9,-1
 614 818 l 1,10,-1
 886 512 l 1,11,-1
 475 203 l 1,6,-1
EndSplineSet
EndChar

StartChar: questiondown
Encoding: 191 191 126
Width: 1049
GlyphClass: 1
Flags: W
LayerCount: 2
Fore
SplineSet
686 838 m 1,0,-1
 524 838 l 1,1,-1
 562 997 l 1,2,-1
 724 997 l 1,3,-1
 686 838 l 1,0,-1
332 -436 m 0,4,5
 268 -436 268 -436 207.5 -421.5 c 128,-1,6
 147 -407 147 -407 99.5 -375 c 128,-1,7
 52 -343 52 -343 23.5 -292 c 128,-1,8
 -5 -241 -5 -241 -5 -168 c 0,9,10
 -5 -123 -5 -123 5.5 -79 c 128,-1,11
 16 -35 16 -35 36 6 c 0,12,13
 58 53 58 53 85.5 84 c 128,-1,14
 113 115 113 115 144 137 c 128,-1,15
 175 159 175 159 208 175 c 128,-1,16
 241 191 241 191 275 208 c 128,-1,17
 309 225 309 225 342.5 246.5 c 128,-1,18
 376 268 376 268 407 300 c 0,19,20
 440 335 440 335 453 387 c 2,21,-1
 512 639 l 1,22,-1
 613 639 l 1,23,24
 607 608 607 608 598 562 c 128,-1,25
 589 516 589 516 578.5 468 c 128,-1,26
 568 420 568 420 556 377 c 128,-1,27
 544 334 544 334 532 308 c 0,28,29
 514 270 514 270 487 242.5 c 128,-1,30
 460 215 460 215 431 196.5 c 128,-1,31
 402 178 402 178 371.5 162.5 c 128,-1,32
 341 147 341 147 310 133 c 128,-1,33
 279 119 279 119 250 101 c 128,-1,34
 221 83 221 83 194.5 58.5 c 128,-1,35
 168 34 168 34 147 -2 c 0,36,37
 101 -79 101 -79 101 -166 c 0,38,39
 101 -215 101 -215 121 -247.5 c 128,-1,40
 141 -280 141 -280 173 -300 c 128,-1,41
 205 -320 205 -320 245.5 -328.5 c 128,-1,42
 286 -337 286 -337 328 -337 c 0,43,44
 389 -337 389 -337 446.5 -318.5 c 128,-1,45
 504 -300 504 -300 551.5 -265.5 c 128,-1,46
 599 -231 599 -231 634 -182 c 128,-1,47
 669 -133 669 -133 685 -73 c 1,48,49
 711 -76 711 -76 738 -79.5 c 128,-1,50
 765 -83 765 -83 791 -85 c 1,51,52
 771 -166 771 -166 727.5 -230.5 c 128,-1,53
 684 -295 684 -295 623.5 -341 c 128,-1,54
 563 -387 563 -387 488.5 -411.5 c 128,-1,55
 414 -436 414 -436 332 -436 c 0,4,5
EndSplineSet
EndChar

StartChar: Aring
Encoding: 197 197 132
Width: 1310
GlyphClass: 1
Flags: W
LayerCount: 2
Fore
SplineSet
1098 0 m 1,0,-1
 991 0 l 1,1,-1
 954 308 l 1,2,-1
 284 308 l 1,3,-1
 105 0 l 1,4,-1
 -21 0 l 1,5,-1
 785 1346 l 1,6,7
 742 1366 742 1366 721 1403.5 c 128,-1,8
 700 1441 700 1441 700 1488 c 0,9,10
 700 1533 700 1533 718 1574.5 c 128,-1,11
 736 1616 736 1616 767 1647.5 c 128,-1,12
 798 1679 798 1679 838.5 1697.5 c 128,-1,13
 879 1716 879 1716 925 1716 c 0,14,15
 958 1716 958 1716 987.5 1704.5 c 128,-1,16
 1017 1693 1017 1693 1039 1673 c 128,-1,17
 1061 1653 1061 1653 1073.5 1624.5 c 128,-1,18
 1086 1596 1086 1596 1086 1562 c 0,19,20
 1086 1526 1086 1526 1073.5 1492.5 c 128,-1,21
 1061 1459 1061 1459 1039.5 1430.5 c 128,-1,22
 1018 1402 1018 1402 989 1381 c 128,-1,23
 960 1360 960 1360 926 1349 c 1,24,-1
 1098 0 l 1,0,-1
864 1423 m 0,25,26
 890 1423 890 1423 913.5 1433.5 c 128,-1,27
 937 1444 937 1444 955 1461.5 c 128,-1,28
 973 1479 973 1479 984 1502.5 c 128,-1,29
 995 1526 995 1526 995 1552 c 0,30,31
 995 1587 995 1587 972 1606.5 c 128,-1,32
 949 1626 949 1626 915 1626 c 0,33,34
 890 1626 890 1626 866.5 1616 c 128,-1,35
 843 1606 843 1606 825 1589 c 128,-1,36
 807 1572 807 1572 796.5 1549.5 c 128,-1,37
 786 1527 786 1527 786 1501 c 0,38,39
 786 1465 786 1465 807 1444 c 128,-1,40
 828 1423 828 1423 864 1423 c 0,25,26
941 419 m 1,41,-1
 844 1269 l 1,42,-1
 347 419 l 1,43,-1
 941 419 l 1,41,-1
EndSplineSet
Position2: "'cpsp' Capital Spacing lookup 0 per glyph data 0" dx=5 dy=0 dh=10 dv=0
EndChar

StartChar: AE
Encoding: 198 198 133
Width: 1821
GlyphClass: 1
Flags: W
LayerCount: 2
Fore
SplineSet
1583 0 m 1,0,-1
 714 0 l 1,1,-1
 784 308 l 1,2,-1
 285 308 l 1,3,-1
 102 0 l 1,4,-1
 -21 0 l 1,5,-1
 818 1413 l 1,6,-1
 1909 1413 l 1,7,-1
 1888 1324 l 1,8,-1
 1138 1324 l 1,9,-1
 1007 755 l 1,10,-1
 1668 755 l 1,11,-1
 1646 658 l 1,12,-1
 983 658 l 1,13,-1
 854 97 l 1,14,-1
 1605 97 l 1,15,-1
 1583 0 l 1,0,-1
812 421 m 1,16,-1
 1020 1324 l 1,17,-1
 877 1324 l 1,18,-1
 343 421 l 1,19,-1
 812 421 l 1,16,-1
EndSplineSet
Position2: "'cpsp' Capital Spacing lookup 0 per glyph data 0" dx=5 dy=0 dh=10 dv=0
EndChar

StartChar: Eth
Encoding: 208 208 143
Width: 1436
GlyphClass: 1
Flags: W
LayerCount: 2
Fore
SplineSet
485 0 m 2,0,-1
 134 0 l 1,1,-1
 287 672 l 1,2,-1
 174 672 l 1,3,-1
 195 754 l 1,4,-1
 308 754 l 1,5,-1
 460 1413 l 1,6,-1
 804 1413 l 2,7,8
 925 1413 925 1413 1027.5 1386 c 128,-1,9
 1130 1359 1130 1359 1205 1300 c 128,-1,10
 1280 1241 1280 1241 1322 1148.5 c 128,-1,11
 1364 1056 1364 1056 1364 924 c 0,12,13
 1364 840 1364 840 1349 758.5 c 128,-1,14
 1334 677 1334 677 1308 597 c 0,15,16
 1212 300 1212 300 1004.5 150 c 128,-1,17
 797 0 797 0 485 0 c 2,0,-1
476 113 m 2,18,19
 620 113 620 113 741 156 c 128,-1,20
 862 199 862 199 956.5 277.5 c 128,-1,21
 1051 356 1051 356 1116.5 468 c 128,-1,22
 1182 580 1182 580 1213 718 c 0,23,24
 1224 767 1224 767 1231 816 c 128,-1,25
 1238 865 1238 865 1238 915 c 0,26,27
 1238 1022 1238 1022 1203.5 1096 c 128,-1,28
 1169 1170 1169 1170 1108 1216 c 128,-1,29
 1047 1262 1047 1262 963.5 1282.5 c 128,-1,30
 880 1303 880 1303 783 1303 c 2,31,-1
 562 1303 l 1,32,-1
 435 754 l 1,33,-1
 817 754 l 1,34,-1
 797 672 l 1,35,-1
 414 672 l 1,36,-1
 285 113 l 1,37,-1
 476 113 l 2,18,19
EndSplineSet
Position2: "'cpsp' Capital Spacing lookup 0 per glyph data 0" dx=5 dy=0 dh=10 dv=0
EndChar

StartChar: multiply
Encoding: 215 215 150
Width: 1126
GlyphClass: 1
Flags: W
LayerCount: 2
Fore
SplineSet
903 229 m 1,0,-1
 566 569 l 1,1,-1
 241 243 l 1,2,-1
 182 299 l 1,3,-1
 509 625 l 1,4,-1
 171 961 l 1,5,-1
 226 1019 l 1,6,-1
 566 680 l 1,7,-1
 889 1005 l 1,8,-1
 946 949 l 1,9,-1
 622 625 l 1,10,-1
 959 287 l 1,11,-1
 903 229 l 1,0,-1
EndSplineSet
EndChar

StartChar: Oslash
Encoding: 216 216 151
Width: 1530
GlyphClass: 1
Flags: W
LayerCount: 2
Fore
SplineSet
653 -25 m 0,0,1
 574 -25 574 -25 497 -7 c 128,-1,2
 420 11 420 11 354 57 c 1,3,-1
 309 0 l 1,4,-1
 207 0 l 1,5,-1
 293 110 l 1,6,7
 258 143 258 143 234 188 c 128,-1,8
 210 233 210 233 195.5 282.5 c 128,-1,9
 181 332 181 332 174.5 384 c 128,-1,10
 168 436 168 436 168 482 c 0,11,12
 168 595 168 595 193 710 c 128,-1,13
 218 825 218 825 265.5 931.5 c 128,-1,14
 313 1038 313 1038 382.5 1130.5 c 128,-1,15
 452 1223 452 1223 541 1291.5 c 128,-1,16
 630 1360 630 1360 738 1399.5 c 128,-1,17
 846 1439 846 1439 970 1439 c 0,18,19
 1049 1439 1049 1439 1126 1421 c 128,-1,20
 1203 1403 1203 1403 1269 1358 c 1,21,-1
 1312 1413 l 1,22,-1
 1415 1413 l 1,23,-1
 1331 1306 l 1,24,-1
 1338 1299 l 1,25,26
 1373 1253 1373 1253 1396.5 1211.5 c 128,-1,27
 1420 1170 1420 1170 1434 1126.5 c 128,-1,28
 1448 1083 1448 1083 1454 1035.5 c 128,-1,29
 1460 988 1460 988 1460 931 c 0,30,31
 1460 817 1460 817 1435 701.5 c 128,-1,32
 1410 586 1410 586 1362 480 c 128,-1,33
 1314 374 1314 374 1244 281.5 c 128,-1,34
 1174 189 1174 189 1084.5 121 c 128,-1,35
 995 53 995 53 886.5 14 c 128,-1,36
 778 -25 778 -25 653 -25 c 0,0,1
369 207 m 1,37,-1
 1194 1262 l 1,38,39
 1143 1295 1143 1295 1083 1307.5 c 128,-1,40
 1023 1320 1023 1320 963 1320 c 0,41,42
 828 1320 828 1320 719 1267.5 c 128,-1,43
 610 1215 610 1215 527.5 1128 c 128,-1,44
 445 1041 445 1041 389.5 928.5 c 128,-1,45
 334 816 334 816 305 695 c 0,46,47
 293 645 293 645 286.5 595.5 c 128,-1,48
 280 546 280 546 280 495 c 0,49,50
 280 418 280 418 299 342.5 c 128,-1,51
 318 267 318 267 369 207 c 1,37,-1
657 93 m 0,52,53
 764 93 764 93 856.5 127 c 128,-1,54
 949 161 949 161 1026 220 c 128,-1,55
 1103 279 1103 279 1163 359 c 128,-1,56
 1223 439 1223 439 1264 530.5 c 128,-1,57
 1305 622 1305 622 1326.5 721 c 128,-1,58
 1348 820 1348 820 1348 917 c 0,59,60
 1348 995 1348 995 1328 1071.5 c 128,-1,61
 1308 1148 1308 1148 1255 1209 c 1,62,-1
 429 153 l 1,63,64
 480 119 480 119 538.5 106 c 128,-1,65
 597 93 597 93 657 93 c 0,52,53
EndSplineSet
Position2: "'cpsp' Capital Spacing lookup 0 per glyph data 0" dx=5 dy=0 dh=10 dv=0
EndChar

StartChar: Thorn
Encoding: 222 222 157
Width: 1154
GlyphClass: 1
Flags: W
LayerCount: 2
Fore
SplineSet
182 0 m 1,0,-1
 67 0 l 1,1,-1
 393 1413 l 1,2,-1
 508 1413 l 1,3,-1
 461 1209 l 1,4,-1
 719 1209 l 2,5,6
 763 1209 763 1209 814 1201 c 128,-1,7
 865 1193 865 1193 912 1174.5 c 128,-1,8
 959 1156 959 1156 997.5 1125.5 c 128,-1,9
 1036 1095 1036 1095 1055 1050 c 0,10,11
 1068 1020 1068 1020 1075.5 987.5 c 128,-1,12
 1083 955 1083 955 1083 922 c 0,13,14
 1083 841 1083 841 1056 768.5 c 128,-1,15
 1029 696 1029 696 981.5 637.5 c 128,-1,16
 934 579 934 579 869 536.5 c 128,-1,17
 804 494 804 494 727 473 c 0,18,19
 684 461 684 461 640 455.5 c 128,-1,20
 596 450 596 450 551 450 c 2,21,-1
 286 450 l 1,22,-1
 182 0 l 1,0,-1
575 557 m 2,23,24
 643 557 643 557 705 571.5 c 128,-1,25
 767 586 767 586 817 617.5 c 128,-1,26
 867 649 867 649 902.5 699 c 128,-1,27
 938 749 938 749 954 820 c 0,28,29
 958 838 958 838 960.5 856 c 128,-1,30
 963 874 963 874 963 892 c 0,31,32
 963 932 963 932 948 968 c 0,33,34
 930 1007 930 1007 903 1030.5 c 128,-1,35
 876 1054 876 1054 843.5 1066.5 c 128,-1,36
 811 1079 811 1079 774 1083.5 c 128,-1,37
 737 1088 737 1088 698 1088 c 2,38,-1
 433 1088 l 1,39,-1
 310 557 l 1,40,-1
 575 557 l 2,23,24
EndSplineSet
Position2: "'cpsp' Capital Spacing lookup 0 per glyph data 0" dx=5 dy=0 dh=10 dv=0
EndChar

StartChar: germandbls
Encoding: 223 223 158
Width: 1214
GlyphClass: 1
Flags: W
LayerCount: 2
Fore
SplineSet
632 -18 m 0,0,1
 592 -18 592 -18 556 -12.5 c 128,-1,2
 520 -7 520 -7 486 3 c 128,-1,3
 452 13 452 13 418.5 27 c 128,-1,4
 385 41 385 41 349 59 c 1,5,-1
 417 164 l 1,6,7
 465 132 465 132 524.5 114.5 c 128,-1,8
 584 97 584 97 641 97 c 0,9,10
 689 97 689 97 739.5 116 c 128,-1,11
 790 135 790 135 831.5 168 c 128,-1,12
 873 201 873 201 899.5 245.5 c 128,-1,13
 926 290 926 290 926 342 c 0,14,15
 926 385 926 385 909 418.5 c 128,-1,16
 892 452 892 452 866.5 481.5 c 128,-1,17
 841 511 841 511 811 538 c 128,-1,18
 781 565 781 565 755.5 594.5 c 128,-1,19
 730 624 730 624 713 658.5 c 128,-1,20
 696 693 696 693 696 736 c 0,21,22
 696 795 696 795 720 833 c 128,-1,23
 744 871 744 871 780 899.5 c 128,-1,24
 816 928 816 928 858 952.5 c 128,-1,25
 900 977 900 977 936 1008.5 c 128,-1,26
 972 1040 972 1040 996 1083.5 c 128,-1,27
 1020 1127 1020 1127 1020 1194 c 0,28,29
 1020 1233 1020 1233 998.5 1259.5 c 128,-1,30
 977 1286 977 1286 945 1302 c 128,-1,31
 913 1318 913 1318 876 1325 c 128,-1,32
 839 1332 839 1332 807 1332 c 0,33,34
 745 1332 745 1332 693.5 1313 c 128,-1,35
 642 1294 642 1294 600 1260.5 c 128,-1,36
 558 1227 558 1227 524.5 1182.5 c 128,-1,37
 491 1138 491 1138 465.5 1087.5 c 128,-1,38
 440 1037 440 1037 421.5 983 c 128,-1,39
 403 929 403 929 391 877 c 2,40,-1
 182 0 l 1,41,-1
 74 0 l 1,42,-1
 179 445 l 2,43,44
 205 557 205 557 231.5 667 c 128,-1,45
 258 777 258 777 286 889 c 0,46,47
 312 992 312 992 352 1090 c 128,-1,48
 392 1188 392 1188 454 1264.5 c 128,-1,49
 516 1341 516 1341 604 1387.5 c 128,-1,50
 692 1434 692 1434 813 1434 c 0,51,52
 871 1434 871 1434 929 1416.5 c 128,-1,53
 987 1399 987 1399 1033 1365 c 128,-1,54
 1079 1331 1079 1331 1107.5 1281 c 128,-1,55
 1136 1231 1136 1231 1136 1167 c 0,56,57
 1136 1096 1136 1096 1112 1051 c 128,-1,58
 1088 1006 1088 1006 1052 975.5 c 128,-1,59
 1016 945 1016 945 974.5 923.5 c 128,-1,60
 933 902 933 902 897 877.5 c 128,-1,61
 861 853 861 853 837 820.5 c 128,-1,62
 813 788 813 788 813 736 c 0,63,64
 813 705 813 705 829.5 678 c 128,-1,65
 846 651 846 651 871.5 625 c 128,-1,66
 897 599 897 599 926 572 c 128,-1,67
 955 545 955 545 980.5 513.5 c 128,-1,68
 1006 482 1006 482 1022.5 444 c 128,-1,69
 1039 406 1039 406 1039 359 c 0,70,71
 1039 280 1039 280 1004 211.5 c 128,-1,72
 969 143 969 143 911.5 92 c 128,-1,73
 854 41 854 41 781 11.5 c 128,-1,74
 708 -18 708 -18 632 -18 c 0,0,1
EndSplineSet
EndChar

StartChar: ae
Encoding: 230 230 165
Width: 1718
GlyphClass: 1
Flags: W
LayerCount: 2
Fore
SplineSet
295 -20 m 0,0,1
 268 -20 268 -20 241.5 -17 c 128,-1,2
 215 -14 215 -14 189 -6 c 0,3,4
 156 4 156 4 128 26 c 128,-1,5
 100 48 100 48 79.5 76.5 c 128,-1,6
 59 105 59 105 47.5 139 c 128,-1,7
 36 173 36 173 36 207 c 0,8,9
 36 259 36 259 53.5 315 c 128,-1,10
 71 371 71 371 100 415 c 0,11,12
 132 462 132 462 173 493.5 c 128,-1,13
 214 525 214 525 262 544 c 128,-1,14
 310 563 310 563 362.5 571 c 128,-1,15
 415 579 415 579 469 579 c 2,16,-1
 813 579 l 1,17,18
 830 656 830 656 830 731 c 0,19,20
 830 846 830 846 777 906.5 c 128,-1,21
 724 967 724 967 606 967 c 0,22,23
 560 967 560 967 515.5 955.5 c 128,-1,24
 471 944 471 944 430 924 c 128,-1,25
 389 904 389 904 352 876 c 128,-1,26
 315 848 315 848 285 815 c 1,27,-1
 207 870 l 1,28,29
 254 915 254 915 301 950 c 128,-1,30
 348 985 348 985 399.5 1008.5 c 128,-1,31
 451 1032 451 1032 508 1044 c 128,-1,32
 565 1056 565 1056 631 1056 c 0,33,34
 687 1056 687 1056 736 1045 c 128,-1,35
 785 1034 785 1034 823 1008.5 c 128,-1,36
 861 983 861 983 887 942.5 c 128,-1,37
 913 902 913 902 923 842 c 1,38,-1
 922 839 l 1,39,40
 960 887 960 887 1003 926 c 128,-1,41
 1046 965 1046 965 1095 993 c 128,-1,42
 1144 1021 1144 1021 1199.5 1036.5 c 128,-1,43
 1255 1052 1255 1052 1317 1052 c 0,44,45
 1393 1052 1393 1052 1456 1034 c 128,-1,46
 1519 1016 1519 1016 1564.5 978 c 128,-1,47
 1610 940 1610 940 1635.5 882 c 128,-1,48
 1661 824 1661 824 1661 743 c 0,49,50
 1661 681 1661 681 1648 612.5 c 128,-1,51
 1635 544 1635 544 1614 486 c 1,52,-1
 890 486 l 1,53,54
 883 452 883 452 878 418.5 c 128,-1,55
 873 385 873 385 873 350 c 0,56,57
 873 290 873 290 890 240 c 128,-1,58
 907 190 907 190 939.5 154.5 c 128,-1,59
 972 119 972 119 1020 99.5 c 128,-1,60
 1068 80 1068 80 1130 80 c 0,61,62
 1224 80 1224 80 1306 103.5 c 128,-1,63
 1388 127 1388 127 1460 190 c 1,64,-1
 1523 134 l 1,65,66
 1476 96 1476 96 1429 68.5 c 128,-1,67
 1382 41 1382 41 1332 23 c 128,-1,68
 1282 5 1282 5 1228 -3.5 c 128,-1,69
 1174 -12 1174 -12 1114 -12 c 0,70,71
 1044 -12 1044 -12 986 0 c 128,-1,72
 928 12 928 12 884.5 42 c 128,-1,73
 841 72 841 72 814.5 122.5 c 128,-1,74
 788 173 788 173 781 249 c 1,75,76
 745 174 745 174 694.5 122.5 c 128,-1,77
 644 71 644 71 581.5 39.5 c 128,-1,78
 519 8 519 8 446.5 -6 c 128,-1,79
 374 -20 374 -20 295 -20 c 0,0,1
1534 584 m 1,80,81
 1540 615 1540 615 1545 645.5 c 128,-1,82
 1550 676 1550 676 1550 708 c 0,83,84
 1550 830 1550 830 1484 891.5 c 128,-1,85
 1418 953 1418 953 1298 953 c 0,86,87
 1219 953 1219 953 1154.5 922 c 128,-1,88
 1090 891 1090 891 1041 839.5 c 128,-1,89
 992 788 992 788 959.5 721.5 c 128,-1,90
 927 655 927 655 911 584 c 1,91,-1
 1534 584 l 1,80,81
354 73 m 0,92,93
 411 73 411 73 466 92 c 128,-1,94
 521 111 521 111 570.5 143.5 c 128,-1,95
 620 176 620 176 660.5 219 c 128,-1,96
 701 262 701 262 729 309 c 0,97,98
 753 351 753 351 767 396 c 128,-1,99
 781 441 781 441 798 486 c 1,100,-1
 432 486 l 2,101,102
 326 486 326 486 254.5 431.5 c 128,-1,103
 183 377 183 377 157 274 c 0,104,105
 152 254 152 254 152 238 c 0,106,107
 152 197 152 197 170 166 c 128,-1,108
 188 135 188 135 216.5 114.5 c 128,-1,109
 245 94 245 94 281 83.5 c 128,-1,110
 317 73 317 73 354 73 c 0,92,93
EndSplineSet
EndChar

StartChar: ccedilla
Encoding: 231 231 166
Width: 998
GlyphClass: 1
Flags: W
LayerCount: 2
Fore
SplineSet
293 -499 m 0,0,1
 265 -499 265 -499 238 -490.5 c 128,-1,2
 211 -482 211 -482 189.5 -466 c 128,-1,3
 168 -450 168 -450 153.5 -427 c 128,-1,4
 139 -404 139 -404 134 -375 c 1,5,-1
 221 -340 l 1,6,7
 221 -376 221 -376 241 -396.5 c 128,-1,8
 261 -417 261 -417 297 -417 c 0,9,10
 324 -417 324 -417 352 -405.5 c 128,-1,11
 380 -394 380 -394 402 -374 c 128,-1,12
 424 -354 424 -354 438 -328.5 c 128,-1,13
 452 -303 452 -303 452 -274 c 0,14,15
 452 -235 452 -235 431.5 -213.5 c 128,-1,16
 411 -192 411 -192 380.5 -181.5 c 128,-1,17
 350 -171 350 -171 315 -169 c 128,-1,18
 280 -167 280 -167 252 -167 c 1,19,-1
 367 -4 l 1,20,21
 295 7 295 7 244 41 c 128,-1,22
 193 75 193 75 161 125 c 128,-1,23
 129 175 129 175 114 237 c 128,-1,24
 99 299 99 299 99 366 c 0,25,26
 99 443 99 443 116 524 c 128,-1,27
 133 605 133 605 165.5 681.5 c 128,-1,28
 198 758 198 758 246 826 c 128,-1,29
 294 894 294 894 355 945 c 128,-1,30
 416 996 416 996 490.5 1026 c 128,-1,31
 565 1056 565 1056 651 1056 c 0,32,33
 780 1056 780 1056 865.5 991.5 c 128,-1,34
 951 927 951 927 981 800 c 1,35,-1
 877 764 l 1,36,37
 876 814 876 814 859 853 c 128,-1,38
 842 892 842 892 812.5 919 c 128,-1,39
 783 946 783 946 742.5 960.5 c 128,-1,40
 702 975 702 975 654 975 c 0,41,42
 581 975 581 975 519 945.5 c 128,-1,43
 457 916 457 916 407 867 c 128,-1,44
 357 818 357 818 319 754 c 128,-1,45
 281 690 281 690 255 620 c 128,-1,46
 229 550 229 550 216 479.5 c 128,-1,47
 203 409 203 409 203 347 c 0,48,49
 203 291 203 291 214 241.5 c 128,-1,50
 225 192 225 192 250.5 155 c 128,-1,51
 276 118 276 118 318.5 96.5 c 128,-1,52
 361 75 361 75 424 75 c 0,53,54
 478 75 478 75 529.5 92 c 128,-1,55
 581 109 581 109 625.5 139 c 128,-1,56
 670 169 670 169 706 210 c 128,-1,57
 742 251 742 251 764 299 c 1,58,-1
 846 244 l 1,59,60
 781 137 781 137 690.5 72.5 c 128,-1,61
 600 8 600 8 474 -6 c 1,62,-1
 378 -120 l 1,63,64
 412 -120 412 -120 441 -128 c 128,-1,65
 470 -136 470 -136 491.5 -153 c 128,-1,66
 513 -170 513 -170 525.5 -196.5 c 128,-1,67
 538 -223 538 -223 538 -260 c 0,68,69
 538 -308 538 -308 517.5 -351.5 c 128,-1,70
 497 -395 497 -395 463 -427.5 c 128,-1,71
 429 -460 429 -460 384.5 -479.5 c 128,-1,72
 340 -499 340 -499 293 -499 c 0,0,1
EndSplineSet
EndChar

StartChar: eth
Encoding: 240 240 175
Width: 1191
GlyphClass: 1
Flags: W
LayerCount: 2
Fore
SplineSet
473 -16 m 0,0,1
 381 -16 381 -16 311 15 c 128,-1,2
 241 46 241 46 194.5 101 c 128,-1,3
 148 156 148 156 124.5 231 c 128,-1,4
 101 306 101 306 101 393 c 0,5,6
 101 473 101 473 120.5 553.5 c 128,-1,7
 140 634 140 634 176 708.5 c 128,-1,8
 212 783 212 783 263.5 847 c 128,-1,9
 315 911 315 911 380 958.5 c 128,-1,10
 445 1006 445 1006 521.5 1033 c 128,-1,11
 598 1060 598 1060 684 1060 c 0,12,13
 719 1060 719 1060 760 1054 c 128,-1,14
 801 1048 801 1048 840.5 1034.5 c 128,-1,15
 880 1021 880 1021 913.5 999 c 128,-1,16
 947 977 947 977 965 944 c 1,17,18
 967 956 967 956 968.5 967.5 c 128,-1,19
 970 979 970 979 970 991 c 0,20,21
 970 1041 970 1041 955 1085.5 c 128,-1,22
 940 1130 940 1130 914.5 1169.5 c 128,-1,23
 889 1209 889 1209 855.5 1243.5 c 128,-1,24
 822 1278 822 1278 785 1308 c 1,25,-1
 650 1177 l 1,26,-1
 573 1226 l 1,27,-1
 710 1362 l 1,28,29
 670 1385 670 1385 629.5 1405.5 c 128,-1,30
 589 1426 589 1426 546 1443 c 1,31,32
 563 1462 563 1462 582.5 1478.5 c 128,-1,33
 602 1495 602 1495 619 1514 c 1,34,35
 662 1497 662 1497 703.5 1478.5 c 128,-1,36
 745 1460 745 1460 785 1437 c 1,37,-1
 872 1523 l 1,38,-1
 952 1474 l 1,39,-1
 864 1387 l 1,40,41
 929 1334 929 1334 975.5 1274 c 128,-1,42
 1022 1214 1022 1214 1051 1146.5 c 128,-1,43
 1080 1079 1080 1079 1093.5 1004 c 128,-1,44
 1107 929 1107 929 1107 846 c 0,45,46
 1107 732 1107 732 1088.5 617.5 c 128,-1,47
 1070 503 1070 503 1026.5 398.5 c 128,-1,48
 983 294 983 294 912 205.5 c 128,-1,49
 841 117 841 117 737 56 c 0,50,51
 676 21 676 21 610 2.5 c 128,-1,52
 544 -16 544 -16 473 -16 c 0,0,1
480 87 m 0,53,54
 554 87 554 87 618.5 114 c 128,-1,55
 683 141 683 141 736.5 186.5 c 128,-1,56
 790 232 790 232 832 293 c 128,-1,57
 874 354 874 354 902.5 421.5 c 128,-1,58
 931 489 931 489 946 559.5 c 128,-1,59
 961 630 961 630 961 696 c 0,60,61
 961 755 961 755 944 804.5 c 128,-1,62
 927 854 927 854 894.5 889.5 c 128,-1,63
 862 925 862 925 814.5 945 c 128,-1,64
 767 965 767 965 706 965 c 0,65,66
 630 965 630 965 565 940.5 c 128,-1,67
 500 916 500 916 446.5 874 c 128,-1,68
 393 832 393 832 352 775.5 c 128,-1,69
 311 719 311 719 283 654 c 128,-1,70
 255 589 255 589 240.5 519 c 128,-1,71
 226 449 226 449 226 381 c 0,72,73
 226 319 226 319 240.5 265.5 c 128,-1,74
 255 212 255 212 285.5 172 c 128,-1,75
 316 132 316 132 364.5 109.5 c 128,-1,76
 413 87 413 87 480 87 c 0,53,54
EndSplineSet
EndChar

StartChar: divide
Encoding: 247 247 182
Width: 850
GlyphClass: 1
Flags: W
LayerCount: 2
Fore
SplineSet
499 935 m 1,0,-1
 338 935 l 1,1,-1
 338 1095 l 1,2,-1
 499 1095 l 1,3,-1
 499 935 l 1,0,-1
686 588 m 1,4,-1
 152 588 l 1,5,-1
 152 667 l 1,6,-1
 686 667 l 1,7,-1
 686 588 l 1,4,-1
499 142 m 1,8,-1
 338 142 l 1,9,-1
 338 301 l 1,10,-1
 499 301 l 1,11,-1
 499 142 l 1,8,-1
EndSplineSet
EndChar

StartChar: oslash
Encoding: 248 248 183
Width: 1157
GlyphClass: 1
Flags: W
LayerCount: 2
Fore
SplineSet
462 -20 m 0,0,1
 405 -20 405 -20 349.5 -5.5 c 128,-1,2
 294 9 294 9 246 41 c 1,3,-1
 213 1 l 1,4,-1
 142 1 l 1,5,-1
 201 77 l 1,6,7
 143 139 143 139 117 218 c 128,-1,8
 91 297 91 297 91 381 c 0,9,10
 91 461 91 461 112 542 c 128,-1,11
 133 623 133 623 171.5 697.5 c 128,-1,12
 210 772 210 772 264.5 836.5 c 128,-1,13
 319 901 319 901 385.5 949 c 128,-1,14
 452 997 452 997 529.5 1024.5 c 128,-1,15
 607 1052 607 1052 692 1052 c 0,16,17
 751 1052 751 1052 807 1037.5 c 128,-1,18
 863 1023 863 1023 911 989 c 1,19,-1
 951 1038 l 1,20,-1
 1022 1038 l 1,21,-1
 955 953 l 1,22,23
 1013 892 1013 892 1038.5 813.5 c 128,-1,24
 1064 735 1064 735 1064 653 c 0,25,26
 1064 573 1064 573 1043 492 c 128,-1,27
 1022 411 1022 411 983.5 336.5 c 128,-1,28
 945 262 945 262 890.5 196.5 c 128,-1,29
 836 131 836 131 769 83 c 128,-1,30
 702 35 702 35 624.5 7.5 c 128,-1,31
 547 -20 547 -20 462 -20 c 0,0,1
272 167 m 1,32,-1
 845 906 l 1,33,34
 810 930 810 930 768 940 c 128,-1,35
 726 950 726 950 683 950 c 0,36,37
 612 950 612 950 548 925.5 c 128,-1,38
 484 901 484 901 430.5 858.5 c 128,-1,39
 377 816 377 816 334.5 759.5 c 128,-1,40
 292 703 292 703 262 639 c 128,-1,41
 232 575 232 575 216 507 c 128,-1,42
 200 439 200 439 200 374 c 0,43,44
 200 316 200 316 216 264 c 128,-1,45
 232 212 232 212 272 167 c 1,32,-1
471 82 m 0,46,47
 544 82 544 82 608 106.5 c 128,-1,48
 672 131 672 131 726 173.5 c 128,-1,49
 780 216 780 216 822.5 273 c 128,-1,50
 865 330 865 330 894.5 394.5 c 128,-1,51
 924 459 924 459 939.5 528 c 128,-1,52
 955 597 955 597 955 663 c 0,53,54
 955 720 955 720 939.5 770.5 c 128,-1,55
 924 821 924 821 888 866 c 1,56,-1
 314 127 l 1,57,58
 349 103 349 103 389 92.5 c 128,-1,59
 429 82 429 82 471 82 c 0,46,47
EndSplineSet
EndChar

StartChar: thorn
Encoding: 254 254 189
Width: 1185
GlyphClass: 1
Flags: W
LayerCount: 2
Fore
SplineSet
86 -440 m 1,0,-1
 -21 -440 l 1,1,-1
 425 1413 l 1,2,-1
 533 1413 l 1,3,4
 498 1271 498 1271 460 1131.5 c 128,-1,5
 422 992 422 992 387 850 c 1,6,7
 462 950 462 950 560 1005 c 128,-1,8
 658 1060 658 1060 785 1060 c 0,9,10
 865 1060 865 1060 921 1031.5 c 128,-1,11
 977 1003 977 1003 1012 954 c 128,-1,12
 1047 905 1047 905 1063 840.5 c 128,-1,13
 1079 776 1079 776 1079 704 c 0,14,15
 1079 607 1079 607 1055.5 503 c 128,-1,16
 1032 399 1032 399 985 305 c 128,-1,17
 938 211 938 211 868 134 c 128,-1,18
 798 57 798 57 705 13 c 0,19,20
 636 -20 636 -20 558 -20 c 0,21,22
 441 -20 441 -20 359 31.5 c 128,-1,23
 277 83 277 83 245 200 c 1,24,25
 203 39 203 39 164.5 -120 c 128,-1,26
 126 -279 126 -279 86 -440 c 1,0,-1
517 62 m 0,27,28
 593 62 593 62 657 91 c 128,-1,29
 721 120 721 120 772.5 169 c 128,-1,30
 824 218 824 218 863 283 c 128,-1,31
 902 348 902 348 928.5 418.5 c 128,-1,32
 955 489 955 489 968 561.5 c 128,-1,33
 981 634 981 634 981 699 c 0,34,35
 981 757 981 757 968.5 808 c 128,-1,36
 956 859 956 859 928 896.5 c 128,-1,37
 900 934 900 934 855 956 c 128,-1,38
 810 978 810 978 746 978 c 0,39,40
 671 978 671 978 606.5 949 c 128,-1,41
 542 920 542 920 490 871.5 c 128,-1,42
 438 823 438 823 398 758.5 c 128,-1,43
 358 694 358 694 331 623.5 c 128,-1,44
 304 553 304 553 290 481 c 128,-1,45
 276 409 276 409 276 344 c 0,46,47
 276 284 276 284 289 232.5 c 128,-1,48
 302 181 302 181 331 143 c 128,-1,49
 360 105 360 105 405.5 83.5 c 128,-1,50
 451 62 451 62 517 62 c 0,27,28
EndSplineSet
EndChar

StartChar: Aogonek
Encoding: 260 260 195
Width: 1295
GlyphClass: 1
Flags: W
LayerCount: 2
Fore
SplineSet
870 -453 m 0,0,1
 795 -453 795 -453 751.5 -411.5 c 128,-1,2
 708 -370 708 -370 708 -294 c 0,3,4
 708 -231 708 -231 735 -182.5 c 128,-1,5
 762 -134 762 -134 805 -98.5 c 128,-1,6
 848 -63 848 -63 901.5 -39 c 128,-1,7
 955 -15 955 -15 1009 0 c 1,8,-1
 971 0 l 1,9,10
 963 78 963 78 953.5 154 c 128,-1,11
 944 230 944 230 935 308 c 1,12,-1
 277 308 l 1,13,-1
 99 0 l 1,14,-1
 -28 0 l 1,15,16
 184 355 184 355 393 706.5 c 128,-1,17
 602 1058 602 1058 815 1413 c 1,18,-1
 904 1413 l 1,19,-1
 1091 0 l 1,20,21
 1076 -2 1076 -2 1061 -8 c 128,-1,22
 1046 -14 1046 -14 1032 -20 c 0,23,24
 996 -37 996 -37 954.5 -63.5 c 128,-1,25
 913 -90 913 -90 878 -124.5 c 128,-1,26
 843 -159 843 -159 819.5 -199.5 c 128,-1,27
 796 -240 796 -240 796 -284 c 0,28,29
 796 -313 796 -313 811.5 -336 c 128,-1,30
 827 -359 827 -359 859 -359 c 0,31,32
 905 -359 905 -359 943.5 -341 c 128,-1,33
 982 -323 982 -323 1013 -289 c 1,34,-1
 1084 -350 l 1,35,36
 1038 -399 1038 -399 988 -426 c 128,-1,37
 938 -453 938 -453 870 -453 c 0,0,1
921 419 m 1,38,-1
 826 1248 l 1,39,-1
 339 419 l 1,40,-1
 921 419 l 1,38,-1
EndSplineSet
Position2: "'cpsp' Capital Spacing lookup 0 per glyph data 0" dx=5 dy=0 dh=10 dv=0
EndChar

StartChar: dcaron
Encoding: 271 271 206
Width: 1273
GlyphClass: 1
Flags: W
LayerCount: 2
Fore
SplineSet
409 -20 m 0,0,1
 327 -20 327 -20 268.5 9.5 c 128,-1,2
 210 39 210 39 173 89 c 128,-1,3
 136 139 136 139 119 205.5 c 128,-1,4
 102 272 102 272 102 346 c 0,5,6
 102 427 102 427 119.5 512.5 c 128,-1,7
 137 598 137 598 170.5 678.5 c 128,-1,8
 204 759 204 759 253 830.5 c 128,-1,9
 302 902 302 902 366 954 c 0,10,11
 425 1003 425 1003 491.5 1031.5 c 128,-1,12
 558 1060 558 1060 636 1060 c 0,13,14
 743 1060 743 1060 820 1017 c 128,-1,15
 897 974 897 974 942 874 c 1,16,-1
 1083 1413 l 1,17,-1
 1192 1413 l 1,18,-1
 852 0 l 1,19,-1
 745 0 l 1,20,-1
 783 159 l 1,21,22
 706 74 706 74 616 27 c 128,-1,23
 526 -20 526 -20 409 -20 c 0,0,1
1319 1085 m 1,24,-1
 1224 1085 l 1,25,26
 1273 1166 1273 1166 1319.5 1248 c 128,-1,27
 1366 1330 1366 1330 1414 1413 c 1,28,-1
 1614 1413 l 1,29,-1
 1319 1085 l 1,24,-1
439 74 m 0,30,31
 514 74 514 74 577 102 c 128,-1,32
 640 130 640 130 690.5 177.5 c 128,-1,33
 741 225 741 225 779.5 288 c 128,-1,34
 818 351 818 351 843.5 420 c 128,-1,35
 869 489 869 489 882 560 c 128,-1,36
 895 631 895 631 895 695 c 0,37,38
 895 752 895 752 882.5 801 c 128,-1,39
 870 850 870 850 842 885.5 c 128,-1,40
 814 921 814 921 770 941.5 c 128,-1,41
 726 962 726 962 664 962 c 0,42,43
 569 962 569 962 496.5 921.5 c 128,-1,44
 424 881 424 881 371.5 816.5 c 128,-1,45
 319 752 319 752 284.5 671 c 128,-1,46
 250 590 250 590 230 509 c 0,47,48
 220 468 220 468 214 428 c 128,-1,49
 208 388 208 388 208 346 c 0,50,51
 208 289 208 289 220.5 239 c 128,-1,52
 233 189 233 189 260.5 152.5 c 128,-1,53
 288 116 288 116 332 95 c 128,-1,54
 376 74 376 74 439 74 c 0,30,31
EndSplineSet
EndChar

StartChar: dcroat
Encoding: 273 273 208
Width: 1169
GlyphClass: 1
Flags: W
LayerCount: 2
Fore
SplineSet
409 -20 m 0,0,1
 327 -20 327 -20 268.5 9 c 128,-1,2
 210 38 210 38 173 88 c 128,-1,3
 136 138 136 138 119 204.5 c 128,-1,4
 102 271 102 271 102 346 c 0,5,6
 102 426 102 426 119.5 512 c 128,-1,7
 137 598 137 598 170.5 679 c 128,-1,8
 204 760 204 760 253 831.5 c 128,-1,9
 302 903 302 903 366 955 c 0,10,11
 425 1003 425 1003 492 1031.5 c 128,-1,12
 559 1060 559 1060 636 1060 c 0,13,14
 743 1060 743 1060 820 1017 c 128,-1,15
 897 974 897 974 942 874 c 1,16,-1
 1023 1192 l 1,17,-1
 697 1192 l 1,18,19
 702 1215 702 1215 708.5 1238.5 c 128,-1,20
 715 1262 715 1262 720 1285 c 1,21,-1
 1047 1285 l 1,22,23
 1055 1317 1055 1317 1064.5 1349 c 128,-1,24
 1074 1381 1074 1381 1083 1413 c 1,25,-1
 1191 1413 l 1,26,27
 1183 1381 1183 1381 1174 1349 c 128,-1,28
 1165 1317 1165 1317 1155 1285 c 1,29,-1
 1377 1285 l 1,30,31
 1372 1262 1372 1262 1366 1238.5 c 128,-1,32
 1360 1215 1360 1215 1354 1192 c 1,33,-1
 1134 1192 l 1,34,35
 1064 892 1064 892 992.5 596 c 128,-1,36
 921 300 921 300 851 0 c 1,37,-1
 742 0 l 1,38,-1
 776 151 l 1,39,40
 737 109 737 109 696.5 77.5 c 128,-1,41
 656 46 656 46 611.5 24 c 128,-1,42
 567 2 567 2 517 -9 c 128,-1,43
 467 -20 467 -20 409 -20 c 0,0,1
439 74 m 0,44,45
 514 74 514 74 577 102 c 128,-1,46
 640 130 640 130 690.5 177.5 c 128,-1,47
 741 225 741 225 779.5 288 c 128,-1,48
 818 351 818 351 843.5 420 c 128,-1,49
 869 489 869 489 882 560 c 128,-1,50
 895 631 895 631 895 695 c 0,51,52
 895 752 895 752 882.5 801 c 128,-1,53
 870 850 870 850 842 885.5 c 128,-1,54
 814 921 814 921 770 941.5 c 128,-1,55
 726 962 726 962 664 962 c 0,56,57
 590 962 590 962 527 934 c 128,-1,58
 464 906 464 906 413.5 859 c 128,-1,59
 363 812 363 812 324.5 750 c 128,-1,60
 286 688 286 688 260 619.5 c 128,-1,61
 234 551 234 551 221 480.5 c 128,-1,62
 208 410 208 410 208 346 c 0,63,64
 208 289 208 289 220.5 239 c 128,-1,65
 233 189 233 189 260.5 152.5 c 128,-1,66
 288 116 288 116 332 95 c 128,-1,67
 376 74 376 74 439 74 c 0,44,45
EndSplineSet
EndChar

StartChar: Eogonek
Encoding: 280 280 215
Width: 1252
GlyphClass: 1
Flags: W
LayerCount: 2
Fore
SplineSet
798 -453 m 0,0,1
 723 -453 723 -453 679.5 -411.5 c 128,-1,2
 636 -370 636 -370 636 -294 c 0,3,4
 636 -231 636 -231 663 -182.5 c 128,-1,5
 690 -134 690 -134 733 -98.5 c 128,-1,6
 776 -63 776 -63 829.5 -39 c 128,-1,7
 883 -15 883 -15 937 0 c 1,8,-1
 119 0 l 1,9,10
 200 355 200 355 281.5 706.5 c 128,-1,11
 363 1058 363 1058 444 1413 c 1,12,-1
 1347 1413 l 1,13,-1
 1326 1321 l 1,14,-1
 538 1321 l 1,15,-1
 408 751 l 1,16,-1
 1074 751 l 1,17,18
 1065 708 1065 708 1053 664 c 1,19,-1
 385 664 l 1,20,-1
 255 101 l 1,21,-1
 1044 101 l 1,22,-1
 1022 0 l 1,23,24
 995 0 995 0 954.5 -20.5 c 128,-1,25
 914 -41 914 -41 874.5 -70.5 c 128,-1,26
 835 -100 835 -100 801.5 -132 c 128,-1,27
 768 -164 768 -164 754 -186 c 0,28,29
 740 -209 740 -209 732 -233 c 128,-1,30
 724 -257 724 -257 724 -284 c 0,31,32
 724 -313 724 -313 739.5 -336 c 128,-1,33
 755 -359 755 -359 787 -359 c 0,34,35
 833 -359 833 -359 871.5 -341 c 128,-1,36
 910 -323 910 -323 941 -289 c 1,37,-1
 1012 -350 l 1,38,39
 966 -399 966 -399 916 -426 c 128,-1,40
 866 -453 866 -453 798 -453 c 0,0,1
EndSplineSet
Position2: "'cpsp' Capital Spacing lookup 0 per glyph data 0" dx=5 dy=0 dh=10 dv=0
EndChar

StartChar: uni0123
Encoding: 291 291 226
Width: 1028
GlyphClass: 1
Flags: W
LayerCount: 2
Fore
SplineSet
756 1161 m 1,0,-1
 557 1161 l 1,1,-1
 859 1417 l 1,2,-1
 953 1417 l 1,3,-1
 756 1161 l 1,0,-1
345 -433 m 0,4,5
 291 -433 291 -433 238.5 -423 c 128,-1,6
 186 -413 186 -413 139.5 -390 c 128,-1,7
 93 -367 93 -367 56 -330 c 128,-1,8
 19 -293 19 -293 -3 -240 c 1,9,-1
 92 -189 l 1,10,11
 126 -272 126 -272 191.5 -307.5 c 128,-1,12
 257 -343 257 -343 343 -343 c 0,13,14
 421 -343 421 -343 487 -316 c 128,-1,15
 553 -289 553 -289 604.5 -242 c 128,-1,16
 656 -195 656 -195 691.5 -132 c 128,-1,17
 727 -69 727 -69 745 4 c 2,18,-1
 784 157 l 1,19,20
 711 76 711 76 621 26.5 c 128,-1,21
 531 -23 531 -23 419 -23 c 0,22,23
 336 -23 336 -23 276 5 c 128,-1,24
 216 33 216 33 177.5 82 c 128,-1,25
 139 131 139 131 120.5 197.5 c 128,-1,26
 102 264 102 264 102 341 c 0,27,28
 102 417 102 417 118 500 c 128,-1,29
 134 583 134 583 165.5 662.5 c 128,-1,30
 197 742 197 742 243.5 814.5 c 128,-1,31
 290 887 290 887 350.5 941.5 c 128,-1,32
 411 996 411 996 485.5 1028 c 128,-1,33
 560 1060 560 1060 647 1060 c 0,34,35
 753 1060 753 1060 826.5 1014.5 c 128,-1,36
 900 969 900 969 943 871 c 1,37,-1
 984 1039 l 1,38,-1
 1095 1039 l 1,39,-1
 852 4 l 2,40,41
 829 -93 829 -93 786 -173.5 c 128,-1,42
 743 -254 743 -254 679.5 -311.5 c 128,-1,43
 616 -369 616 -369 532.5 -401 c 128,-1,44
 449 -433 449 -433 345 -433 c 0,4,5
439 65 m 0,45,46
 514 65 514 65 577 94 c 128,-1,47
 640 123 640 123 691 172.5 c 128,-1,48
 742 222 742 222 780.5 286 c 128,-1,49
 819 350 819 350 845 420.5 c 128,-1,50
 871 491 871 491 884 562.5 c 128,-1,51
 897 634 897 634 897 698 c 0,52,53
 897 755 897 755 885 804 c 128,-1,54
 873 853 873 853 846 890 c 128,-1,55
 819 927 819 927 776 948 c 128,-1,56
 733 969 733 969 670 969 c 0,57,58
 575 969 575 969 501.5 927.5 c 128,-1,59
 428 886 428 886 374 820 c 128,-1,60
 320 754 320 754 284.5 671.5 c 128,-1,61
 249 589 249 589 230 508 c 0,62,63
 220 466 220 466 214 424 c 128,-1,64
 208 382 208 382 208 339 c 0,65,66
 208 282 208 282 220.5 232.5 c 128,-1,67
 233 183 233 183 261 145.5 c 128,-1,68
 289 108 289 108 332.5 86.5 c 128,-1,69
 376 65 376 65 439 65 c 0,45,46
EndSplineSet
EndChar

StartChar: Hbar
Encoding: 294 294 229
Width: 1456
GlyphClass: 1
Flags: W
LayerCount: 2
Fore
SplineSet
1109 0 m 1,0,-1
 995 0 l 1,1,-1
 1146 664 l 1,2,-1
 385 664 l 1,3,-1
 233 0 l 1,4,-1
 119 0 l 1,5,-1
 369 1086 l 1,6,-1
 247 1086 l 1,7,-1
 260 1148 l 1,8,-1
 383 1148 l 1,9,-1
 444 1413 l 1,10,-1
 558 1413 l 1,11,-1
 497 1148 l 1,12,-1
 1260 1148 l 1,13,-1
 1321 1413 l 1,14,-1
 1435 1413 l 1,15,-1
 1374 1148 l 1,16,-1
 1489 1148 l 1,17,-1
 1476 1086 l 1,18,-1
 1359 1086 l 1,19,-1
 1109 0 l 1,0,-1
1169 751 m 1,20,-1
 1246 1086 l 1,21,-1
 483 1086 l 1,22,-1
 408 751 l 1,23,-1
 1169 751 l 1,20,-1
EndSplineSet
Position2: "'cpsp' Capital Spacing lookup 0 per glyph data 0" dx=5 dy=0 dh=10 dv=0
EndChar

StartChar: hbar
Encoding: 295 295 230
Width: 1151
GlyphClass: 1
Flags: W
LayerCount: 2
Fore
SplineSet
873 0 m 1,0,-1
 762 0 l 1,1,-1
 836 315 l 2,2,3
 849 371 849 371 864.5 427.5 c 128,-1,4
 880 484 880 484 893 541 c 128,-1,5
 906 598 906 598 915 655.5 c 128,-1,6
 924 713 924 713 924 770 c 0,7,8
 924 858 924 858 883.5 907.5 c 128,-1,9
 843 957 843 957 751 957 c 0,10,11
 670 957 670 957 598.5 924 c 128,-1,12
 527 891 527 891 469.5 836 c 128,-1,13
 412 781 412 781 371 710.5 c 128,-1,14
 330 640 330 640 311 566 c 0,15,16
 274 425 274 425 243.5 283.5 c 128,-1,17
 213 142 213 142 179 0 c 1,18,-1
 74 0 l 1,19,-1
 348 1165 l 1,20,-1
 142 1165 l 1,21,22
 147 1188 147 1188 153 1211 c 1,23,-1
 153 1212 l 2,24,25
 154 1216 154 1216 155 1220 c 2,26,-1
 156 1222 l 2,27,28
 158 1230 158 1230 160 1239 c 1,29,-1
 161 1240 l 2,30,31
 162 1244 162 1244 163 1248 c 2,32,-1
 163 1249 l 2,33,34
 164 1253 164 1253 165 1257 c 1,35,-1
 369 1257 l 1,36,-1
 414 1413 l 1,37,-1
 519 1413 l 1,38,39
 508 1374 508 1374 498 1335 c 128,-1,40
 488 1296 488 1296 476 1257 c 1,41,-1
 822 1257 l 1,42,43
 817 1234 817 1234 811 1211 c 0,44,45
 810 1207 810 1207 809 1203 c 2,46,-1
 809 1202 l 2,47,48
 806 1193 806 1193 804 1185 c 2,49,-1
 804 1183 l 2,50,51
 803 1180 803 1180 802 1176 c 2,52,-1
 801 1174 l 2,53,54
 800 1170 800 1170 799 1166 c 2,55,-1
 799 1165 l 1,56,-1
 452 1165 l 1,57,58
 431 1085 431 1085 412 1005 c 128,-1,59
 393 925 393 925 372 845 c 1,60,61
 406 891 406 891 450.5 929.5 c 128,-1,62
 495 968 495 968 546 996 c 128,-1,63
 597 1024 597 1024 653.5 1040 c 128,-1,64
 710 1056 710 1056 768 1056 c 0,65,66
 901 1056 901 1056 967 983.5 c 128,-1,67
 1033 911 1033 911 1033 781 c 0,68,69
 1033 746 1033 746 1029 711.5 c 128,-1,70
 1025 677 1025 677 1017 643 c 2,71,-1
 873 0 l 1,0,-1
EndSplineSet
EndChar

StartChar: Iogonek
Encoding: 302 302 237
Width: 579
GlyphClass: 1
Flags: W
LayerCount: 2
Fore
SplineSet
8 -453 m 0,0,1
 -67 -453 -67 -453 -110.5 -411.5 c 128,-1,2
 -154 -370 -154 -370 -154 -294 c 0,3,4
 -154 -231 -154 -231 -127 -182.5 c 128,-1,5
 -100 -134 -100 -134 -57 -98.5 c 128,-1,6
 -14 -63 -14 -63 39.5 -39 c 128,-1,7
 93 -15 93 -15 147 0 c 1,8,-1
 118 0 l 1,9,10
 199 355 199 355 280.5 706.5 c 128,-1,11
 362 1058 362 1058 443 1413 c 1,12,-1
 557 1413 l 1,13,14
 476 1058 476 1058 394.5 706.5 c 128,-1,15
 313 355 313 355 232 0 c 1,16,17
 215 0 215 0 199.5 -6.5 c 128,-1,18
 184 -13 184 -13 170 -20 c 0,19,20
 133 -37 133 -37 91.5 -63.5 c 128,-1,21
 50 -90 50 -90 15 -124.5 c 128,-1,22
 -20 -159 -20 -159 -43 -199.5 c 128,-1,23
 -66 -240 -66 -240 -66 -284 c 0,24,25
 -66 -313 -66 -313 -50.5 -336 c 128,-1,26
 -35 -359 -35 -359 -3 -359 c 0,27,28
 43 -359 43 -359 81.5 -341 c 128,-1,29
 120 -323 120 -323 151 -289 c 1,30,-1
 222 -350 l 1,31,32
 176 -399 176 -399 126 -426 c 128,-1,33
 76 -453 76 -453 8 -453 c 0,0,1
EndSplineSet
Position2: "'cpsp' Capital Spacing lookup 0 per glyph data 0" dx=5 dy=0 dh=10 dv=0
EndChar

StartChar: iogonek
Encoding: 303 303 238
Width: 528
GlyphClass: 1
Flags: W
LayerCount: 2
Fore
SplineSet
508 1239 m 1,0,-1
 369 1239 l 1,1,-1
 412 1413 l 1,2,-1
 550 1413 l 1,3,-1
 508 1239 l 1,0,-1
-31 -453 m 0,4,5
 -106 -453 -106 -453 -152 -412 c 128,-1,6
 -198 -371 -198 -371 -198 -294 c 0,7,8
 -198 -230 -198 -230 -170 -181 c 128,-1,9
 -142 -132 -142 -132 -97 -97 c 128,-1,10
 -52 -62 -52 -62 3 -38.5 c 128,-1,11
 58 -15 58 -15 112 0 c 1,12,-1
 84 0 l 1,13,-1
 322 997 l 1,14,-1
 439 997 l 1,15,-1
 200 0 l 1,16,17
 169 -2 169 -2 128.5 -21.5 c 128,-1,18
 88 -41 88 -41 47.5 -69.5 c 128,-1,19
 7 -98 7 -98 -27 -130 c 128,-1,20
 -61 -162 -61 -162 -79 -187 c 0,21,22
 -110 -230 -110 -230 -110 -284 c 0,23,24
 -110 -314 -110 -314 -93.5 -336.5 c 128,-1,25
 -77 -359 -77 -359 -45 -359 c 0,26,27
 3 -359 3 -359 43 -341 c 128,-1,28
 83 -323 83 -323 116 -289 c 1,29,-1
 190 -350 l 1,30,31
 142 -399 142 -399 90.5 -426 c 128,-1,32
 39 -453 39 -453 -31 -453 c 0,4,5
EndSplineSet
EndChar

StartChar: dotlessi
Encoding: 305 305 240
Width: 502
GlyphClass: 2
Flags: W
LayerCount: 2
Fore
SplineSet
192 0 m 1,0,-1
 81 0 l 1,1,-1
 309 1039 l 1,2,-1
 421 1039 l 1,3,-1
 192 0 l 1,0,-1
EndSplineSet
EndChar

StartChar: kgreenlandic
Encoding: 312 312 247
Width: 1062
GlyphClass: 1
Flags: W
LayerCount: 2
Fore
SplineSet
834 0 m 1,0,-1
 703 0 l 1,1,-1
 505 565 l 1,2,-1
 204 305 l 1,3,-1
 133 0 l 1,4,-1
 22 0 l 1,5,-1
 262 1040 l 1,6,-1
 373 1040 l 1,7,-1
 240 460 l 1,8,-1
 873 1039 l 1,9,-1
 1005 1039 l 1,10,-1
 598 656 l 1,11,-1
 834 0 l 1,0,-1
EndSplineSet
EndChar

StartChar: Lcaron
Encoding: 317 317 252
Width: 1030
GlyphClass: 1
Flags: W
LayerCount: 2
Fore
SplineSet
835 0 m 1,0,-1
 112 0 l 1,1,-1
 439 1413 l 1,2,-1
 553 1413 l 1,3,-1
 249 101 l 1,4,-1
 856 101 l 1,5,-1
 835 0 l 1,0,-1
795 1046 m 1,6,-1
 704 1046 l 1,7,-1
 886 1413 l 1,8,-1
 1077 1413 l 1,9,-1
 795 1046 l 1,6,-1
EndSplineSet
Position2: "'cpsp' Capital Spacing lookup 0 per glyph data 0" dx=5 dy=0 dh=10 dv=0
EndChar

StartChar: lcaron
Encoding: 318 318 253
Width: 609
GlyphClass: 1
Flags: W
LayerCount: 2
Fore
SplineSet
222 -21 m 0,0,1
 195 -21 195 -21 172 -17.5 c 128,-1,2
 149 -14 149 -14 131.5 -3.5 c 128,-1,3
 114 7 114 7 104 26.5 c 128,-1,4
 94 46 94 46 94 77 c 0,5,6
 94 109 94 109 99.5 139.5 c 128,-1,7
 105 170 105 170 113 200 c 0,8,9
 151 352 151 352 188 503 c 128,-1,10
 225 654 225 654 261 806 c 0,11,12
 296 958 296 958 331.5 1109.5 c 128,-1,13
 367 1261 367 1261 403 1413 c 1,14,-1
 514 1413 l 1,15,16
 454 1158 454 1158 392.5 907 c 128,-1,17
 331 656 331 656 271 402 c 2,18,-1
 240 270 l 2,19,20
 239 264 239 264 234.5 245 c 128,-1,21
 230 226 230 226 225 205 c 128,-1,22
 220 184 220 184 215.5 166.5 c 128,-1,23
 211 149 211 149 210 146 c 0,24,25
 204 133 204 133 200.5 124 c 128,-1,26
 197 115 197 115 197 100 c 0,27,28
 197 88 197 88 200.5 78 c 128,-1,29
 204 68 204 68 219 68 c 0,30,31
 282 68 282 68 340 81 c 1,32,-1
 330 -3 l 1,33,34
 320 -7 320 -7 306 -10.5 c 128,-1,35
 292 -14 292 -14 277 -16 c 128,-1,36
 262 -18 262 -18 247.5 -19.5 c 128,-1,37
 233 -21 233 -21 222 -21 c 0,0,1
654 1046 m 1,38,-1
 560 1046 l 1,39,-1
 749 1413 l 1,40,-1
 948 1413 l 1,41,-1
 654 1046 l 1,38,-1
EndSplineSet
EndChar

StartChar: Lslash
Encoding: 321 321 256
Width: 1058
GlyphClass: 1
Flags: W
LayerCount: 2
Fore
SplineSet
864 0 m 1,0,-1
 143 0 l 1,1,-1
 258 501 l 1,2,-1
 29 353 l 1,3,-1
 59 467 l 1,4,-1
 285 618 l 1,5,-1
 468 1413 l 1,6,-1
 582 1413 l 1,7,-1
 419 707 l 1,8,-1
 864 1004 l 1,9,-1
 827 863 l 1,10,-1
 391 584 l 1,11,-1
 279 101 l 1,12,-1
 886 101 l 1,13,-1
 864 0 l 1,0,-1
EndSplineSet
Position2: "'cpsp' Capital Spacing lookup 0 per glyph data 0" dx=5 dy=0 dh=10 dv=0
EndChar

StartChar: lslash
Encoding: 322 322 257
Width: 507
GlyphClass: 1
Flags: W
LayerCount: 2
Fore
SplineSet
205 -20 m 0,0,1
 183 -20 183 -20 162.5 -16.5 c 128,-1,2
 142 -13 142 -13 126 -3 c 128,-1,3
 110 7 110 7 100.5 23.5 c 128,-1,4
 91 40 91 40 91 66 c 0,5,6
 91 105 91 105 102 144.5 c 128,-1,7
 113 184 113 184 122 222 c 2,8,-1
 184 492 l 1,9,-1
 -11 287 l 1,10,-1
 41 446 l 1,11,-1
 216 633 l 1,12,-1
 395 1413 l 1,13,-1
 502 1413 l 1,14,-1
 359 791 l 1,15,-1
 561 1006 l 1,16,-1
 507 847 l 1,17,-1
 327 651 l 1,18,-1
 202 107 l 1,19,20
 206 90 206 90 213 81 c 128,-1,21
 220 72 220 72 239 72 c 0,22,23
 265 72 265 72 291.5 74 c 128,-1,24
 318 76 318 76 342 84 c 1,25,-1
 321 -1 l 1,26,27
 293 -12 293 -12 263.5 -16 c 128,-1,28
 234 -20 234 -20 205 -20 c 0,0,1
EndSplineSet
EndChar

StartChar: Eng
Encoding: 330 330 265
Width: 1412
GlyphClass: 1
Flags: W
LayerCount: 2
Fore
SplineSet
658 -370 m 1,0,-1
 677 -271 l 1,1,2
 716 -271 716 -271 755.5 -262 c 128,-1,3
 795 -253 795 -253 827 -233 c 128,-1,4
 859 -213 859 -213 879 -181.5 c 128,-1,5
 899 -150 899 -150 899 -105 c 0,6,7
 899 -85 899 -85 892.5 -65 c 128,-1,8
 886 -45 886 -45 881 -26 c 0,9,10
 795 315 795 315 711.5 656 c 128,-1,11
 628 997 628 997 543 1338 c 1,12,-1
 231 0 l 1,13,-1
 112 0 l 1,14,15
 194 355 194 355 275 706.5 c 128,-1,16
 356 1058 356 1058 439 1413 c 1,17,-1
 643 1413 l 1,18,-1
 966 75 l 1,19,-1
 1277 1413 l 1,20,-1
 1393 1413 l 1,21,22
 1269 881 1269 881 1147 348 c 0,23,24
 1121 238 1121 238 1097 128 c 128,-1,25
 1073 18 1073 18 1044 -91 c 0,26,27
 1032 -133 1032 -133 1015 -173 c 128,-1,28
 998 -213 998 -213 974 -249 c 0,29,30
 944 -294 944 -294 909 -318.5 c 128,-1,31
 874 -343 874 -343 834.5 -354.5 c 128,-1,32
 795 -366 795 -366 750.5 -368 c 128,-1,33
 706 -370 706 -370 658 -370 c 1,0,-1
EndSplineSet
Position2: "'cpsp' Capital Spacing lookup 0 per glyph data 0" dx=5 dy=0 dh=10 dv=0
EndChar

StartChar: eng
Encoding: 331 331 266
Width: 1150
GlyphClass: 1
Flags: W
LayerCount: 2
Fore
SplineSet
454 -370 m 1,0,-1
 478 -276 l 1,1,2
 511 -276 511 -276 542.5 -275 c 128,-1,3
 574 -274 574 -274 606 -261 c 0,4,5
 634 -249 634 -249 655.5 -228.5 c 128,-1,6
 677 -208 677 -208 693 -182.5 c 128,-1,7
 709 -157 709 -157 719.5 -129 c 128,-1,8
 730 -101 730 -101 737 -72 c 2,9,-1
 904 637 l 2,10,11
 912 670 912 670 916 702.5 c 128,-1,12
 920 735 920 735 920 769 c 0,13,14
 920 857 920 857 880 901.5 c 128,-1,15
 840 946 840 946 750 946 c 0,16,17
 678 946 678 946 608.5 918 c 128,-1,18
 539 890 539 890 481.5 842.5 c 128,-1,19
 424 795 424 795 382.5 732.5 c 128,-1,20
 341 670 341 670 324 600 c 2,21,-1
 185 10 l 1,22,-1
 72 10 l 1,23,-1
 311 1039 l 1,24,-1
 425 1039 l 1,25,-1
 380 862 l 1,26,27
 413 904 413 904 455.5 939.5 c 128,-1,28
 498 975 498 975 546.5 1001 c 128,-1,29
 595 1027 595 1027 648.5 1041.5 c 128,-1,30
 702 1056 702 1056 756 1056 c 0,31,32
 894 1056 894 1056 962.5 986 c 128,-1,33
 1031 916 1031 916 1031 779 c 0,34,35
 1031 706 1031 706 1014 633 c 2,36,-1
 844 -91 l 2,37,38
 834 -133 834 -133 819 -173 c 128,-1,39
 804 -213 804 -213 781.5 -247 c 128,-1,40
 759 -281 759 -281 727.5 -308 c 128,-1,41
 696 -335 696 -335 653 -351 c 0,42,43
 605 -368 605 -368 555 -369 c 128,-1,44
 505 -370 505 -370 454 -370 c 1,0,-1
EndSplineSet
EndChar

StartChar: OE
Encoding: 338 338 273
Width: 2344
GlyphClass: 1
Flags: W
LayerCount: 2
Fore
SplineSet
703 -20 m 0,0,1
 584 -20 584 -20 493.5 14 c 128,-1,2
 403 48 403 48 341.5 112.5 c 128,-1,3
 280 177 280 177 249 269.5 c 128,-1,4
 218 362 218 362 218 479 c 0,5,6
 218 537 218 537 225 593.5 c 128,-1,7
 232 650 232 650 244 707 c 0,8,9
 275 854 275 854 338.5 986 c 128,-1,10
 402 1118 402 1118 499 1218 c 128,-1,11
 596 1318 596 1318 725 1377 c 128,-1,12
 854 1436 854 1436 1015 1436 c 0,13,14
 1098 1436 1098 1436 1170.5 1418.5 c 128,-1,15
 1243 1401 1243 1401 1301.5 1364 c 128,-1,16
 1360 1327 1360 1327 1403 1268.5 c 128,-1,17
 1446 1210 1446 1210 1471 1127 c 1,18,-1
 1537 1413 l 1,19,-1
 2440 1413 l 1,20,-1
 2419 1321 l 1,21,-1
 1631 1321 l 1,22,-1
 1501 751 l 1,23,-1
 2167 751 l 1,24,-1
 2146 664 l 1,25,-1
 1478 664 l 1,26,-1
 1348 101 l 1,27,-1
 2137 101 l 1,28,-1
 2115 0 l 1,29,-1
 1212 0 l 1,30,-1
 1271 258 l 1,31,32
 1162 119 1162 119 1020.5 49.5 c 128,-1,33
 879 -20 879 -20 703 -20 c 0,0,1
727 91 m 0,34,35
 838 91 838 91 929.5 127 c 128,-1,36
 1021 163 1021 163 1093.5 226 c 128,-1,37
 1166 289 1166 289 1219.5 374.5 c 128,-1,38
 1273 460 1273 460 1308 559 c 0,39,40
 1337 644 1337 644 1356 734 c 128,-1,41
 1375 824 1375 824 1375 915 c 0,42,43
 1375 1012 1375 1012 1351.5 1088 c 128,-1,44
 1328 1164 1328 1164 1280 1216.5 c 128,-1,45
 1232 1269 1232 1269 1159 1296.5 c 128,-1,46
 1086 1324 1086 1324 986 1324 c 0,47,48
 929 1324 929 1324 873.5 1314.5 c 128,-1,49
 818 1305 818 1305 765 1283 c 0,50,51
 694 1254 694 1254 635.5 1204 c 128,-1,52
 577 1154 577 1154 530.5 1091 c 128,-1,53
 484 1028 484 1028 449 954 c 128,-1,54
 414 880 414 880 391 803 c 128,-1,55
 368 726 368 726 356.5 648.5 c 128,-1,56
 345 571 345 571 345 499 c 0,57,58
 345 466 345 466 346.5 438 c 128,-1,59
 348 410 348 410 353 384 c 128,-1,60
 358 358 358 358 367 331.5 c 128,-1,61
 376 305 376 305 390 275 c 0,62,63
 414 224 414 224 449.5 189 c 128,-1,64
 485 154 485 154 529 132.5 c 128,-1,65
 573 111 573 111 623.5 101 c 128,-1,66
 674 91 674 91 727 91 c 0,34,35
EndSplineSet
Position2: "'cpsp' Capital Spacing lookup 0 per glyph data 0" dx=5 dy=0 dh=10 dv=0
EndChar

StartChar: oe
Encoding: 339 339 274
Width: 1919
GlyphClass: 1
Flags: W
LayerCount: 2
Fore
SplineSet
488 -20 m 0,0,1
 399 -20 399 -20 329.5 11 c 128,-1,2
 260 42 260 42 212 96.5 c 128,-1,3
 164 151 164 151 138.5 225 c 128,-1,4
 113 299 113 299 113 384 c 0,5,6
 113 464 113 464 134 544.5 c 128,-1,7
 155 625 155 625 193.5 699 c 128,-1,8
 232 773 232 773 286 837.5 c 128,-1,9
 340 902 340 902 406.5 949.5 c 128,-1,10
 473 997 473 997 550.5 1024.5 c 128,-1,11
 628 1052 628 1052 712 1052 c 0,12,13
 843 1052 843 1052 935.5 985.5 c 128,-1,14
 1028 919 1028 919 1066 793 c 1,15,16
 1103 849 1103 849 1148.5 896.5 c 128,-1,17
 1194 944 1194 944 1248 978.5 c 128,-1,18
 1302 1013 1302 1013 1364 1032.5 c 128,-1,19
 1426 1052 1426 1052 1495 1052 c 0,20,21
 1570 1052 1570 1052 1633 1034.5 c 128,-1,22
 1696 1017 1696 1017 1741.5 979.5 c 128,-1,23
 1787 942 1787 942 1812.5 884 c 128,-1,24
 1838 826 1838 826 1838 745 c 0,25,26
 1838 679 1838 679 1824 614 c 128,-1,27
 1810 549 1810 549 1792 486 c 1,28,-1
 1067 486 l 1,29,30
 1059 453 1059 453 1053.5 419.5 c 128,-1,31
 1048 386 1048 386 1048 351 c 0,32,33
 1048 290 1048 290 1065 240 c 128,-1,34
 1082 190 1082 190 1115 154.5 c 128,-1,35
 1148 119 1148 119 1196 99.5 c 128,-1,36
 1244 80 1244 80 1307 80 c 0,37,38
 1404 80 1404 80 1483.5 103.5 c 128,-1,39
 1563 127 1563 127 1638 190 c 1,40,-1
 1700 134 l 1,41,42
 1651 96 1651 96 1604 68.5 c 128,-1,43
 1557 41 1557 41 1508 23 c 128,-1,44
 1459 5 1459 5 1405.5 -3.5 c 128,-1,45
 1352 -12 1352 -12 1289 -12 c 256,46,47
 1226 -12 1226 -12 1170.5 3 c 128,-1,48
 1115 18 1115 18 1071.5 49 c 128,-1,49
 1028 80 1028 80 997 126.5 c 128,-1,50
 966 173 966 173 951 237 c 1,51,52
 910 182 910 182 859 135 c 128,-1,53
 808 88 808 88 749 53.5 c 128,-1,54
 690 19 690 19 624.5 -0.5 c 128,-1,55
 559 -20 559 -20 488 -20 c 0,0,1
1711 584 m 1,56,57
 1742 658 1742 658 1742 737 c 0,58,59
 1742 797 1742 797 1720.5 838.5 c 128,-1,60
 1699 880 1699 880 1662 905.5 c 128,-1,61
 1625 931 1625 931 1577 942.5 c 128,-1,62
 1529 954 1529 954 1475 954 c 0,63,64
 1397 954 1397 954 1332.5 922.5 c 128,-1,65
 1268 891 1268 891 1219 839.5 c 128,-1,66
 1170 788 1170 788 1137 721.5 c 128,-1,67
 1104 655 1104 655 1088 584 c 1,68,-1
 1711 584 l 1,56,57
492 82 m 0,69,70
 565 82 565 82 629.5 106.5 c 128,-1,71
 694 131 694 131 748 173.5 c 128,-1,72
 802 216 802 216 844.5 272.5 c 128,-1,73
 887 329 887 329 916.5 393.5 c 128,-1,74
 946 458 946 458 961.5 527 c 128,-1,75
 977 596 977 596 977 663 c 0,76,77
 977 727 977 727 959.5 780 c 128,-1,78
 942 833 942 833 907.5 870.5 c 128,-1,79
 873 908 873 908 822 929 c 128,-1,80
 771 950 771 950 705 950 c 0,81,82
 634 950 634 950 570 925.5 c 128,-1,83
 506 901 506 901 452.5 858.5 c 128,-1,84
 399 816 399 816 356.5 759.5 c 128,-1,85
 314 703 314 703 284 639 c 128,-1,86
 254 575 254 575 238 507 c 128,-1,87
 222 439 222 439 222 374 c 0,88,89
 222 313 222 313 240 259.5 c 128,-1,90
 258 206 258 206 292.5 166.5 c 128,-1,91
 327 127 327 127 377.5 104.5 c 128,-1,92
 428 82 428 82 492 82 c 0,69,70
EndSplineSet
EndChar

StartChar: Scedilla
Encoding: 350 350 285
Width: 1114
GlyphClass: 1
Flags: W
LayerCount: 2
Fore
SplineSet
309 -499 m 0,0,1
 281 -499 281 -499 255 -490.5 c 128,-1,2
 229 -482 229 -482 208 -466.5 c 128,-1,3
 187 -451 187 -451 173 -428 c 128,-1,4
 159 -405 159 -405 154 -376 c 1,5,-1
 241 -342 l 1,6,7
 241 -377 241 -377 260 -397 c 128,-1,8
 279 -417 279 -417 314 -417 c 0,9,10
 341 -417 341 -417 367.5 -405.5 c 128,-1,11
 394 -394 394 -394 415 -375 c 128,-1,12
 436 -356 436 -356 449.5 -330.5 c 128,-1,13
 463 -305 463 -305 463 -278 c 0,14,15
 463 -241 463 -241 443 -220 c 128,-1,16
 423 -199 423 -199 394 -189 c 128,-1,17
 365 -179 365 -179 331 -177 c 128,-1,18
 297 -175 297 -175 270 -175 c 1,19,-1
 387 -9 l 1,20,21
 317 3 317 3 259 33 c 128,-1,22
 201 63 201 63 159 108.5 c 128,-1,23
 117 154 117 154 94 214 c 128,-1,24
 71 274 71 274 71 347 c 1,25,-1
 179 371 l 1,26,27
 179 227 179 227 256.5 155.5 c 128,-1,28
 334 84 334 84 476 84 c 0,29,30
 548 84 548 84 616.5 104.5 c 128,-1,31
 685 125 685 125 738.5 165.5 c 128,-1,32
 792 206 792 206 824.5 266 c 128,-1,33
 857 326 857 326 857 405 c 0,34,35
 857 465 857 465 834.5 508 c 128,-1,36
 812 551 812 551 774.5 583.5 c 128,-1,37
 737 616 737 616 689.5 641.5 c 128,-1,38
 642 667 642 667 592.5 692 c 128,-1,39
 543 717 543 717 495.5 744.5 c 128,-1,40
 448 772 448 772 410.5 808.5 c 128,-1,41
 373 845 373 845 350.5 894 c 128,-1,42
 328 943 328 943 328 1011 c 0,43,44
 328 1101 328 1101 366 1178.5 c 128,-1,45
 404 1256 404 1256 467 1313 c 128,-1,46
 530 1370 530 1370 611.5 1402 c 128,-1,47
 693 1434 693 1434 780 1434 c 0,48,49
 835 1434 835 1434 884.5 1421 c 128,-1,50
 934 1408 934 1408 975.5 1381.5 c 128,-1,51
 1017 1355 1017 1355 1049 1315.5 c 128,-1,52
 1081 1276 1081 1276 1100 1223 c 1,53,-1
 1014 1177 l 1,54,55
 1002 1216 1002 1216 978 1246 c 128,-1,56
 954 1276 954 1276 922.5 1296 c 128,-1,57
 891 1316 891 1316 853.5 1326.5 c 128,-1,58
 816 1337 816 1337 777 1337 c 0,59,60
 716 1337 716 1337 655.5 1314.5 c 128,-1,61
 595 1292 595 1292 547 1251.5 c 128,-1,62
 499 1211 499 1211 469 1155.5 c 128,-1,63
 439 1100 439 1100 439 1035 c 0,64,65
 439 978 439 978 461.5 937 c 128,-1,66
 484 896 484 896 521.5 865 c 128,-1,67
 559 834 559 834 606.5 809.5 c 128,-1,68
 654 785 654 785 703.5 760.5 c 128,-1,69
 753 736 753 736 800 708 c 128,-1,70
 847 680 847 680 884.5 642.5 c 128,-1,71
 922 605 922 605 944.5 554 c 128,-1,72
 967 503 967 503 967 433 c 0,73,74
 967 337 967 337 926.5 254.5 c 128,-1,75
 886 172 886 172 819 112 c 128,-1,76
 752 52 752 52 665.5 18 c 128,-1,77
 579 -16 579 -16 486 -16 c 1,78,79
 461 -44 461 -44 438.5 -72.5 c 128,-1,80
 416 -101 416 -101 392 -129 c 1,81,82
 425 -129 425 -129 454 -137 c 128,-1,83
 483 -145 483 -145 504 -161.5 c 128,-1,84
 525 -178 525 -178 537 -204 c 128,-1,85
 549 -230 549 -230 549 -266 c 0,86,87
 549 -313 549 -313 529 -355 c 128,-1,88
 509 -397 509 -397 475.5 -429 c 128,-1,89
 442 -461 442 -461 398.5 -480 c 128,-1,90
 355 -499 355 -499 309 -499 c 0,0,1
EndSplineSet
Substitution2: "'locl' Localized Forms in Latin lookup 7 subtable" uni0218
Substitution2: "'locl' Localized Forms in Latin lookup 6 subtable" uni0218
Substitution2: "'aalt' Access All Alternates lookup 0 subtable" uni0218
Position2: "'cpsp' Capital Spacing lookup 0 per glyph data 0" dx=5 dy=0 dh=10 dv=0
EndChar

StartChar: uni0163
Encoding: 355 355 290
Width: 657
GlyphClass: 1
Flags: W
LayerCount: 2
Fore
SplineSet
188 -499 m 0,0,1
 160 -499 160 -499 133.5 -490.5 c 128,-1,2
 107 -482 107 -482 86 -466 c 128,-1,3
 65 -450 65 -450 50.5 -427 c 128,-1,4
 36 -404 36 -404 31 -375 c 1,5,-1
 118 -340 l 1,6,7
 118 -375 118 -375 137.5 -396 c 128,-1,8
 157 -417 157 -417 193 -417 c 0,9,10
 220 -417 220 -417 246.5 -405 c 128,-1,11
 273 -393 273 -393 295 -373 c 128,-1,12
 317 -353 317 -353 330.5 -327 c 128,-1,13
 344 -301 344 -301 344 -274 c 0,14,15
 344 -235 344 -235 324 -213.5 c 128,-1,16
 304 -192 304 -192 274 -181.5 c 128,-1,17
 244 -171 244 -171 210 -169 c 128,-1,18
 176 -167 176 -167 148 -167 c 1,19,20
 176 -125 176 -125 204 -84.5 c 128,-1,21
 232 -44 232 -44 261 -2 c 1,22,23
 197 12 197 12 170 57.5 c 128,-1,24
 143 103 143 103 143 165 c 0,25,26
 143 196 143 196 148.5 231 c 128,-1,27
 154 266 154 266 162 301 c 128,-1,28
 170 336 170 336 179 371 c 128,-1,29
 188 406 188 406 194 437 c 0,30,31
 221 568 221 568 251 696.5 c 128,-1,32
 281 825 281 825 311 956 c 1,33,-1
 152 956 l 1,34,-1
 171 1039 l 1,35,-1
 328 1039 l 1,36,-1
 379 1231 l 1,37,-1
 521 1336 l 1,38,-1
 441 1039 l 1,39,-1
 705 1039 l 1,40,-1
 686 956 l 1,41,-1
 422 956 l 1,42,-1
 260 256 l 2,43,44
 252 219 252 219 252 185 c 0,45,46
 252 136 252 136 273.5 105.5 c 128,-1,47
 295 75 295 75 348 75 c 0,48,49
 373 75 373 75 396.5 81 c 128,-1,50
 420 87 420 87 443 96 c 1,51,-1
 432 7 l 2,52,53
 428 5 428 5 419.5 3.5 c 128,-1,54
 411 2 411 2 400.5 0.5 c 128,-1,55
 390 -1 390 -1 380.5 -2.5 c 128,-1,56
 371 -4 371 -4 366 -5 c 2,57,-1
 271 -120 l 1,58,59
 305 -120 305 -120 334 -128 c 128,-1,60
 363 -136 363 -136 384.5 -153 c 128,-1,61
 406 -170 406 -170 418.5 -196.5 c 128,-1,62
 431 -223 431 -223 431 -260 c 0,63,64
 431 -307 431 -307 410.5 -350.5 c 128,-1,65
 390 -394 390 -394 356.5 -427 c 128,-1,66
 323 -460 323 -460 279 -479.5 c 128,-1,67
 235 -499 235 -499 188 -499 c 0,0,1
EndSplineSet
EndChar

StartChar: tcaron
Encoding: 357 357 292
Width: 671
GlyphClass: 1
Flags: W
LayerCount: 2
Fore
SplineSet
654 1083 m 1,0,-1
 560 1083 l 1,1,-1
 749 1413 l 1,2,-1
 948 1413 l 1,3,-1
 654 1083 l 1,0,-1
330 -22 m 0,4,5
 239 -22 239 -22 193.5 20.5 c 128,-1,6
 148 63 148 63 148 155 c 0,7,8
 148 186 148 186 152.5 216.5 c 128,-1,9
 157 247 157 247 164 277 c 2,10,-1
 316 956 l 1,11,-1
 158 956 l 1,12,-1
 177 1039 l 1,13,-1
 334 1039 l 1,14,-1
 386 1236 l 1,15,-1
 530 1344 l 1,16,-1
 451 1039 l 1,17,-1
 714 1039 l 1,18,-1
 696 956 l 1,19,-1
 431 956 l 1,20,21
 399 822 399 822 370 688.5 c 128,-1,22
 341 555 341 555 309 421 c 0,23,24
 302 393 302 393 293.5 361 c 128,-1,25
 285 329 285 329 277 296.5 c 128,-1,26
 269 264 269 264 263.5 232 c 128,-1,27
 258 200 258 200 258 172 c 0,28,29
 258 123 258 123 280 91.5 c 128,-1,30
 302 60 302 60 355 60 c 0,31,32
 381 60 381 60 405 66.5 c 128,-1,33
 429 73 429 73 453 81 c 1,34,-1
 441 -6 l 1,35,36
 413 -12 413 -12 386 -17 c 128,-1,37
 359 -22 359 -22 330 -22 c 0,4,5
EndSplineSet
EndChar

StartChar: Tbar
Encoding: 358 358 293
Width: 1279
GlyphClass: 1
Flags: W
LayerCount: 2
Fore
SplineSet
584 0 m 1,0,-1
 467 0 l 1,1,-1
 618 659 l 1,2,-1
 366 659 l 1,3,-1
 388 751 l 1,4,-1
 641 751 l 1,5,-1
 773 1328 l 1,6,-1
 280 1328 l 1,7,-1
 299 1413 l 1,8,-1
 1402 1413 l 1,9,-1
 1382 1328 l 1,10,-1
 890 1328 l 1,11,-1
 757 751 l 1,12,-1
 1019 751 l 1,13,-1
 998 659 l 1,14,-1
 735 659 l 1,15,-1
 584 0 l 1,0,-1
EndSplineSet
Position2: "'cpsp' Capital Spacing lookup 0 per glyph data 0" dx=5 dy=0 dh=10 dv=0
EndChar

StartChar: tbar
Encoding: 359 359 294
Width: 668
GlyphClass: 1
Flags: W
LayerCount: 2
Fore
SplineSet
328 -20 m 0,0,1
 237 -20 237 -20 192.5 21 c 128,-1,2
 148 62 148 62 148 155 c 0,3,4
 148 196 148 196 154 236 c 128,-1,5
 160 276 160 276 169 315.5 c 128,-1,6
 178 355 178 355 188 394.5 c 128,-1,7
 198 434 198 434 207 473 c 1,8,-1
 -24 473 l 1,9,-1
 -1 565 l 1,10,-1
 227 565 l 1,11,12
 250 663 250 663 271.5 760.5 c 128,-1,13
 293 858 293 858 315 956 c 1,14,-1
 158 956 l 1,15,-1
 176 1039 l 1,16,-1
 333 1039 l 1,17,-1
 385 1231 l 1,18,-1
 529 1336 l 1,19,-1
 450 1039 l 1,20,-1
 713 1039 l 1,21,-1
 696 956 l 1,22,-1
 431 956 l 1,23,-1
 340 565 l 1,24,-1
 653 565 l 1,25,-1
 629 473 l 1,26,-1
 318 473 l 1,27,28
 311 441 311 441 300.5 402 c 128,-1,29
 290 363 290 363 280.5 322.5 c 128,-1,30
 271 282 271 282 264 243.5 c 128,-1,31
 257 205 257 205 257 173 c 0,32,33
 257 122 257 122 278.5 91 c 128,-1,34
 300 60 300 60 355 60 c 0,35,36
 380 60 380 60 404.5 66.5 c 128,-1,37
 429 73 429 73 452 81 c 1,38,-1
 440 -6 l 1,39,40
 414 -17 414 -17 385 -18.5 c 128,-1,41
 356 -20 356 -20 328 -20 c 0,0,1
EndSplineSet
EndChar

StartChar: Uogonek
Encoding: 370 370 305
Width: 1353
GlyphClass: 1
Flags: W
LayerCount: 2
Fore
SplineSet
517 -450 m 0,0,1
 480 -450 480 -450 449.5 -438.5 c 128,-1,2
 419 -427 419 -427 397 -406 c 128,-1,3
 375 -385 375 -385 363 -355 c 128,-1,4
 351 -325 351 -325 351 -287 c 0,5,6
 351 -236 351 -236 368.5 -195.5 c 128,-1,7
 386 -155 386 -155 415 -122.5 c 128,-1,8
 444 -90 444 -90 483 -65 c 128,-1,9
 522 -40 522 -40 564 -20 c 1,10,11
 385 -15 385 -15 287 77.5 c 128,-1,12
 189 170 189 170 189 353 c 0,13,14
 189 433 189 433 207 509 c 2,15,-1
 417 1413 l 1,16,-1
 531 1413 l 1,17,18
 480 1196 480 1196 429.5 982 c 128,-1,19
 379 768 379 768 331 551 c 0,20,21
 320 503 320 503 313 455 c 128,-1,22
 306 407 306 407 306 358 c 0,23,24
 306 225 306 225 370 155 c 128,-1,25
 434 85 434 85 569 85 c 0,26,27
 617 85 617 85 664.5 94 c 128,-1,28
 712 103 712 103 756 125 c 0,29,30
 848 170 848 170 905.5 243.5 c 128,-1,31
 963 317 963 317 999 405 c 128,-1,32
 1035 493 1035 493 1056.5 589 c 128,-1,33
 1078 685 1078 685 1099 775 c 0,34,35
 1136 936 1136 936 1172.5 1094.5 c 128,-1,36
 1209 1253 1209 1253 1247 1413 c 1,37,-1
 1362 1413 l 1,38,-1
 1258 961 l 2,39,40
 1232 847 1232 847 1206.5 734.5 c 128,-1,41
 1181 622 1181 622 1154 509 c 0,42,43
 1137 438 1137 438 1105.5 364.5 c 128,-1,44
 1074 291 1074 291 1028.5 225.5 c 128,-1,45
 983 160 983 160 924 108 c 128,-1,46
 865 56 865 56 794 27 c 0,47,48
 771 18 771 18 748.5 11.5 c 128,-1,49
 726 5 726 5 703 -3 c 0,50,51
 662 -18 662 -18 616 -44.5 c 128,-1,52
 570 -71 570 -71 531 -106.5 c 128,-1,53
 492 -142 492 -142 466 -185 c 128,-1,54
 440 -228 440 -228 440 -277 c 0,55,56
 440 -307 440 -307 452 -329.5 c 128,-1,57
 464 -352 464 -352 498 -352 c 0,58,59
 594 -352 594 -352 658 -282 c 1,60,61
 675 -298 675 -298 692.5 -312.5 c 128,-1,62
 710 -327 710 -327 727 -343 c 1,63,64
 704 -369 704 -369 682 -389 c 128,-1,65
 660 -409 660 -409 635 -422.5 c 128,-1,66
 610 -436 610 -436 581.5 -443 c 128,-1,67
 553 -450 553 -450 517 -450 c 0,0,1
EndSplineSet
Position2: "'cpsp' Capital Spacing lookup 0 per glyph data 0" dx=5 dy=0 dh=10 dv=0
EndChar

StartChar: uogonek
Encoding: 371 371 306
Width: 1138
GlyphClass: 1
Flags: W
LayerCount: 2
Fore
SplineSet
603 -454 m 0,0,1
 528 -454 528 -454 482.5 -412.5 c 128,-1,2
 437 -371 437 -371 437 -294 c 0,3,4
 437 -251 437 -251 452 -213 c 128,-1,5
 467 -175 467 -175 492.5 -143.5 c 128,-1,6
 518 -112 518 -112 551 -86.5 c 128,-1,7
 584 -61 584 -61 621 -43 c 0,8,9
 627 -40 627 -40 642.5 -33.5 c 128,-1,10
 658 -27 658 -27 674.5 -20.5 c 128,-1,11
 691 -14 691 -14 707 -9 c 0,12,13
 719 -6 719 -6 725 -6 c 2,14,-1
 728 -6 l 1,15,-1
 780 206 l 1,16,17
 751 157 751 157 709.5 115.5 c 128,-1,18
 668 74 668 74 618 43 c 128,-1,19
 568 12 568 12 512.5 -5.5 c 128,-1,20
 457 -23 457 -23 399 -23 c 0,21,22
 260 -23 260 -23 193.5 52.5 c 128,-1,23
 127 128 127 128 127 263 c 0,24,25
 127 305 127 305 132.5 345.5 c 128,-1,26
 138 386 138 386 147 427 c 2,27,-1
 284 1039 l 1,28,-1
 392 1039 l 1,29,-1
 248 400 l 2,30,31
 240 364 240 364 234 327 c 128,-1,32
 228 290 228 290 228 252 c 0,33,34
 228 212 228 212 236.5 176.5 c 128,-1,35
 245 141 245 141 264 114.5 c 128,-1,36
 283 88 283 88 314 73 c 128,-1,37
 345 58 345 58 390 58 c 0,38,39
 436 58 436 58 484 73 c 128,-1,40
 532 88 532 88 577.5 114.5 c 128,-1,41
 623 141 623 141 664.5 176.5 c 128,-1,42
 706 212 706 212 740 253.5 c 128,-1,43
 774 295 774 295 797.5 339.5 c 128,-1,44
 821 384 821 384 831 428 c 2,45,-1
 969 1039 l 1,46,-1
 1075 1039 l 1,47,-1
 836 0 l 1,48,-1
 834 0 l 1,49,-1
 774 -25 l 1,50,-1
 760 -24 l 1,51,52
 726 -38 726 -38 685.5 -65.5 c 128,-1,53
 645 -93 645 -93 609.5 -128.5 c 128,-1,54
 574 -164 574 -164 550 -204.5 c 128,-1,55
 526 -245 526 -245 526 -284 c 0,56,57
 526 -316 526 -316 541.5 -337.5 c 128,-1,58
 557 -359 557 -359 591 -359 c 0,59,60
 639 -359 639 -359 679 -341 c 128,-1,61
 719 -323 719 -323 752 -289 c 1,62,63
 770 -305 770 -305 788.5 -319.5 c 128,-1,64
 807 -334 807 -334 825 -350 c 1,65,66
 777 -400 777 -400 725.5 -427 c 128,-1,67
 674 -454 674 -454 603 -454 c 0,0,1
EndSplineSet
EndChar

StartChar: longs
Encoding: 383 383 318
Width: 719
GlyphClass: 2
Flags: W
LayerCount: 2
Fore
SplineSet
223 0 m 1,0,-1
 117 0 l 1,1,-1
 337 956 l 1,2,-1
 146 956 l 1,3,-1
 166 1037 l 1,4,-1
 356 1037 l 1,5,6
 368 1082 368 1082 378.5 1131 c 128,-1,7
 389 1180 389 1180 406 1227 c 128,-1,8
 423 1274 423 1274 449.5 1314.5 c 128,-1,9
 476 1355 476 1355 519 1382 c 256,10,11
 562 1409 562 1409 610.5 1421.5 c 128,-1,12
 659 1434 659 1434 710 1434 c 0,13,14
 752 1434 752 1434 792 1426 c 128,-1,15
 832 1418 832 1418 869 1398 c 1,16,-1
 837 1328 l 1,17,18
 778 1350 778 1350 713 1350 c 0,19,20
 635 1350 635 1350 582 1312.5 c 128,-1,21
 529 1275 529 1275 510 1197 c 2,22,-1
 223 0 l 1,0,-1
EndSplineSet
EndChar

StartChar: florin
Encoding: 402 402 319
Width: 1119
GlyphClass: 1
Flags: W
LayerCount: 2
Fore
SplineSet
-73 -459 m 1,0,-1
 -59 -358 l 1,1,2
 124 -358 124 -358 231.5 -271 c 128,-1,3
 339 -184 339 -184 381 -7 c 0,4,5
 409 112 409 112 436.5 230 c 128,-1,6
 464 348 464 348 491 468 c 0,7,8
 517 587 517 587 544.5 705 c 128,-1,9
 572 823 572 823 600 942 c 1,10,-1
 415 942 l 1,11,-1
 439 1039 l 1,12,-1
 625 1039 l 1,13,14
 641 1096 641 1096 655 1151.5 c 128,-1,15
 669 1207 669 1207 691 1256.5 c 128,-1,16
 713 1306 713 1306 748.5 1347.5 c 128,-1,17
 784 1389 784 1389 844 1417 c 0,18,19
 877 1433 877 1433 913 1441.5 c 128,-1,20
 949 1450 949 1450 986 1450 c 0,21,22
 1034 1450 1034 1450 1079 1434 c 128,-1,23
 1124 1418 1124 1418 1159 1386 c 1,24,-1
 1080 1320 l 1,25,26
 1060 1333 1060 1333 1032.5 1341.5 c 128,-1,27
 1005 1350 1005 1350 982 1350 c 0,28,29
 927 1350 927 1350 878 1324 c 128,-1,30
 829 1298 829 1298 799 1253 c 0,31,32
 786 1234 786 1234 776 1206.5 c 128,-1,33
 766 1179 766 1179 757.5 1149.5 c 128,-1,34
 749 1120 749 1120 742 1091 c 128,-1,35
 735 1062 735 1062 728 1039 c 1,36,-1
 1049 1039 l 1,37,-1
 1024 942 l 1,38,-1
 706 942 l 1,39,-1
 481 -14 l 2,40,41
 457 -118 457 -118 407.5 -200.5 c 128,-1,42
 358 -283 358 -283 287 -340.5 c 128,-1,43
 216 -398 216 -398 125.5 -428.5 c 128,-1,44
 35 -459 35 -459 -73 -459 c 1,0,-1
EndSplineSet
EndChar

StartChar: uni01C3
Encoding: 451 451 324
Width: 707
GlyphClass: 1
Flags: W
LayerCount: 2
Fore
SplineSet
361 361 m 1,0,-1
 283 361 l 1,1,-1
 504 1436 l 1,2,-1
 639 1436 l 1,3,-1
 361 361 l 1,0,-1
318 0 m 1,4,-1
 160 0 l 1,5,-1
 195 158 l 1,6,-1
 354 158 l 1,7,-1
 318 0 l 1,4,-1
EndSplineSet
EndChar

StartChar: uni01EB
Encoding: 491 491 353
Width: 1154
GlyphClass: 1
Flags: W
LayerCount: 2
Fore
SplineSet
336 -453 m 0,0,1
 261 -453 261 -453 215.5 -409.5 c 128,-1,2
 170 -366 170 -366 170 -290 c 0,3,4
 170 -235 170 -235 191 -190 c 128,-1,5
 212 -145 212 -145 247 -110 c 128,-1,6
 282 -75 282 -75 326.5 -49.5 c 128,-1,7
 371 -24 371 -24 419 -7 c 1,8,9
 338 3 338 3 277 36 c 128,-1,10
 216 69 216 69 175.5 121 c 128,-1,11
 135 173 135 173 115 240.5 c 128,-1,12
 95 308 95 308 95 387 c 0,13,14
 95 467 95 467 115.5 547.5 c 128,-1,15
 136 628 136 628 174 702 c 128,-1,16
 212 776 212 776 266 839.5 c 128,-1,17
 320 903 320 903 386 950.5 c 128,-1,18
 452 998 452 998 529.5 1025 c 128,-1,19
 607 1052 607 1052 691 1052 c 0,20,21
 778 1052 778 1052 847.5 1021.5 c 128,-1,22
 917 991 917 991 965.5 937.5 c 128,-1,23
 1014 884 1014 884 1040 811 c 128,-1,24
 1066 738 1066 738 1066 654 c 0,25,26
 1066 551 1066 551 1030 447.5 c 128,-1,27
 994 344 994 344 931 255 c 128,-1,28
 868 166 868 166 781 100 c 128,-1,29
 694 34 694 34 592 7 c 0,30,31
 573 2 573 2 554.5 0 c 128,-1,32
 536 -2 536 -2 517 -8 c 0,33,34
 477 -21 477 -21 432 -48 c 128,-1,35
 387 -75 387 -75 348.5 -111.5 c 128,-1,36
 310 -148 310 -148 284.5 -192 c 128,-1,37
 259 -236 259 -236 259 -282 c 0,38,39
 259 -314 259 -314 275 -336.5 c 128,-1,40
 291 -359 291 -359 326 -359 c 0,41,42
 419 -359 419 -359 485 -287 c 1,43,-1
 559 -350 l 1,44,45
 534 -376 534 -376 509.5 -395 c 128,-1,46
 485 -414 485 -414 459 -427 c 128,-1,47
 433 -440 433 -440 403 -446.5 c 128,-1,48
 373 -453 373 -453 336 -453 c 0,0,1
469 88 m 0,49,50
 566 88 566 88 642 125.5 c 128,-1,51
 718 163 718 163 774.5 225.5 c 128,-1,52
 831 288 831 288 868.5 368.5 c 128,-1,53
 906 449 906 449 927 534 c 0,54,55
 936 572 936 572 942 610 c 128,-1,56
 948 648 948 648 948 687 c 0,57,58
 948 815 948 815 884.5 886 c 128,-1,59
 821 957 821 957 690 957 c 0,60,61
 594 957 594 957 518.5 919.5 c 128,-1,62
 443 882 443 882 386.5 819.5 c 128,-1,63
 330 757 330 757 292.5 677 c 128,-1,64
 255 597 255 597 236 512 c 0,65,66
 228 474 228 474 222 436 c 128,-1,67
 216 398 216 398 216 360 c 0,68,69
 216 297 216 297 231 246.5 c 128,-1,70
 246 196 246 196 276.5 161 c 128,-1,71
 307 126 307 126 355 107 c 128,-1,72
 403 88 403 88 469 88 c 0,49,50
EndSplineSet
EndChar

StartChar: uni0237
Encoding: 567 567 367
Width: 505
GlyphClass: 2
Flags: W
LayerCount: 2
Fore
SplineSet
-170 -440 m 0,0,1
 -201 -440 -201 -440 -239 -432.5 c 128,-1,2
 -277 -425 -277 -425 -306 -411 c 1,3,-1
 -266 -323 l 1,4,5
 -254 -327 -254 -327 -237.5 -330 c 128,-1,6
 -221 -333 -221 -333 -204 -334.5 c 128,-1,7
 -187 -336 -187 -336 -170 -337 c 128,-1,8
 -153 -338 -153 -338 -140 -338 c 0,9,10
 -74 -338 -74 -338 -31.5 -299 c 128,-1,11
 11 -260 11 -260 25 -197 c 2,12,-1
 314 1039 l 1,13,-1
 427 1039 l 1,14,-1
 144 -172 l 2,15,16
 130 -233 130 -233 103.5 -282.5 c 128,-1,17
 77 -332 77 -332 38 -367 c 128,-1,18
 -1 -402 -1 -402 -53 -421 c 128,-1,19
 -105 -440 -105 -440 -170 -440 c 0,0,1
EndSplineSet
EndChar

StartChar: uni0250
Encoding: 592 592 368
Width: 1041
GlyphClass: 1
Flags: W
LayerCount: 2
Fore
SplineSet
356 -20 m 0,0,1
 299 -20 299 -20 253.5 -12.5 c 128,-1,2
 208 -5 208 -5 172 15 c 128,-1,3
 136 35 136 35 109.5 71.5 c 128,-1,4
 83 108 83 108 65 165 c 0,5,6
 49 212 49 212 49 264 c 0,7,8
 49 298 49 298 53 330.5 c 128,-1,9
 57 363 57 363 65 396 c 2,10,-1
 209 1036 l 1,11,-1
 303 1036 l 1,12,13
 289 977 289 977 275.5 918.5 c 128,-1,14
 262 860 262 860 247 801 c 1,15,16
 285 859 285 859 332.5 906 c 128,-1,17
 380 953 380 953 436 986.5 c 128,-1,18
 492 1020 492 1020 556 1038 c 128,-1,19
 620 1056 620 1056 691 1056 c 0,20,21
 732 1056 732 1056 768.5 1050 c 128,-1,22
 805 1044 805 1044 836.5 1029 c 128,-1,23
 868 1014 868 1014 893 988 c 128,-1,24
 918 962 918 962 934 922 c 0,25,26
 949 883 949 883 949 841 c 0,27,28
 949 784 949 784 929.5 724.5 c 128,-1,29
 910 665 910 665 874 620 c 0,30,31
 835 572 835 572 782.5 541.5 c 128,-1,32
 730 511 730 511 670.5 492.5 c 128,-1,33
 611 474 611 474 546.5 466.5 c 128,-1,34
 482 459 482 459 417 457 c 0,35,36
 377 455 377 455 339 455 c 0,37,38
 314 455 314 455 270 456 c 128,-1,39
 226 457 226 457 170 457 c 1,40,41
 161 415 161 415 154.5 373.5 c 128,-1,42
 148 332 148 332 148 289 c 0,43,44
 148 270 148 270 149.5 251.5 c 128,-1,45
 151 233 151 233 153 215 c 0,46,47
 158 176 158 176 178 148 c 128,-1,48
 198 120 198 120 227.5 103 c 128,-1,49
 257 86 257 86 292.5 78 c 128,-1,50
 328 70 328 70 363 70 c 0,51,52
 463 70 463 70 552 112.5 c 128,-1,53
 641 155 641 155 707 228 c 1,54,-1
 769 166 l 1,55,56
 683 77 683 77 582 28.5 c 128,-1,57
 481 -20 481 -20 356 -20 c 0,0,1
417 539 m 2,58,59
 481 539 481 539 547.5 546 c 128,-1,60
 614 553 614 553 671.5 576.5 c 128,-1,61
 729 600 729 600 771.5 644 c 128,-1,62
 814 688 814 688 830 763 c 0,63,64
 838 798 838 798 838 830 c 0,65,66
 838 870 838 870 823.5 896.5 c 128,-1,67
 809 923 809 923 784.5 939 c 128,-1,68
 760 955 760 955 728.5 962 c 128,-1,69
 697 969 697 969 662 969 c 0,70,71
 576 969 576 969 498 931.5 c 128,-1,72
 420 894 420 894 357.5 833.5 c 128,-1,73
 295 773 295 773 251.5 696 c 128,-1,74
 208 619 208 619 190 539 c 1,75,-1
 417 539 l 2,58,59
EndSplineSet
EndChar

